<?xml version="1.0" encoding="UTF-8" standalone="no"?>
<!-- Created with Inkscape (http://www.inkscape.org/) -->

<svg
   xmlns:dc="http://purl.org/dc/elements/1.1/"
   xmlns:cc="http://creativecommons.org/ns#"
   xmlns:rdf="http://www.w3.org/1999/02/22-rdf-syntax-ns#"
   xmlns:svg="http://www.w3.org/2000/svg"
   xmlns="http://www.w3.org/2000/svg"
   xmlns:sodipodi="http://sodipodi.sourceforge.net/DTD/sodipodi-0.dtd"
   xmlns:inkscape="http://www.inkscape.org/namespaces/inkscape"
   id="svg2"
   version="1.1"
   inkscape:version="0.91 r13725"
   xml:space="preserve"
   width="564.79407"
   height="200.70605"
   viewBox="0 0 564.79406 200.70606"
   sodipodi:docname="NeuroRDstimParams-1.svg"
   inkscape:export-filename="/mnt/meshugaas/home/zbyszek/neuro/neurord/stochdiff/stim-params.png"
   inkscape:export-xdpi="90"
   inkscape:export-ydpi="90"><metadata
     id="metadata8"><rdf:RDF><cc:Work
         rdf:about=""><dc:format>image/svg+xml</dc:format><dc:type
           rdf:resource="http://purl.org/dc/dcmitype/StillImage" /><dc:title></dc:title></cc:Work></rdf:RDF></metadata><defs
     id="defs6"><clipPath
       clipPathUnits="userSpaceOnUse"
       id="clipPath16"><path
         d="m 576,36 -540,0 0,720 540,0 0,-720 z"
         id="path18"
         inkscape:connector-curvature="0"
         style="clip-rule:evenodd" /></clipPath><clipPath
       clipPathUnits="userSpaceOnUse"
       id="clipPath22"><path
         d="m 0,792.03 612,0 0,-792 -612,0 0,792 z"
         id="path24"
         inkscape:connector-curvature="0" /></clipPath></defs><sodipodi:namedview
     pagecolor="#ffffff"
     bordercolor="#666666"
     borderopacity="1"
     objecttolerance="10"
     gridtolerance="10"
     guidetolerance="10"
     inkscape:pageopacity="0"
     inkscape:pageshadow="2"
     inkscape:window-width="1440"
     inkscape:window-height="1009"
     id="namedview4"
     showgrid="false"
     fit-margin-top="0.1"
     fit-margin-left="0.1"
     fit-margin-right="0.1"
     fit-margin-bottom="0.1"
     inkscape:zoom="0.92161796"
     inkscape:cx="382.55921"
     inkscape:cy="147.92378"
     inkscape:window-x="2379"
     inkscape:window-y="13"
     inkscape:window-maximized="0"
     inkscape:current-layer="g10" /><g
     id="g10"
     inkscape:groupmode="layer"
     inkscape:label="NeuroRDstimParams-1"
     transform="matrix(0,1.25,1.25,0,-79.844893,-496.66365)"><g
       id="g70"
       transform="matrix(0.79041019,0,0,0.79041019,487.34614,148.56465)"><path
         d="m 0,0 -43.5,0.18 0,-0.78 L 0,-0.72"
         style="fill:#000000;fill-opacity:1;fill-rule:nonzero;stroke:none"
         id="path72"
         inkscape:connector-curvature="0" /></g><g
       id="g74"
       transform="matrix(0.79041019,0,0,0.79041019,452.7736,148.2801)"><path
         d="m 0,0 0.12,21.66 0.72,0 L 0.72,0"
         style="fill:#000000;fill-opacity:1;fill-rule:nonzero;stroke:none"
         id="path76"
         inkscape:connector-curvature="0" /></g><g
       id="g78"
       transform="matrix(0.79041019,0,0,0.79041019,453.05815,165.68494)"><path
         d="m 0,0 43.26,0.12 0,-0.78 L 0,-0.78"
         style="fill:#000000;fill-opacity:1;fill-rule:nonzero;stroke:none"
         id="path80"
         inkscape:connector-curvature="0" /></g><g
       id="g82"
       transform="matrix(0.79041019,0,0,0.79041019,486.96675,102.65763)"><path
         d="m 0,0 0.12,57.6 0.72,0 L 0.72,0"
         style="fill:#000000;fill-opacity:1;fill-rule:nonzero;stroke:none"
         id="path84"
         inkscape:connector-curvature="0" /></g><g
       id="g86"
       transform="matrix(0.79041019,0,0,0.79041019,487.34614,197.88625)"><path
         d="m 0,0 -43.5,0.12 0,-0.72 L 0,-0.72"
         style="fill:#000000;fill-opacity:1;fill-rule:nonzero;stroke:none"
         id="path88"
         inkscape:connector-curvature="0" /></g><g
       id="g90"
       transform="matrix(0.79041019,0,0,0.79041019,452.7736,197.6017)"><path
         d="m 0,0 0.12,21.6 0.72,0 L 0.72,0"
         style="fill:#000000;fill-opacity:1;fill-rule:nonzero;stroke:none"
         id="path92"
         inkscape:connector-curvature="0" /></g><g
       id="g94"
       transform="matrix(0.79041019,0,0,0.79041019,453.05815,214.86426)"><path
         d="m 0,0 43.26,0.12 0,-0.72 L 0,-0.72"
         style="fill:#000000;fill-opacity:1;fill-rule:nonzero;stroke:none"
         id="path96"
         inkscape:connector-curvature="0" /></g><g
       id="g98"
       transform="matrix(0.79041019,0,0,0.79041019,487.34614,247.20784)"><path
         d="m 0,0 -43.5,0.12 0,-0.78 L 0,-0.78"
         style="fill:#000000;fill-opacity:1;fill-rule:nonzero;stroke:none"
         id="path100"
         inkscape:connector-curvature="0" /></g><g
       id="g102"
       transform="matrix(0.79041019,0,0,0.79041019,452.7736,246.87587)"><path
         d="m 0,0 0.12,21.66 0.72,0 L 0.72,0"
         style="fill:#000000;fill-opacity:1;fill-rule:nonzero;stroke:none"
         id="path104"
         inkscape:connector-curvature="0" /></g><g
       id="g106"
       transform="matrix(0.79041019,0,0,0.79041019,453.05815,264.18585)"><path
         d="m 0,0 43.26,0.12 0,-0.72 L 0,-0.78"
         style="fill:#000000;fill-opacity:1;fill-rule:nonzero;stroke:none"
         id="path108"
         inkscape:connector-curvature="0" /></g><g
       id="g110"
       transform="matrix(0.79041019,0,0,0.79041019,486.96675,214.57971)"><path
         d="m 0,0 0.12,40.74 0.72,0 L 0.72,0"
         style="fill:#000000;fill-opacity:1;fill-rule:nonzero;stroke:none"
         id="path112"
         inkscape:connector-curvature="0" /></g><g
       id="g114"
       transform="matrix(0.79041019,0,0,0.79041019,486.96675,165.40039)"><path
         d="m 0,0 0.12,40.74 0.72,0 L 0.72,0"
         style="fill:#000000;fill-opacity:1;fill-rule:nonzero;stroke:none"
         id="path116"
         inkscape:connector-curvature="0" /></g><g
       id="g118"
       transform="matrix(0.79041019,0,0,0.79041019,486.96675,263.90131)"><path
         d="m 0,0 0.12,168.70655 0.72,0 L 0.72,0"
         style="fill:#000000;fill-opacity:1;fill-rule:nonzero;stroke:none"
         id="path120"
         inkscape:connector-curvature="0"
         sodipodi:nodetypes="cccc" /></g><g
       id="g122"
       transform="matrix(0.79041019,0,0,0.79041019,487.34614,397.25931)"><path
         d="m 0,0 -43.5,0.12 0,-0.72 L 0,-0.72"
         style="fill:#000000;fill-opacity:1;fill-rule:nonzero;stroke:none"
         id="path124"
         inkscape:connector-curvature="0" /></g><g
       id="g126"
       transform="matrix(0.79041019,0,0,0.79041019,452.7736,396.97477)"><path
         d="m 0,0 0.12,21.6 0.72,0 L 0.72,0"
         style="fill:#000000;fill-opacity:1;fill-rule:nonzero;stroke:none"
         id="path128"
         inkscape:connector-curvature="0" /></g><g
       id="g130"
       transform="matrix(0.79041019,0,0,0.79041019,453.05815,414.3796)"><path
         d="m 0,0 43.26,0.12 0,-0.78 L 0,-0.78"
         style="fill:#000000;fill-opacity:1;fill-rule:nonzero;stroke:none"
         id="path132"
         inkscape:connector-curvature="0" /></g><g
       id="g134"
       transform="matrix(0.79041019,0,0,0.79041019,487.34614,446.58091)"><path
         d="m 0,0 -43.5,0.12 0,-0.78 L 0,-0.78"
         style="fill:#000000;fill-opacity:1;fill-rule:nonzero;stroke:none"
         id="path136"
         inkscape:connector-curvature="0" /></g><g
       id="g138"
       transform="matrix(0.79041019,0,0,0.79041019,452.7736,446.29636)"><path
         d="m 0,0 0.12,21.6 0.72,0 L 0.72,0"
         style="fill:#000000;fill-opacity:1;fill-rule:nonzero;stroke:none"
         id="path140"
         inkscape:connector-curvature="0" /></g><g
       id="g142"
       transform="matrix(0.79041019,0,0,0.79041019,453.05815,463.65377)"><path
         d="m 0,0 43.26,0.12 0,-0.72 L 0,-0.72"
         style="fill:#000000;fill-opacity:1;fill-rule:nonzero;stroke:none"
         id="path144"
         inkscape:connector-curvature="0" /></g><g
       id="g146"
       transform="matrix(0.79041019,0,0,0.79041019,487.34614,495.85508)"><path
         d="m 0,0 -43.5,0.12 0,-0.72 L 0,-0.72"
         style="fill:#000000;fill-opacity:1;fill-rule:nonzero;stroke:none"
         id="path148"
         inkscape:connector-curvature="0" /></g><g
       id="g150"
       transform="matrix(0.79041019,0,0,0.79041019,452.7736,495.57053)"><path
         d="m 0,0 0.12,21.66 0.72,0 L 0.72,0"
         style="fill:#000000;fill-opacity:1;fill-rule:nonzero;stroke:none"
         id="path152"
         inkscape:connector-curvature="0" /></g><g
       id="g154"
       transform="matrix(0.79041019,0,0,0.79041019,453.05815,512.88052)"><path
         d="m 0,0 43.26,0.12 0,-0.78 L 0,-0.78"
         style="fill:#000000;fill-opacity:1;fill-rule:nonzero;stroke:none"
         id="path156"
         inkscape:connector-curvature="0" /></g><g
       id="g158"
       transform="matrix(0.79041019,0,0,0.79041019,486.96675,463.36922)"><path
         d="m 0,0 0.12,40.74 0.72,0 L 0.72,0"
         style="fill:#000000;fill-opacity:1;fill-rule:nonzero;stroke:none"
         id="path160"
         inkscape:connector-curvature="0" /></g><g
       id="g162"
       transform="matrix(0.79041019,0,0,0.79041019,486.96675,414.04763)"><path
         d="m 0,0 0.12,40.8 0.72,0 L 0.72,0"
         style="fill:#000000;fill-opacity:1;fill-rule:nonzero;stroke:none"
         id="path164"
         inkscape:connector-curvature="0" /></g><text
       transform="matrix(0,1,1,0,0,0)"
       style="font-variant:normal;font-weight:normal;font-stretch:normal;font-size:14.22738361px;font-family:Arial;-inkscape-font-specification:ArialMT;writing-mode:lr-tb;fill:#000000;fill-opacity:1;fill-rule:nonzero;stroke:none"
       id="text166"
       x="145.86145"
       y="407.43567"><tspan
         x="145.86145 153.77756 161.69368 168.81306 176.72917"
         y="407.43567"
         sodipodi:role="line"
         id="tspan168">onset</tspan><tspan
         x="182.33051 190.24661 198.16273 202.90614 210.82227 214.78316 217.94733 225.86345"
         y="435.51056"
         sodipodi:role="line"
         id="tspan170">duration</tspan><tspan
         x="104.36444 109.09647 117.0012 120.95072"
         y="473.26007"
         sodipodi:role="line"
         id="tspan172">rate</tspan></text>
<g
       id="g174"
       transform="matrix(0.79041019,0,0,0.79041019,413.22148,148.56465)"><path
         d="m 0,0 45.42,0.12 0,-0.72 L 0,-0.72 0,0 Z m 44.4,2.76 6,-3 -6,-3"
         style="fill:#000000;fill-opacity:1;fill-rule:nonzero;stroke:none"
         id="path176"
         inkscape:connector-curvature="0" /></g><g
       id="g178"
       transform="matrix(0.79041019,0,0,0.79041019,456.99439,137.23017)"><path
         d="m 0,0 33.24,0.12 0,-0.78 L 0,-0.72 0,0 Z m 1.02,-3.36 -6,3 6,3 0,-6 z m 31.26,6.06 6,-2.94 -6,-3.06"
         style="fill:#000000;fill-opacity:1;fill-rule:nonzero;stroke:none"
         id="path180"
         inkscape:connector-curvature="0" /></g><g
       id="g182"
       transform="matrix(0.79041019,0,0,0.79041019,447.03522,197.7914)"><path
         d="m 0,0 0.12,18.72 0.72,0 L 0.78,0 0,0 Z m 3.42,0.96 -3.06,-5.94 -2.94,6 6,-0.06 z m -5.94,16.8 3,6 3,-6"
         style="fill:#000000;fill-opacity:1;fill-rule:nonzero;stroke:none"
         id="path184"
         inkscape:connector-curvature="0" /></g><g
       id="g186"
       transform="matrix(0.79041019,0,0,0.79041019,501.19413,152.45347)"><path
         d="m 0,0 0.06,54.72 0.78,0 L 0.72,0 0,0 Z m 3.36,0.96 -3,-6 -3,6 6,0 z m -5.88,52.8 3,6 3,-6.06"
         style="fill:#000000;fill-opacity:1;fill-rule:nonzero;stroke:none"
         id="path188"
         inkscape:connector-curvature="0" /></g><text
       transform="matrix(0,1,1,0,0,0)"
       style="font-variant:normal;font-weight:normal;font-stretch:normal;font-size:14.22738361px;font-family:Arial;-inkscape-font-specification:ArialMT;writing-mode:lr-tb;fill:#ff0000;fill-opacity:1;fill-rule:nonzero;stroke:none"
       id="text190"
       x="155.25153"
       y="518.69373"><tspan
         x="155.25153 163.17049 171.08945 175.83569 179.00272 186.92168"
         y="518.69373"
         sodipodi:role="line"
         id="tspan192">period</tspan></text>
<g
       id="g194"
       transform="matrix(0.79041019,0,0,0.79041019,501.19413,268.92832)"><path
         d="m 0,0 0.12,159.36 0.72,0 L 0.72,0 0,0 Z m 3.36,1.02 -3,-6 -3,6 6,0 z m -5.88,157.38 3,6 3,-6"
         style="fill:#000000;fill-opacity:1;fill-rule:nonzero;stroke:none"
         id="path196"
         inkscape:connector-curvature="0" /></g><text
       transform="matrix(0,1,1,0,0,0)"
       style="font-variant:normal;font-weight:normal;font-stretch:normal;font-size:14.22738361px;font-family:Arial;-inkscape-font-specification:ArialMT;writing-mode:lr-tb;fill:#22228b;fill-opacity:1;fill-rule:nonzero;stroke:none"
       id="text198"
       x="279.02975"
       y="517.69781"><tspan
         x="279.02975 282.98639 290.89825 294.85489 302.76672 307.50586 315.66528 320.40442 328.31625 331.47617 339.388 343.34464 351.2565 355.21313 363.12497 367.86411 374.97922 382.89108"
         y="517.69781"
         sodipodi:role="line"
         id="tspan200">InterTrainInterval</tspan></text>
<g
       id="g202"
       transform="matrix(0.79041019,0,0,0.79041019,413.22148,265.08692)"><path
         d="m 0,0 45.42,0.12 0,-0.78 L 0,-0.78 0,0 Z m 44.4,2.7 6,-2.94 -6,-3.06"
         style="fill:#000000;fill-opacity:1;fill-rule:nonzero;stroke:none"
         id="path204"
         inkscape:connector-curvature="0" /></g><text
       transform="matrix(0,1,1,0,0,0)"
       style="font-variant:normal;font-weight:normal;font-stretch:normal;font-size:14.22738361px;font-family:Arial;-inkscape-font-specification:ArialMT;writing-mode:lr-tb;fill:#22228b;fill-opacity:1;fill-rule:nonzero;stroke:none"
       id="text206"
       x="256.4082"
       y="407.72021"><tspan
         x="256.4082 264.32574 272.24329"
         y="407.72021"
         sodipodi:role="line"
         id="tspan208">end</tspan><tspan
         x="63.011127 70.930092 78.849052 90.709 98.868401 103.61038 111.52934 114.69637 122.61533 200.53444 452.68921"
         y="557.67682"
         sodipodi:role="line"
         id="tspan210">numTrains12</tspan></text>
<g
       id="g212"
       transform="matrix(0.79041019,0,0,0.79041019,523.81567,265.27662)"><path
         d="m 0,0 1.32,0 0.66,-0.06 0.6,-0.06 0.6,0 1.08,-0.12 0.48,-0.12 c 0.767,-0.099 1.042,-0.117 1.74,-0.48 l 0.06,0 0.18,-0.12 c 0,0 0.06,0 0.06,-0.06 L 6.9,-1.14 c 0,0 0.06,-0.06 0.06,-0.12 l 0.06,-0.12 c 0,-0.06 0,-0.06 0,-0.12 l 0,-72.66 0,0.12 0,-0.12 -0.06,0.18 0.06,-0.12 -0.06,0.06 0.18,-0.12 -0.06,0.06 0.24,-0.12 c 1.7,-0.571 3.509,-0.543 5.28,-0.66 l 0.72,0 c 0.18,0 0.36,-0.18 0.36,-0.36 0,-0.18 -0.18,-0.36 -0.36,-0.36 l -0.72,0 c -1.909,-0.145 -3.487,-0.1 -5.34,-0.66 l -0.18,-0.12 0.06,0.06 -0.18,-0.12 0.06,0.06 -0.06,-0.12 0.06,0.18 0,-0.12 0,0.06 0,-72.6 c 0,-0.06 0,-0.06 0,-0.12 l -0.06,-0.12 c 0,-0.06 -0.06,-0.12 -0.06,-0.12 l -0.12,-0.12 c 0,-0.06 -0.06,-0.06 -0.06,-0.06 l -0.18,-0.12 -0.06,0 -0.24,-0.12 -0.3,-0.12 -0.36,-0.12 -0.36,-0.06 -0.48,-0.06 -0.48,-0.12 c -1.055,-0.156 -1.904,-0.162 -2.94,-0.24 l -1.32,0 0,0.72 0.66,0.06 c 1.394,-0.027 3.945,0.17 5.28,0.6 l 0.24,0.12 -0.06,-0.06 0.18,0.12 -0.06,-0.06 0.06,0.12 -0.06,-0.12 0.06,0.12 -0.06,-0.12 0,72.6 c 0,0.06 0,0.12 0.06,0.12 l 0,0.12 c 0,0.06 0.06,0.12 0.12,0.18 l 0.06,0.06 c 0.06,0.06 0.06,0.06 0.06,0.06 l 0.18,0.12 0.06,0.06 0.24,0.12 0.3,0.06 0.36,0.12 0.42,0.06 0.42,0.12 0.48,0.06 c 1.055,0.156 1.904,0.162 2.94,0.24 l 1.32,0 0,-0.72 -1.32,0 -0.66,0.06 -0.6,0 -0.6,0.06 -1.08,0.12 -0.48,0.06 c -0.793,0.195 -0.95,0.202 -1.74,0.48 l -0.06,0.06 -0.18,0.06 c 0,0.06 0,0.06 -0.06,0.12 l -0.06,0.06 c -0.06,0.06 -0.12,0.12 -0.12,0.18 l 0,0.12 c -0.06,0 -0.06,0.06 -0.06,0.06 L 6.24,-1.5 6.3,-1.62 6.24,-1.5 6.3,-1.62 6.24,-1.5 6.3,-1.56 6.12,-1.5 6.18,-1.5 6,-1.44 c -1.239,0.501 -4.002,0.686 -5.34,0.66 l -0.66,0"
         style="fill:#22228b;fill-opacity:1;fill-rule:nonzero;stroke:none"
         id="path214"
         inkscape:connector-curvature="0" /></g><g
       id="g216"
       transform="matrix(0.79041019,0,0,0.79041019,523.81567,515.63115)"><path
         d="M 0,0 0.66,0 1.32,-0.06 C 2.021,-0.069 3.603,-0.144 4.26,-0.3 L 4.74,-0.36 5.16,-0.42 C 5.841,-0.623 6.082,-0.568 6.72,-0.96 L 6.9,-1.14 c 0,-0.06 0.06,-0.06 0.06,-0.12 l 0.06,-0.12 c 0,-0.06 0,-0.06 0,-0.12 l 0,-72.66 0,0.12 0,-0.12 -0.06,0.18 0.06,-0.12 -0.06,0.06 0.18,-0.12 -0.06,0 0.24,-0.06 c 1.455,-0.547 3.728,-0.623 5.28,-0.66 l 0.72,0 c 0.18,0 0.36,-0.18 0.36,-0.36 0,-0.24 -0.18,-0.36 -0.36,-0.42 l -0.72,0 c -1.793,0.024 -3.602,-0.175 -5.34,-0.6 l -0.18,-0.12 0.06,0 -0.18,-0.06 0.06,0.06 -0.06,-0.12 0.06,0.12 0,-0.12 0,0.12 0,-72.72 -0.06,-0.12 c 0,-0.06 -0.06,-0.12 -0.06,-0.18 l -0.12,-0.06 c 0,-0.06 -0.06,-0.06 -0.06,-0.12 l -0.18,-0.06 -0.06,-0.06 -0.24,-0.06 -0.3,-0.12 -0.36,-0.12 -0.36,-0.06 -0.48,-0.12 -0.48,-0.06 c -1.055,-0.156 -1.904,-0.162 -2.94,-0.24 l -1.32,0 0,0.72 0.66,0 c 1.771,0.117 3.58,0.089 5.28,0.66 l 0.24,0.12 -0.06,-0.06 0.18,0.12 -0.06,-0.06 0.06,0.12 -0.06,-0.18 0.06,0.12 -0.06,-0.12 0,72.66 c 0,0.06 0,0.06 0.06,0.12 l 0,0.12 c 0,0.06 0.06,0.12 0.12,0.12 l 0.06,0.12 c 0.06,0.06 0.06,0.06 0.06,0.06 l 0.18,0.12 0.06,0 0.24,0.12 0.3,0.12 0.36,0.12 0.84,0.12 0.48,0.12 c 1.055,0.156 1.904,0.162 2.94,0.24 l 1.32,0 0,-0.78 -0.66,0.06 -1.32,0 -1.2,0.12 -1.08,0.12 -0.48,0.06 c -0.336,0.011 -1.417,0.323 -1.74,0.48 l -0.06,0 -0.18,0.12 c 0,0 0,0.06 -0.06,0.06 l -0.06,0.12 c -0.06,0.06 -0.12,0.12 -0.12,0.18 l 0,0.06 c -0.06,0.06 -0.06,0.12 -0.06,0.12 L 6.24,-1.5 6.3,-1.62 6.24,-1.5 6.3,-1.62 6.24,-1.56 6.3,-1.62 6.12,-1.5 6.18,-1.5 6,-1.44 c -1.372,0.549 -3.855,0.617 -5.34,0.66 l -0.66,0"
         style="fill:#22228b;fill-opacity:1;fill-rule:nonzero;stroke:none"
         id="path218"
         inkscape:connector-curvature="0" /></g></g></svg>