<?xml version="1.0" encoding="UTF-8" standalone="no"?>
<!-- Created with Inkscape (http://www.inkscape.org/) -->

<svg
   xmlns:dc="http://purl.org/dc/elements/1.1/"
   xmlns:cc="http://creativecommons.org/ns#"
   xmlns:rdf="http://www.w3.org/1999/02/22-rdf-syntax-ns#"
   xmlns:svg="http://www.w3.org/2000/svg"
   xmlns="http://www.w3.org/2000/svg"
   xmlns:sodipodi="http://sodipodi.sourceforge.net/DTD/sodipodi-0.dtd"
   xmlns:inkscape="http://www.inkscape.org/namespaces/inkscape"
   id="svg2"
   version="1.1"
   inkscape:version="0.91 r13725"
   xml:space="preserve"
   width="564.79407"
   height="200.70605"
   viewBox="0 0 564.79406 200.70606"
   sodipodi:docname="stim-params2.svg"
   inkscape:export-filename="/mnt/meshugaas/home/zbyszek/neuro/neurord/stochdiff/stim-params.png"
   inkscape:export-xdpi="90"
   inkscape:export-ydpi="90"><metadata
     id="metadata8"><rdf:RDF><cc:Work
         rdf:about=""><dc:format>image/svg+xml</dc:format><dc:type
           rdf:resource="http://purl.org/dc/dcmitype/StillImage" /><dc:title></dc:title></cc:Work></rdf:RDF></metadata><defs
     id="defs6"><clipPath
       clipPathUnits="userSpaceOnUse"
       id="clipPath16"><path
         d="m 576,36 -540,0 0,720 540,0 0,-720 z"
         id="path18"
         inkscape:connector-curvature="0"
         style="clip-rule:evenodd" /></clipPath><clipPath
       clipPathUnits="userSpaceOnUse"
       id="clipPath22"><path
         d="m 0,792.03 612,0 0,-792 -612,0 0,792 z"
         id="path24"
         inkscape:connector-curvature="0" /></clipPath></defs><sodipodi:namedview
     pagecolor="#ffffff"
     bordercolor="#666666"
     borderopacity="1"
     objecttolerance="10"
     gridtolerance="10"
     guidetolerance="10"
     inkscape:pageopacity="0"
     inkscape:pageshadow="2"
     inkscape:window-width="1440"
     inkscape:window-height="1009"
     id="namedview4"
     showgrid="false"
     fit-margin-top="0.1"
     fit-margin-left="0.1"
     fit-margin-right="0.1"
     fit-margin-bottom="0.1"
     inkscape:zoom="1.2261065"
     inkscape:cx="232.59655"
     inkscape:cy="101.66131"
     inkscape:window-x="2065"
     inkscape:window-y="0"
     inkscape:window-maximized="0"
     inkscape:current-layer="g10" /><g
     id="g10"
     inkscape:groupmode="layer"
     inkscape:label="NeuroRDstimParams-1"
     transform="matrix(0,1.25,1.25,0,-79.844893,-496.66365)"><g
       id="g70"
       transform="matrix(0.79041019,0,0,0.79041019,487.34614,148.56465)"><path
         d="m 0,0 -43.5,0.18 0,-0.78 L 0,-0.72"
         style="fill:#000000;fill-opacity:1;fill-rule:nonzero;stroke:none"
         id="path72"
         inkscape:connector-curvature="0" /></g><g
       id="g74"
       transform="matrix(0.79041019,0,0,0.79041019,452.7736,148.2801)"><path
         d="m 0,0 0.12,21.66 0.72,0 L 0.72,0"
         style="fill:#000000;fill-opacity:1;fill-rule:nonzero;stroke:none"
         id="path76"
         inkscape:connector-curvature="0" /></g><g
       id="g78"
       transform="matrix(0.79041019,0,0,0.79041019,453.05815,165.68494)"><path
         d="m 0,0 43.26,0.12 0,-0.78 L 0,-0.78"
         style="fill:#000000;fill-opacity:1;fill-rule:nonzero;stroke:none"
         id="path80"
         inkscape:connector-curvature="0" /></g><g
       id="g82"
       transform="matrix(0.79041019,0,0,0.79041019,486.96675,102.65763)"><path
         d="m 0,0 0.12,57.6 0.72,0 L 0.72,0"
         style="fill:#000000;fill-opacity:1;fill-rule:nonzero;stroke:none"
         id="path84"
         inkscape:connector-curvature="0" /></g><g
       id="g86"
       transform="matrix(0.79041019,0,0,0.79041019,487.34614,197.88625)"><path
         d="m 0,0 -53.621327,0.12 0,-0.72 L 0,-0.72"
         style="fill:#000000;fill-opacity:1;fill-rule:nonzero;stroke:none"
         id="path88"
         inkscape:connector-curvature="0"
         sodipodi:nodetypes="cccc" /></g><g
       id="g90"
       transform="matrix(0.79041019,0,0,0.79041019,444.7736,197.6017)"><path
         d="m 0,0 0.12,21.6 0.72,0 L 0.72,0"
         style="fill:#000000;fill-opacity:1;fill-rule:nonzero;stroke:none"
         id="path92"
         inkscape:connector-curvature="0" /></g><g
       id="g94"
       transform="matrix(0.79041019,0,0,0.79041019,453.05815,214.86426)"><path
         d="M -10.121327,0 43.26,0.12 l 0,-0.72 -53.381327,-0.12"
         style="fill:#000000;fill-opacity:1;fill-rule:nonzero;stroke:none"
         id="path96"
         inkscape:connector-curvature="0"
         sodipodi:nodetypes="cccc" /></g><g
       id="g98"
       transform="matrix(0.79041019,0,0,0.79041019,487.34614,247.20784)"><path
         d="m 0,0 -59.694123,0.12 0,-0.78 L 0,-0.78"
         style="fill:#000000;fill-opacity:1;fill-rule:nonzero;stroke:none"
         id="path100"
         inkscape:connector-curvature="0"
         sodipodi:nodetypes="cccc" /></g><g
       id="g102"
       transform="matrix(0.79041019,0,0,0.79041019,439.9736,246.87587)"><path
         d="m 0,0 0.12,21.66 0.72,0 L 0.72,0"
         style="fill:#000000;fill-opacity:1;fill-rule:nonzero;stroke:none"
         id="path104"
         inkscape:connector-curvature="0" /></g><g
       id="g106"
       transform="matrix(0.79041019,0,0,0.79041019,453.05815,264.18585)"><path
         d="M -16.194123,0 43.26,0.12 l 0,-0.72 -59.454123,-0.18"
         style="fill:#000000;fill-opacity:1;fill-rule:nonzero;stroke:none"
         id="path108"
         inkscape:connector-curvature="0"
         sodipodi:nodetypes="cccc" /></g><g
       id="g110"
       transform="matrix(0.79041019,0,0,0.79041019,486.96675,214.57971)"><path
         d="m 0,0 0.12,40.74 0.72,0 L 0.72,0"
         style="fill:#000000;fill-opacity:1;fill-rule:nonzero;stroke:none"
         id="path112"
         inkscape:connector-curvature="0" /></g><g
       id="g114"
       transform="matrix(0.79041019,0,0,0.79041019,486.96675,165.40039)"><path
         d="m 0,0 0.12,40.74 0.72,0 L 0.72,0"
         style="fill:#000000;fill-opacity:1;fill-rule:nonzero;stroke:none"
         id="path116"
         inkscape:connector-curvature="0" /></g><g
       id="g118"
       transform="matrix(0.79041019,0,0,0.79041019,486.96675,263.90131)"><path
         d="m 0,0 0.12,168.70655 0.72,0 L 0.72,0"
         style="fill:#000000;fill-opacity:1;fill-rule:nonzero;stroke:none"
         id="path120"
         inkscape:connector-curvature="0"
         sodipodi:nodetypes="cccc" /></g><g
       id="g178"
       transform="matrix(0.79041019,0,0,0.79041019,456.99439,137.23017)"><path
         d="m 0,0 33.24,0.12 0,-0.78 L 0,-0.72 0,0 Z m 1.02,-3.36 -6,3 6,3 0,-6 z m 31.26,6.06 6,-2.94 -6,-3.06"
         style="fill:#000000;fill-opacity:1;fill-rule:nonzero;stroke:none"
         id="path180"
         inkscape:connector-curvature="0" /></g><text
       transform="matrix(-0.70710678,0.70710678,0.70710678,0.70710678,0,0)"
       style="font-variant:normal;font-weight:normal;font-stretch:normal;font-size:14.22738361px;font-family:Arial;-inkscape-font-specification:ArialMT;writing-mode:lr-tb;fill:#ff0000;fill-opacity:1;fill-rule:nonzero;stroke:none"
       id="text190"
       x="-294.79465"
       y="457.23639"><tspan
         sodipodi:role="line"
         id="tspan192"
         x="-294.79465"
         y="457.23639">times[0]</tspan></text>
<text
       y="471.94418"
       x="-280.08685"
       id="text4231"
       style="font-variant:normal;font-weight:normal;font-stretch:normal;font-size:14.22738361px;font-family:Arial;-inkscape-font-specification:ArialMT;writing-mode:lr-tb;fill:#ff0000;fill-opacity:1;fill-rule:nonzero;stroke:none"
       transform="matrix(-0.70710678,0.70710678,0.70710678,0.70710678,0,0)"><tspan
         y="471.94418"
         x="-280.08685"
         id="tspan4233"
         sodipodi:role="line">times[1]</tspan></text>
<text
       transform="matrix(-0.70710678,0.70710678,0.70710678,0.70710678,0,0)"
       style="font-variant:normal;font-weight:normal;font-stretch:normal;font-size:14.22738361px;font-family:Arial;-inkscape-font-specification:ArialMT;writing-mode:lr-tb;fill:#ff0000;fill-opacity:1;fill-rule:nonzero;stroke:none"
       id="text4235"
       x="-257.45941"
       y="494.57162"><tspan
         sodipodi:role="line"
         id="tspan4237"
         x="-257.45941"
         y="494.57162">times[2]</tspan></text>
<text
       y="509.27948"
       x="-242.75157"
       id="text4239"
       style="font-variant:normal;font-weight:normal;font-stretch:normal;font-size:14.22738361px;font-family:Arial;-inkscape-font-specification:ArialMT;writing-mode:lr-tb;fill:#ff0000;fill-opacity:1;fill-rule:nonzero;stroke:none"
       transform="matrix(-0.70710678,0.70710678,0.70710678,0.70710678,0,0)"><tspan
         y="509.27948"
         x="-242.75157"
         id="tspan4241"
         sodipodi:role="line">times[3]</tspan></text>
<text
       y="528.51276"
       x="-223.5183"
       id="text4243"
       style="font-variant:normal;font-weight:normal;font-stretch:normal;font-size:14.22738361px;font-family:Arial;-inkscape-font-specification:ArialMT;writing-mode:lr-tb;fill:#ff0000;fill-opacity:1;fill-rule:nonzero;stroke:none"
       transform="matrix(-0.70710678,0.70710678,0.70710678,0.70710678,0,0)"><tspan
         y="528.51276"
         x="-223.5183"
         id="tspan4245"
         sodipodi:role="line">times[4]</tspan></text>
<text
       transform="matrix(-0.70710678,0.70710678,0.70710678,0.70710678,0,0)"
       style="font-variant:normal;font-weight:normal;font-stretch:normal;font-size:14.22738361px;font-family:Arial;-inkscape-font-specification:ArialMT;writing-mode:lr-tb;fill:#ff0000;fill-opacity:1;fill-rule:nonzero;stroke:none"
       id="text4247"
       x="-208.81046"
       y="543.22064"><tspan
         sodipodi:role="line"
         id="tspan4249"
         x="-208.81046"
         y="543.22064">times[5]</tspan></text>
<text
       y="381.92578"
       x="159.77054"
       id="text4251"
       style="font-variant:normal;font-weight:normal;font-stretch:normal;font-size:14.22738361px;font-family:Arial;-inkscape-font-specification:ArialMT;writing-mode:lr-tb;fill:#000000;fill-opacity:1;fill-rule:nonzero;stroke:none"
       transform="matrix(0,1,1,0,0,0)"><tspan
         y="381.92578"
         x="159.77054"
         id="tspan4253"
         sodipodi:role="line" /><tspan
         y="399.71002"
         x="159.77054"
         id="tspan4255"
         sodipodi:role="line" /><tspan
         id="tspan4257"
         sodipodi:role="line"
         y="447.75018"
         x="118.27357 123.00561 130.91032 134.85986">rates[0]</tspan></text>
<g
       transform="matrix(0.79041019,0,0,0.79041019,456.99439,194.50393)"
       id="g4259"><path
         inkscape:connector-curvature="0"
         id="path4261"
         style="fill:#000000;fill-opacity:1;fill-rule:nonzero;stroke:none"
         d="M -10.121327,0 33.24,0.12 l 0,-0.78 -43.361327,-0.06 z m 1.02,-3.36 -6,3 6,3 z M 32.28,2.7 l 6,-2.94 -6,-3.06"
         sodipodi:nodetypes="cccccccccccc" /></g><text
       transform="matrix(0,1,1,0,0,0)"
       style="font-variant:normal;font-weight:normal;font-stretch:normal;font-size:14.22738361px;font-family:Arial;-inkscape-font-specification:ArialMT;writing-mode:lr-tb;fill:#000000;fill-opacity:1;fill-rule:nonzero;stroke:none"
       id="text4271"
       x="214.1705"
       y="373.92581"><tspan
         sodipodi:role="line"
         id="tspan4273"
         x="214.1705"
         y="373.92581" /><tspan
         sodipodi:role="line"
         id="tspan4275"
         x="214.1705"
         y="391.71005" /><tspan
         x="172.67355 177.40561 185.3103 189.25983"
         y="439.75021"
         sodipodi:role="line"
         id="tspan4277">rates[2]</tspan></text>
<g
       id="g4279"
       transform="matrix(0.79041019,0,0,0.79041019,456.99439,243.51385)"><path
         d="M -16.194123,0 33.24,0.12 l 0,-0.78 -49.434123,-0.06 z m 1.02,-3.36 -6,3 6,3 z M 32.28,2.7 l 6,-2.94 -6,-3.06"
         style="fill:#000000;fill-opacity:1;fill-rule:nonzero;stroke:none"
         id="path4281"
         inkscape:connector-curvature="0"
         sodipodi:nodetypes="cccccccccccc" /></g><text
       y="365.92572"
       x="266.97052"
       id="text4283"
       style="font-variant:normal;font-weight:normal;font-stretch:normal;font-size:14.22738361px;font-family:Arial;-inkscape-font-specification:ArialMT;writing-mode:lr-tb;fill:#000000;fill-opacity:1;fill-rule:nonzero;stroke:none"
       transform="matrix(0,1,1,0,0,0)"><tspan
         y="365.92572"
         x="266.97052"
         id="tspan4285"
         sodipodi:role="line" /><tspan
         y="383.70996"
         x="266.97052"
         id="tspan4287"
         sodipodi:role="line" /><tspan
         id="tspan4289"
         sodipodi:role="line"
         y="431.75012"
         x="225.47357 230.20563 238.11032 242.05984">rates[4]</tspan></text>
<text
       transform="matrix(0,1,1,0,0,0)"
       style="font-variant:normal;font-weight:normal;font-stretch:normal;font-size:7.22758102px;font-family:Arial;-inkscape-font-specification:ArialMT;writing-mode:lr-tb;fill:#000000;fill-opacity:1;fill-rule:nonzero;stroke:none"
       id="text4291"
       x="187.81906"
       y="451.61618"><tspan
         sodipodi:role="line"
         id="tspan4293"
         x="187.81906"
         y="451.61618" /><tspan
         sodipodi:role="line"
         id="tspan4295"
         x="187.81906"
         y="460.65067" /><tspan
         x="166.7384 169.14229 173.15793 175.16432"
         y="485.05533"
         sodipodi:role="line"
         id="tspan4297">rates[1]</tspan></text>
<text
       y="451.61618"
       x="237.41907"
       id="text4299"
       style="font-variant:normal;font-weight:normal;font-stretch:normal;font-size:7.22758102px;font-family:Arial;-inkscape-font-specification:ArialMT;writing-mode:lr-tb;fill:#000000;fill-opacity:1;fill-rule:nonzero;stroke:none"
       transform="matrix(0,1,1,0,0,0)"><tspan
         y="451.61618"
         x="237.41907"
         id="tspan4301"
         sodipodi:role="line" /><tspan
         y="460.65067"
         x="237.41907"
         id="tspan4303"
         sodipodi:role="line" /><tspan
         id="tspan4305"
         sodipodi:role="line"
         y="485.05533"
         x="216.33841 218.74229 222.75793 224.76433">rates[3]</tspan></text>
<text
       transform="matrix(0,1,1,0,0,0)"
       style="font-variant:normal;font-weight:normal;font-stretch:normal;font-size:7.22758102px;font-family:Arial;-inkscape-font-specification:ArialMT;writing-mode:lr-tb;fill:#000000;fill-opacity:1;fill-rule:nonzero;stroke:none"
       id="text4307"
       x="288.5567"
       y="451.61618"><tspan
         sodipodi:role="line"
         id="tspan4309"
         x="288.5567"
         y="451.61618" /><tspan
         sodipodi:role="line"
         id="tspan4311"
         x="288.5567"
         y="460.65067" /><tspan
         x="267.47604 269.87994 273.89557 275.90198"
         y="485.05533"
         sodipodi:role="line"
         id="tspan4313">rates[5]</tspan></text>
</g></svg>