<?xml version="1.0" encoding="utf-8" standalone="no"?>
<!DOCTYPE svg PUBLIC "-//W3C//DTD SVG 1.1//EN"
  "http://www.w3.org/Graphics/SVG/1.1/DTD/svg11.dtd">
<!-- Created with matplotlib (http://matplotlib.org/) -->
<svg height="345pt" version="1.1" viewBox="0 0 460 345" width="460pt" xmlns="http://www.w3.org/2000/svg" xmlns:xlink="http://www.w3.org/1999/xlink">
 <defs>
  <style type="text/css">
*{stroke-linecap:butt;stroke-linejoin:round;}
  </style>
 </defs>
 <g id="figure_1">
  <g id="patch_1">
   <path d="M 0 345.6 
L 460.8 345.6 
L 460.8 0 
L 0 0 
z
" style="fill:#ffffff;"/>
  </g>
  <g id="axes_1">
   <g id="patch_2">
    <path d="M 57.6 307.584 
L 414.72 307.584 
L 414.72 41.472 
L 57.6 41.472 
z
" style="fill:#ffffff;"/>
   </g>
   <g id="patch_3">
    <path clip-path="url(#pe62135a1bf)" d="M 57.6 307.584 
L 63.652881 307.584 
L 63.652881 307.582769 
L 57.6 307.582769 
z
" style="fill:#1f77b4;"/>
   </g>
   <g id="patch_4">
    <path clip-path="url(#pe62135a1bf)" d="M 63.652881 307.584 
L 69.705763 307.584 
L 69.705763 307.582769 
L 63.652881 307.582769 
z
" style="fill:#1f77b4;"/>
   </g>
   <g id="patch_5">
    <path clip-path="url(#pe62135a1bf)" d="M 69.705763 307.584 
L 75.758644 307.584 
L 75.758644 307.57169 
L 69.705763 307.57169 
z
" style="fill:#1f77b4;"/>
   </g>
   <g id="patch_6">
    <path clip-path="url(#pe62135a1bf)" d="M 75.758644 307.584 
L 81.811525 307.584 
L 81.811525 307.560612 
L 75.758644 307.560612 
z
" style="fill:#1f77b4;"/>
   </g>
   <g id="patch_7">
    <path clip-path="url(#pe62135a1bf)" d="M 81.811525 307.584 
L 87.864407 307.584 
L 87.864407 307.529837 
L 81.811525 307.529837 
z
" style="fill:#1f77b4;"/>
   </g>
   <g id="patch_8">
    <path clip-path="url(#pe62135a1bf)" d="M 87.864407 307.584 
L 93.917288 307.584 
L 93.917288 307.468289 
L 87.864407 307.468289 
z
" style="fill:#1f77b4;"/>
   </g>
   <g id="patch_9">
    <path clip-path="url(#pe62135a1bf)" d="M 93.917288 307.584 
L 99.970169 307.584 
L 99.970169 307.350116 
L 93.917288 307.350116 
z
" style="fill:#1f77b4;"/>
   </g>
   <g id="patch_10">
    <path clip-path="url(#pe62135a1bf)" d="M 99.970169 307.584 
L 106.023051 307.584 
L 106.023051 307.060839 
L 99.970169 307.060839 
z
" style="fill:#1f77b4;"/>
   </g>
   <g id="patch_11">
    <path clip-path="url(#pe62135a1bf)" d="M 106.023051 307.584 
L 112.075932 307.584 
L 112.075932 306.655851 
L 106.023051 306.655851 
z
" style="fill:#1f77b4;"/>
   </g>
   <g id="patch_12">
    <path clip-path="url(#pe62135a1bf)" d="M 112.075932 307.584 
L 118.128814 307.584 
L 118.128814 305.938198 
L 112.075932 305.938198 
z
" style="fill:#1f77b4;"/>
   </g>
   <g id="patch_13">
    <path clip-path="url(#pe62135a1bf)" d="M 118.128814 307.584 
L 124.181695 307.584 
L 124.181695 304.81925 
L 118.128814 304.81925 
z
" style="fill:#1f77b4;"/>
   </g>
   <g id="patch_14">
    <path clip-path="url(#pe62135a1bf)" d="M 124.181695 307.584 
L 130.234576 307.584 
L 130.234576 303.093435 
L 124.181695 303.093435 
z
" style="fill:#1f77b4;"/>
   </g>
   <g id="patch_15">
    <path clip-path="url(#pe62135a1bf)" d="M 130.234576 307.584 
L 136.287458 307.584 
L 136.287458 300.488711 
L 130.234576 300.488711 
z
" style="fill:#1f77b4;"/>
   </g>
   <g id="patch_16">
    <path clip-path="url(#pe62135a1bf)" d="M 136.287458 307.584 
L 142.340339 307.584 
L 142.340339 296.998921 
L 136.287458 296.998921 
z
" style="fill:#1f77b4;"/>
   </g>
   <g id="patch_17">
    <path clip-path="url(#pe62135a1bf)" d="M 142.340339 307.584 
L 148.39322 307.584 
L 148.39322 292.594524 
L 142.340339 292.594524 
z
" style="fill:#1f77b4;"/>
   </g>
   <g id="patch_18">
    <path clip-path="url(#pe62135a1bf)" d="M 148.39322 307.584 
L 154.446102 307.584 
L 154.446102 286.811445 
L 148.39322 286.811445 
z
" style="fill:#1f77b4;"/>
   </g>
   <g id="patch_19">
    <path clip-path="url(#pe62135a1bf)" d="M 154.446102 307.584 
L 160.498983 307.584 
L 160.498983 280.417806 
L 154.446102 280.417806 
z
" style="fill:#1f77b4;"/>
   </g>
   <g id="patch_20">
    <path clip-path="url(#pe62135a1bf)" d="M 160.498983 307.584 
L 166.551864 307.584 
L 166.551864 272.331589 
L 160.498983 272.331589 
z
" style="fill:#1f77b4;"/>
   </g>
   <g id="patch_21">
    <path clip-path="url(#pe62135a1bf)" d="M 166.551864 307.584 
L 172.604746 307.584 
L 172.604746 264.145663 
L 166.551864 264.145663 
z
" style="fill:#1f77b4;"/>
   </g>
   <g id="patch_22">
    <path clip-path="url(#pe62135a1bf)" d="M 172.604746 307.584 
L 178.657627 307.584 
L 178.657627 254.414875 
L 172.604746 254.414875 
z
" style="fill:#1f77b4;"/>
   </g>
   <g id="patch_23">
    <path clip-path="url(#pe62135a1bf)" d="M 178.657627 307.584 
L 184.710508 307.584 
L 184.710508 246.35697 
L 178.657627 246.35697 
z
" style="fill:#1f77b4;"/>
   </g>
   <g id="patch_24">
    <path clip-path="url(#pe62135a1bf)" d="M 184.710508 307.584 
L 190.76339 307.584 
L 190.76339 239.233368 
L 184.710508 239.233368 
z
" style="fill:#1f77b4;"/>
   </g>
   <g id="patch_25">
    <path clip-path="url(#pe62135a1bf)" d="M 190.76339 307.584 
L 196.816271 307.584 
L 196.816271 233.098233 
L 190.76339 233.098233 
z
" style="fill:#1f77b4;"/>
   </g>
   <g id="patch_26">
    <path clip-path="url(#pe62135a1bf)" d="M 196.816271 307.584 
L 202.869153 307.584 
L 202.869153 228.403327 
L 196.816271 228.403327 
z
" style="fill:#1f77b4;"/>
   </g>
   <g id="patch_27">
    <path clip-path="url(#pe62135a1bf)" d="M 202.869153 307.584 
L 208.922034 307.584 
L 208.922034 226.447322 
L 202.869153 226.447322 
z
" style="fill:#1f77b4;"/>
   </g>
   <g id="patch_28">
    <path clip-path="url(#pe62135a1bf)" d="M 208.922034 307.584 
L 214.974915 307.584 
L 214.974915 226.069416 
L 208.922034 226.069416 
z
" style="fill:#1f77b4;"/>
   </g>
   <g id="patch_29">
    <path clip-path="url(#pe62135a1bf)" d="M 214.974915 307.584 
L 221.027797 307.584 
L 221.027797 228.394711 
L 214.974915 228.394711 
z
" style="fill:#1f77b4;"/>
   </g>
   <g id="patch_30">
    <path clip-path="url(#pe62135a1bf)" d="M 221.027797 307.584 
L 227.080678 307.584 
L 227.080678 232.961595 
L 221.027797 232.961595 
z
" style="fill:#1f77b4;"/>
   </g>
   <g id="patch_31">
    <path clip-path="url(#pe62135a1bf)" d="M 227.080678 307.584 
L 233.133559 307.584 
L 233.133559 238.654814 
L 227.080678 238.654814 
z
" style="fill:#1f77b4;"/>
   </g>
   <g id="patch_32">
    <path clip-path="url(#pe62135a1bf)" d="M 233.133559 307.584 
L 239.186441 307.584 
L 239.186441 244.874887 
L 233.133559 244.874887 
z
" style="fill:#1f77b4;"/>
   </g>
   <g id="patch_33">
    <path clip-path="url(#pe62135a1bf)" d="M 239.186441 307.584 
L 245.239322 307.584 
L 245.239322 252.413324 
L 239.186441 252.413324 
z
" style="fill:#1f77b4;"/>
   </g>
   <g id="patch_34">
    <path clip-path="url(#pe62135a1bf)" d="M 245.239322 307.584 
L 251.292203 307.584 
L 251.292203 260.202878 
L 245.239322 260.202878 
z
" style="fill:#1f77b4;"/>
   </g>
   <g id="patch_35">
    <path clip-path="url(#pe62135a1bf)" d="M 251.292203 307.584 
L 257.345085 307.584 
L 257.345085 267.930884 
L 251.292203 267.930884 
z
" style="fill:#1f77b4;"/>
   </g>
   <g id="patch_36">
    <path clip-path="url(#pe62135a1bf)" d="M 257.345085 307.584 
L 263.397966 307.584 
L 263.397966 275.244055 
L 257.345085 275.244055 
z
" style="fill:#1f77b4;"/>
   </g>
   <g id="patch_37">
    <path clip-path="url(#pe62135a1bf)" d="M 263.397966 307.584 
L 269.450847 307.584 
L 269.450847 281.485054 
L 263.397966 281.485054 
z
" style="fill:#1f77b4;"/>
   </g>
   <g id="patch_38">
    <path clip-path="url(#pe62135a1bf)" d="M 269.450847 307.584 
L 275.503729 307.584 
L 275.503729 287.211509 
L 269.450847 287.211509 
z
" style="fill:#1f77b4;"/>
   </g>
   <g id="patch_39">
    <path clip-path="url(#pe62135a1bf)" d="M 275.503729 307.584 
L 281.55661 307.584 
L 281.55661 291.896566 
L 275.503729 291.896566 
z
" style="fill:#1f77b4;"/>
   </g>
   <g id="patch_40">
    <path clip-path="url(#pe62135a1bf)" d="M 281.55661 307.584 
L 287.609492 307.584 
L 287.609492 295.936597 
L 281.55661 295.936597 
z
" style="fill:#1f77b4;"/>
   </g>
   <g id="patch_41">
    <path clip-path="url(#pe62135a1bf)" d="M 287.609492 307.584 
L 293.662373 307.584 
L 293.662373 299.050942 
L 287.609492 299.050942 
z
" style="fill:#1f77b4;"/>
   </g>
   <g id="patch_42">
    <path clip-path="url(#pe62135a1bf)" d="M 293.662373 307.584 
L 299.715254 307.584 
L 299.715254 301.517798 
L 293.662373 301.517798 
z
" style="fill:#1f77b4;"/>
   </g>
   <g id="patch_43">
    <path clip-path="url(#pe62135a1bf)" d="M 299.715254 307.584 
L 305.768136 307.584 
L 305.768136 303.081125 
L 299.715254 303.081125 
z
" style="fill:#1f77b4;"/>
   </g>
   <g id="patch_44">
    <path clip-path="url(#pe62135a1bf)" d="M 305.768136 307.584 
L 311.821017 307.584 
L 311.821017 304.569364 
L 305.768136 304.569364 
z
" style="fill:#1f77b4;"/>
   </g>
   <g id="patch_45">
    <path clip-path="url(#pe62135a1bf)" d="M 311.821017 307.584 
L 317.873898 307.584 
L 317.873898 305.608299 
L 311.821017 305.608299 
z
" style="fill:#1f77b4;"/>
   </g>
   <g id="patch_46">
    <path clip-path="url(#pe62135a1bf)" d="M 317.873898 307.584 
L 323.92678 307.584 
L 323.92678 306.158541 
L 317.873898 306.158541 
z
" style="fill:#1f77b4;"/>
   </g>
   <g id="patch_47">
    <path clip-path="url(#pe62135a1bf)" d="M 323.92678 307.584 
L 329.979661 307.584 
L 329.979661 306.682933 
L 323.92678 306.682933 
z
" style="fill:#1f77b4;"/>
   </g>
   <g id="patch_48">
    <path clip-path="url(#pe62135a1bf)" d="M 329.979661 307.584 
L 336.032542 307.584 
L 336.032542 306.930357 
L 329.979661 306.930357 
z
" style="fill:#1f77b4;"/>
   </g>
   <g id="patch_49">
    <path clip-path="url(#pe62135a1bf)" d="M 336.032542 307.584 
L 342.085424 307.584 
L 342.085424 307.219634 
L 336.032542 307.219634 
z
" style="fill:#1f77b4;"/>
   </g>
   <g id="patch_50">
    <path clip-path="url(#pe62135a1bf)" d="M 342.085424 307.584 
L 348.138305 307.584 
L 348.138305 307.358733 
L 342.085424 307.358733 
z
" style="fill:#1f77b4;"/>
   </g>
   <g id="patch_51">
    <path clip-path="url(#pe62135a1bf)" d="M 348.138305 307.584 
L 354.191186 307.584 
L 354.191186 307.432591 
L 348.138305 307.432591 
z
" style="fill:#1f77b4;"/>
   </g>
   <g id="patch_52">
    <path clip-path="url(#pe62135a1bf)" d="M 354.191186 307.584 
L 360.244068 307.584 
L 360.244068 307.508911 
L 354.191186 307.508911 
z
" style="fill:#1f77b4;"/>
   </g>
   <g id="patch_53">
    <path clip-path="url(#pe62135a1bf)" d="M 360.244068 307.584 
L 366.296949 307.584 
L 366.296949 307.529837 
L 360.244068 307.529837 
z
" style="fill:#1f77b4;"/>
   </g>
   <g id="patch_54">
    <path clip-path="url(#pe62135a1bf)" d="M 366.296949 307.584 
L 372.349831 307.584 
L 372.349831 307.555688 
L 366.296949 307.555688 
z
" style="fill:#1f77b4;"/>
   </g>
   <g id="patch_55">
    <path clip-path="url(#pe62135a1bf)" d="M 372.349831 307.584 
L 378.402712 307.584 
L 378.402712 307.570459 
L 372.349831 307.570459 
z
" style="fill:#1f77b4;"/>
   </g>
   <g id="patch_56">
    <path clip-path="url(#pe62135a1bf)" d="M 378.402712 307.584 
L 384.455593 307.584 
L 384.455593 307.579076 
L 378.402712 307.579076 
z
" style="fill:#1f77b4;"/>
   </g>
   <g id="patch_57">
    <path clip-path="url(#pe62135a1bf)" d="M 384.455593 307.584 
L 390.508475 307.584 
L 390.508475 307.57169 
L 384.455593 307.57169 
z
" style="fill:#1f77b4;"/>
   </g>
   <g id="patch_58">
    <path clip-path="url(#pe62135a1bf)" d="M 390.508475 307.584 
L 396.561356 307.584 
L 396.561356 307.581538 
L 390.508475 307.581538 
z
" style="fill:#1f77b4;"/>
   </g>
   <g id="patch_59">
    <path clip-path="url(#pe62135a1bf)" d="M 396.561356 307.584 
L 402.614237 307.584 
L 402.614237 307.582769 
L 396.561356 307.582769 
z
" style="fill:#1f77b4;"/>
   </g>
   <g id="patch_60">
    <path clip-path="url(#pe62135a1bf)" d="M 402.614237 307.584 
L 408.667119 307.584 
L 408.667119 307.584 
L 402.614237 307.584 
z
" style="fill:#1f77b4;"/>
   </g>
   <g id="patch_61">
    <path clip-path="url(#pe62135a1bf)" d="M 408.667119 307.584 
L 414.72 307.584 
L 414.72 307.582769 
L 408.667119 307.582769 
z
" style="fill:#1f77b4;"/>
   </g>
   <g id="matplotlib.axis_1">
    <g id="xtick_1">
     <g id="line2d_1">
      <path clip-path="url(#pe62135a1bf)" d="M 115.102373 307.584 
L 115.102373 41.472 
" style="fill:none;stroke:#b0b0b0;stroke-linecap:square;stroke-width:0.8;"/>
     </g>
     <g id="line2d_2">
      <defs>
       <path d="M 0 0 
L 0 3.5 
" id="m91f8af3fa8" style="stroke:#000000;stroke-width:0.8;"/>
      </defs>
      <g>
       <use style="stroke:#000000;stroke-width:0.8;" x="115.102373" xlink:href="#m91f8af3fa8" y="307.584"/>
      </g>
     </g>
     <g id="text_1">
      <!-- 20 -->
      <defs>
       <path d="M 19.1875 8.296875 
L 53.609375 8.296875 
L 53.609375 0 
L 7.328125 0 
L 7.328125 8.296875 
Q 12.9375 14.109375 22.625 23.890625 
Q 32.328125 33.6875 34.8125 36.53125 
Q 39.546875 41.84375 41.421875 45.53125 
Q 43.3125 49.21875 43.3125 52.78125 
Q 43.3125 58.59375 39.234375 62.25 
Q 35.15625 65.921875 28.609375 65.921875 
Q 23.96875 65.921875 18.8125 64.3125 
Q 13.671875 62.703125 7.8125 59.421875 
L 7.8125 69.390625 
Q 13.765625 71.78125 18.9375 73 
Q 24.125 74.21875 28.421875 74.21875 
Q 39.75 74.21875 46.484375 68.546875 
Q 53.21875 62.890625 53.21875 53.421875 
Q 53.21875 48.921875 51.53125 44.890625 
Q 49.859375 40.875 45.40625 35.40625 
Q 44.1875 33.984375 37.640625 27.21875 
Q 31.109375 20.453125 19.1875 8.296875 
" id="DejaVuSans-32"/>
       <path d="M 31.78125 66.40625 
Q 24.171875 66.40625 20.328125 58.90625 
Q 16.5 51.421875 16.5 36.375 
Q 16.5 21.390625 20.328125 13.890625 
Q 24.171875 6.390625 31.78125 6.390625 
Q 39.453125 6.390625 43.28125 13.890625 
Q 47.125 21.390625 47.125 36.375 
Q 47.125 51.421875 43.28125 58.90625 
Q 39.453125 66.40625 31.78125 66.40625 
M 31.78125 74.21875 
Q 44.046875 74.21875 50.515625 64.515625 
Q 56.984375 54.828125 56.984375 36.375 
Q 56.984375 17.96875 50.515625 8.265625 
Q 44.046875 -1.421875 31.78125 -1.421875 
Q 19.53125 -1.421875 13.0625 8.265625 
Q 6.59375 17.96875 6.59375 36.375 
Q 6.59375 54.828125 13.0625 64.515625 
Q 19.53125 74.21875 31.78125 74.21875 
" id="DejaVuSans-30"/>
      </defs>
      <g transform="translate(108.739873 322.182437)scale(0.1 -0.1)">
       <use xlink:href="#DejaVuSans-32"/>
       <use x="63.623047" xlink:href="#DejaVuSans-30"/>
      </g>
     </g>
    </g>
    <g id="xtick_2">
     <g id="line2d_3">
      <path clip-path="url(#pe62135a1bf)" d="M 175.631186 307.584 
L 175.631186 41.472 
" style="fill:none;stroke:#b0b0b0;stroke-linecap:square;stroke-width:0.8;"/>
     </g>
     <g id="line2d_4">
      <g>
       <use style="stroke:#000000;stroke-width:0.8;" x="175.631186" xlink:href="#m91f8af3fa8" y="307.584"/>
      </g>
     </g>
     <g id="text_2">
      <!-- 30 -->
      <defs>
       <path d="M 40.578125 39.3125 
Q 47.65625 37.796875 51.625 33 
Q 55.609375 28.21875 55.609375 21.1875 
Q 55.609375 10.40625 48.1875 4.484375 
Q 40.765625 -1.421875 27.09375 -1.421875 
Q 22.515625 -1.421875 17.65625 -0.515625 
Q 12.796875 0.390625 7.625 2.203125 
L 7.625 11.71875 
Q 11.71875 9.328125 16.59375 8.109375 
Q 21.484375 6.890625 26.8125 6.890625 
Q 36.078125 6.890625 40.9375 10.546875 
Q 45.796875 14.203125 45.796875 21.1875 
Q 45.796875 27.640625 41.28125 31.265625 
Q 36.765625 34.90625 28.71875 34.90625 
L 20.21875 34.90625 
L 20.21875 43.015625 
L 29.109375 43.015625 
Q 36.375 43.015625 40.234375 45.921875 
Q 44.09375 48.828125 44.09375 54.296875 
Q 44.09375 59.90625 40.109375 62.90625 
Q 36.140625 65.921875 28.71875 65.921875 
Q 24.65625 65.921875 20.015625 65.03125 
Q 15.375 64.15625 9.8125 62.3125 
L 9.8125 71.09375 
Q 15.4375 72.65625 20.34375 73.4375 
Q 25.25 74.21875 29.59375 74.21875 
Q 40.828125 74.21875 47.359375 69.109375 
Q 53.90625 64.015625 53.90625 55.328125 
Q 53.90625 49.265625 50.4375 45.09375 
Q 46.96875 40.921875 40.578125 39.3125 
" id="DejaVuSans-33"/>
      </defs>
      <g transform="translate(169.268686 322.182437)scale(0.1 -0.1)">
       <use xlink:href="#DejaVuSans-33"/>
       <use x="63.623047" xlink:href="#DejaVuSans-30"/>
      </g>
     </g>
    </g>
    <g id="xtick_3">
     <g id="line2d_5">
      <path clip-path="url(#pe62135a1bf)" d="M 236.16 307.584 
L 236.16 41.472 
" style="fill:none;stroke:#b0b0b0;stroke-linecap:square;stroke-width:0.8;"/>
     </g>
     <g id="line2d_6">
      <g>
       <use style="stroke:#000000;stroke-width:0.8;" x="236.16" xlink:href="#m91f8af3fa8" y="307.584"/>
      </g>
     </g>
     <g id="text_3">
      <!-- 40 -->
      <defs>
       <path d="M 37.796875 64.3125 
L 12.890625 25.390625 
L 37.796875 25.390625 
z
M 35.203125 72.90625 
L 47.609375 72.90625 
L 47.609375 25.390625 
L 58.015625 25.390625 
L 58.015625 17.1875 
L 47.609375 17.1875 
L 47.609375 0 
L 37.796875 0 
L 37.796875 17.1875 
L 4.890625 17.1875 
L 4.890625 26.703125 
z
" id="DejaVuSans-34"/>
      </defs>
      <g transform="translate(229.7975 322.182437)scale(0.1 -0.1)">
       <use xlink:href="#DejaVuSans-34"/>
       <use x="63.623047" xlink:href="#DejaVuSans-30"/>
      </g>
     </g>
    </g>
    <g id="xtick_4">
     <g id="line2d_7">
      <path clip-path="url(#pe62135a1bf)" d="M 296.688814 307.584 
L 296.688814 41.472 
" style="fill:none;stroke:#b0b0b0;stroke-linecap:square;stroke-width:0.8;"/>
     </g>
     <g id="line2d_8">
      <g>
       <use style="stroke:#000000;stroke-width:0.8;" x="296.688814" xlink:href="#m91f8af3fa8" y="307.584"/>
      </g>
     </g>
     <g id="text_4">
      <!-- 50 -->
      <defs>
       <path d="M 10.796875 72.90625 
L 49.515625 72.90625 
L 49.515625 64.59375 
L 19.828125 64.59375 
L 19.828125 46.734375 
Q 21.96875 47.46875 24.109375 47.828125 
Q 26.265625 48.1875 28.421875 48.1875 
Q 40.625 48.1875 47.75 41.5 
Q 54.890625 34.8125 54.890625 23.390625 
Q 54.890625 11.625 47.5625 5.09375 
Q 40.234375 -1.421875 26.90625 -1.421875 
Q 22.3125 -1.421875 17.546875 -0.640625 
Q 12.796875 0.140625 7.71875 1.703125 
L 7.71875 11.625 
Q 12.109375 9.234375 16.796875 8.0625 
Q 21.484375 6.890625 26.703125 6.890625 
Q 35.15625 6.890625 40.078125 11.328125 
Q 45.015625 15.765625 45.015625 23.390625 
Q 45.015625 31 40.078125 35.4375 
Q 35.15625 39.890625 26.703125 39.890625 
Q 22.75 39.890625 18.8125 39.015625 
Q 14.890625 38.140625 10.796875 36.28125 
z
" id="DejaVuSans-35"/>
      </defs>
      <g transform="translate(290.326314 322.182437)scale(0.1 -0.1)">
       <use xlink:href="#DejaVuSans-35"/>
       <use x="63.623047" xlink:href="#DejaVuSans-30"/>
      </g>
     </g>
    </g>
    <g id="xtick_5">
     <g id="line2d_9">
      <path clip-path="url(#pe62135a1bf)" d="M 357.217627 307.584 
L 357.217627 41.472 
" style="fill:none;stroke:#b0b0b0;stroke-linecap:square;stroke-width:0.8;"/>
     </g>
     <g id="line2d_10">
      <g>
       <use style="stroke:#000000;stroke-width:0.8;" x="357.217627" xlink:href="#m91f8af3fa8" y="307.584"/>
      </g>
     </g>
     <g id="text_5">
      <!-- 60 -->
      <defs>
       <path d="M 33.015625 40.375 
Q 26.375 40.375 22.484375 35.828125 
Q 18.609375 31.296875 18.609375 23.390625 
Q 18.609375 15.53125 22.484375 10.953125 
Q 26.375 6.390625 33.015625 6.390625 
Q 39.65625 6.390625 43.53125 10.953125 
Q 47.40625 15.53125 47.40625 23.390625 
Q 47.40625 31.296875 43.53125 35.828125 
Q 39.65625 40.375 33.015625 40.375 
M 52.59375 71.296875 
L 52.59375 62.3125 
Q 48.875 64.0625 45.09375 64.984375 
Q 41.3125 65.921875 37.59375 65.921875 
Q 27.828125 65.921875 22.671875 59.328125 
Q 17.53125 52.734375 16.796875 39.40625 
Q 19.671875 43.65625 24.015625 45.921875 
Q 28.375 48.1875 33.59375 48.1875 
Q 44.578125 48.1875 50.953125 41.515625 
Q 57.328125 34.859375 57.328125 23.390625 
Q 57.328125 12.15625 50.6875 5.359375 
Q 44.046875 -1.421875 33.015625 -1.421875 
Q 20.359375 -1.421875 13.671875 8.265625 
Q 6.984375 17.96875 6.984375 36.375 
Q 6.984375 53.65625 15.1875 63.9375 
Q 23.390625 74.21875 37.203125 74.21875 
Q 40.921875 74.21875 44.703125 73.484375 
Q 48.484375 72.75 52.59375 71.296875 
" id="DejaVuSans-36"/>
      </defs>
      <g transform="translate(350.855127 322.182437)scale(0.1 -0.1)">
       <use xlink:href="#DejaVuSans-36"/>
       <use x="63.623047" xlink:href="#DejaVuSans-30"/>
      </g>
     </g>
    </g>
   </g>
   <g id="matplotlib.axis_2">
    <g id="ytick_1">
     <g id="line2d_11">
      <path clip-path="url(#pe62135a1bf)" d="M 57.6 307.584 
L 414.72 307.584 
" style="fill:none;stroke:#b0b0b0;stroke-linecap:square;stroke-width:0.8;"/>
     </g>
     <g id="line2d_12">
      <defs>
       <path d="M 0 0 
L -3.5 0 
" id="ma0d0699e8b" style="stroke:#000000;stroke-width:0.8;"/>
      </defs>
      <g>
       <use style="stroke:#000000;stroke-width:0.8;" x="57.6" xlink:href="#ma0d0699e8b" y="307.584"/>
      </g>
     </g>
     <g id="text_6">
      <!-- 0 -->
      <g transform="translate(44.2375 311.383219)scale(0.1 -0.1)">
       <use xlink:href="#DejaVuSans-30"/>
      </g>
     </g>
    </g>
    <g id="ytick_2">
     <g id="line2d_13">
      <path clip-path="url(#pe62135a1bf)" d="M 57.6 276.809844 
L 414.72 276.809844 
" style="fill:none;stroke:#b0b0b0;stroke-linecap:square;stroke-width:0.8;"/>
     </g>
     <g id="line2d_14">
      <g>
       <use style="stroke:#000000;stroke-width:0.8;" x="57.6" xlink:href="#ma0d0699e8b" y="276.809844"/>
      </g>
     </g>
     <g id="text_7">
      <!-- 25000 -->
      <g transform="translate(18.7875 280.609063)scale(0.1 -0.1)">
       <use xlink:href="#DejaVuSans-32"/>
       <use x="63.623047" xlink:href="#DejaVuSans-35"/>
       <use x="127.246094" xlink:href="#DejaVuSans-30"/>
       <use x="190.869141" xlink:href="#DejaVuSans-30"/>
       <use x="254.492188" xlink:href="#DejaVuSans-30"/>
      </g>
     </g>
    </g>
    <g id="ytick_3">
     <g id="line2d_15">
      <path clip-path="url(#pe62135a1bf)" d="M 57.6 246.035688 
L 414.72 246.035688 
" style="fill:none;stroke:#b0b0b0;stroke-linecap:square;stroke-width:0.8;"/>
     </g>
     <g id="line2d_16">
      <g>
       <use style="stroke:#000000;stroke-width:0.8;" x="57.6" xlink:href="#ma0d0699e8b" y="246.035688"/>
      </g>
     </g>
     <g id="text_8">
      <!-- 50000 -->
      <g transform="translate(18.7875 249.834907)scale(0.1 -0.1)">
       <use xlink:href="#DejaVuSans-35"/>
       <use x="63.623047" xlink:href="#DejaVuSans-30"/>
       <use x="127.246094" xlink:href="#DejaVuSans-30"/>
       <use x="190.869141" xlink:href="#DejaVuSans-30"/>
       <use x="254.492188" xlink:href="#DejaVuSans-30"/>
      </g>
     </g>
    </g>
    <g id="ytick_4">
     <g id="line2d_17">
      <path clip-path="url(#pe62135a1bf)" d="M 57.6 215.261532 
L 414.72 215.261532 
" style="fill:none;stroke:#b0b0b0;stroke-linecap:square;stroke-width:0.8;"/>
     </g>
     <g id="line2d_18">
      <g>
       <use style="stroke:#000000;stroke-width:0.8;" x="57.6" xlink:href="#ma0d0699e8b" y="215.261532"/>
      </g>
     </g>
     <g id="text_9">
      <!-- 75000 -->
      <defs>
       <path d="M 8.203125 72.90625 
L 55.078125 72.90625 
L 55.078125 68.703125 
L 28.609375 0 
L 18.3125 0 
L 43.21875 64.59375 
L 8.203125 64.59375 
z
" id="DejaVuSans-37"/>
      </defs>
      <g transform="translate(18.7875 219.060751)scale(0.1 -0.1)">
       <use xlink:href="#DejaVuSans-37"/>
       <use x="63.623047" xlink:href="#DejaVuSans-35"/>
       <use x="127.246094" xlink:href="#DejaVuSans-30"/>
       <use x="190.869141" xlink:href="#DejaVuSans-30"/>
       <use x="254.492188" xlink:href="#DejaVuSans-30"/>
      </g>
     </g>
    </g>
    <g id="ytick_5">
     <g id="line2d_19">
      <path clip-path="url(#pe62135a1bf)" d="M 57.6 184.487376 
L 414.72 184.487376 
" style="fill:none;stroke:#b0b0b0;stroke-linecap:square;stroke-width:0.8;"/>
     </g>
     <g id="line2d_20">
      <g>
       <use style="stroke:#000000;stroke-width:0.8;" x="57.6" xlink:href="#ma0d0699e8b" y="184.487376"/>
      </g>
     </g>
     <g id="text_10">
      <!-- 100000 -->
      <defs>
       <path d="M 12.40625 8.296875 
L 28.515625 8.296875 
L 28.515625 63.921875 
L 10.984375 60.40625 
L 10.984375 69.390625 
L 28.421875 72.90625 
L 38.28125 72.90625 
L 38.28125 8.296875 
L 54.390625 8.296875 
L 54.390625 0 
L 12.40625 0 
z
" id="DejaVuSans-31"/>
      </defs>
      <g transform="translate(12.425 188.286595)scale(0.1 -0.1)">
       <use xlink:href="#DejaVuSans-31"/>
       <use x="63.623047" xlink:href="#DejaVuSans-30"/>
       <use x="127.246094" xlink:href="#DejaVuSans-30"/>
       <use x="190.869141" xlink:href="#DejaVuSans-30"/>
       <use x="254.492188" xlink:href="#DejaVuSans-30"/>
       <use x="318.115234" xlink:href="#DejaVuSans-30"/>
      </g>
     </g>
    </g>
    <g id="ytick_6">
     <g id="line2d_21">
      <path clip-path="url(#pe62135a1bf)" d="M 57.6 153.71322 
L 414.72 153.71322 
" style="fill:none;stroke:#b0b0b0;stroke-linecap:square;stroke-width:0.8;"/>
     </g>
     <g id="line2d_22">
      <g>
       <use style="stroke:#000000;stroke-width:0.8;" x="57.6" xlink:href="#ma0d0699e8b" y="153.71322"/>
      </g>
     </g>
     <g id="text_11">
      <!-- 125000 -->
      <g transform="translate(12.425 157.512439)scale(0.1 -0.1)">
       <use xlink:href="#DejaVuSans-31"/>
       <use x="63.623047" xlink:href="#DejaVuSans-32"/>
       <use x="127.246094" xlink:href="#DejaVuSans-35"/>
       <use x="190.869141" xlink:href="#DejaVuSans-30"/>
       <use x="254.492188" xlink:href="#DejaVuSans-30"/>
       <use x="318.115234" xlink:href="#DejaVuSans-30"/>
      </g>
     </g>
    </g>
    <g id="ytick_7">
     <g id="line2d_23">
      <path clip-path="url(#pe62135a1bf)" d="M 57.6 122.939064 
L 414.72 122.939064 
" style="fill:none;stroke:#b0b0b0;stroke-linecap:square;stroke-width:0.8;"/>
     </g>
     <g id="line2d_24">
      <g>
       <use style="stroke:#000000;stroke-width:0.8;" x="57.6" xlink:href="#ma0d0699e8b" y="122.939064"/>
      </g>
     </g>
     <g id="text_12">
      <!-- 150000 -->
      <g transform="translate(12.425 126.738283)scale(0.1 -0.1)">
       <use xlink:href="#DejaVuSans-31"/>
       <use x="63.623047" xlink:href="#DejaVuSans-35"/>
       <use x="127.246094" xlink:href="#DejaVuSans-30"/>
       <use x="190.869141" xlink:href="#DejaVuSans-30"/>
       <use x="254.492188" xlink:href="#DejaVuSans-30"/>
       <use x="318.115234" xlink:href="#DejaVuSans-30"/>
      </g>
     </g>
    </g>
    <g id="ytick_8">
     <g id="line2d_25">
      <path clip-path="url(#pe62135a1bf)" d="M 57.6 92.164908 
L 414.72 92.164908 
" style="fill:none;stroke:#b0b0b0;stroke-linecap:square;stroke-width:0.8;"/>
     </g>
     <g id="line2d_26">
      <g>
       <use style="stroke:#000000;stroke-width:0.8;" x="57.6" xlink:href="#ma0d0699e8b" y="92.164908"/>
      </g>
     </g>
     <g id="text_13">
      <!-- 175000 -->
      <g transform="translate(12.425 95.964127)scale(0.1 -0.1)">
       <use xlink:href="#DejaVuSans-31"/>
       <use x="63.623047" xlink:href="#DejaVuSans-37"/>
       <use x="127.246094" xlink:href="#DejaVuSans-35"/>
       <use x="190.869141" xlink:href="#DejaVuSans-30"/>
       <use x="254.492188" xlink:href="#DejaVuSans-30"/>
       <use x="318.115234" xlink:href="#DejaVuSans-30"/>
      </g>
     </g>
    </g>
    <g id="ytick_9">
     <g id="line2d_27">
      <path clip-path="url(#pe62135a1bf)" d="M 57.6 61.390752 
L 414.72 61.390752 
" style="fill:none;stroke:#b0b0b0;stroke-linecap:square;stroke-width:0.8;"/>
     </g>
     <g id="line2d_28">
      <g>
       <use style="stroke:#000000;stroke-width:0.8;" x="57.6" xlink:href="#ma0d0699e8b" y="61.390752"/>
      </g>
     </g>
     <g id="text_14">
      <!-- 200000 -->
      <g transform="translate(12.425 65.18997)scale(0.1 -0.1)">
       <use xlink:href="#DejaVuSans-32"/>
       <use x="63.623047" xlink:href="#DejaVuSans-30"/>
       <use x="127.246094" xlink:href="#DejaVuSans-30"/>
       <use x="190.869141" xlink:href="#DejaVuSans-30"/>
       <use x="254.492188" xlink:href="#DejaVuSans-30"/>
       <use x="318.115234" xlink:href="#DejaVuSans-30"/>
      </g>
     </g>
    </g>
   </g>
   <g id="line2d_29">
    <defs>
     <path d="M 0 3 
C 0.795609 3 1.55874 2.683901 2.12132 2.12132 
C 2.683901 1.55874 3 0.795609 3 0 
C 3 -0.795609 2.683901 -1.55874 2.12132 -2.12132 
C 1.55874 -2.683901 0.795609 -3 0 -3 
C -0.795609 -3 -1.55874 -2.683901 -2.12132 -2.12132 
C -2.683901 -1.55874 -3 -0.795609 -3 0 
C -3 0.795609 -2.683901 1.55874 -2.12132 2.12132 
C -1.55874 2.683901 -0.795609 3 0 3 
z
" id="m0dacf8d89f" style="stroke:#ff0000;"/>
    </defs>
    <g clip-path="url(#pe62135a1bf)">
     <use style="fill:#ff0000;stroke:#ff0000;" x="60.626441" xlink:href="#m0dacf8d89f" y="307.584"/>
     <use style="fill:#ff0000;stroke:#ff0000;" x="66.679322" xlink:href="#m0dacf8d89f" y="307.584"/>
     <use style="fill:#ff0000;stroke:#ff0000;" x="72.732203" xlink:href="#m0dacf8d89f" y="307.584"/>
     <use style="fill:#ff0000;stroke:#ff0000;" x="78.785085" xlink:href="#m0dacf8d89f" y="307.584"/>
     <use style="fill:#ff0000;stroke:#ff0000;" x="84.837966" xlink:href="#m0dacf8d89f" y="307.584"/>
     <use style="fill:#ff0000;stroke:#ff0000;" x="90.890847" xlink:href="#m0dacf8d89f" y="307.584"/>
     <use style="fill:#ff0000;stroke:#ff0000;" x="96.943729" xlink:href="#m0dacf8d89f" y="307.584"/>
     <use style="fill:#ff0000;stroke:#ff0000;" x="102.99661" xlink:href="#m0dacf8d89f" y="307.584"/>
     <use style="fill:#ff0000;stroke:#ff0000;" x="109.049492" xlink:href="#m0dacf8d89f" y="307.584"/>
     <use style="fill:#ff0000;stroke:#ff0000;" x="115.102373" xlink:href="#m0dacf8d89f" y="307.584"/>
     <use style="fill:#ff0000;stroke:#ff0000;" x="121.155254" xlink:href="#m0dacf8d89f" y="307.583998"/>
     <use style="fill:#ff0000;stroke:#ff0000;" x="127.208136" xlink:href="#m0dacf8d89f" y="307.583986"/>
     <use style="fill:#ff0000;stroke:#ff0000;" x="133.261017" xlink:href="#m0dacf8d89f" y="307.583903"/>
     <use style="fill:#ff0000;stroke:#ff0000;" x="139.313898" xlink:href="#m0dacf8d89f" y="307.583383"/>
     <use style="fill:#ff0000;stroke:#ff0000;" x="145.36678" xlink:href="#m0dacf8d89f" y="307.580445"/>
     <use style="fill:#ff0000;stroke:#ff0000;" x="151.419661" xlink:href="#m0dacf8d89f" y="307.565543"/>
     <use style="fill:#ff0000;stroke:#ff0000;" x="157.472542" xlink:href="#m0dacf8d89f" y="307.497866"/>
     <use style="fill:#ff0000;stroke:#ff0000;" x="163.525424" xlink:href="#m0dacf8d89f" y="307.224082"/>
     <use style="fill:#ff0000;stroke:#ff0000;" x="169.578305" xlink:href="#m0dacf8d89f" y="306.243615"/>
     <use style="fill:#ff0000;stroke:#ff0000;" x="175.631186" xlink:href="#m0dacf8d89f" y="303.160731"/>
     <use style="fill:#ff0000;stroke:#ff0000;" x="181.684068" xlink:href="#m0dacf8d89f" y="294.74225"/>
     <use style="fill:#ff0000;stroke:#ff0000;" x="187.736949" xlink:href="#m0dacf8d89f" y="275.078321"/>
     <use style="fill:#ff0000;stroke:#ff0000;" x="193.789831" xlink:href="#m0dacf8d89f" y="236.662519"/>
     <use style="fill:#ff0000;stroke:#ff0000;" x="199.842712" xlink:href="#m0dacf8d89f" y="176.170667"/>
     <use style="fill:#ff0000;stroke:#ff0000;" x="205.895593" xlink:href="#m0dacf8d89f" y="104.832"/>
     <use style="fill:#ff0000;stroke:#ff0000;" x="211.948475" xlink:href="#m0dacf8d89f" y="54.144"/>
     <use style="fill:#ff0000;stroke:#ff0000;" x="218.001356" xlink:href="#m0dacf8d89f" y="60.99373"/>
     <use style="fill:#ff0000;stroke:#ff0000;" x="224.054237" xlink:href="#m0dacf8d89f" y="132.375124"/>
     <use style="fill:#ff0000;stroke:#ff0000;" x="230.107119" xlink:href="#m0dacf8d89f" y="226.718365"/>
     <use style="fill:#ff0000;stroke:#ff0000;" x="236.16" xlink:href="#m0dacf8d89f" y="289.389232"/>
     <use style="fill:#ff0000;stroke:#ff0000;" x="242.212881" xlink:href="#m0dacf8d89f" y="307.584"/>
     <use style="fill:#ff0000;stroke:#ff0000;" x="248.265763" xlink:href="#m0dacf8d89f" y="307.584"/>
     <use style="fill:#ff0000;stroke:#ff0000;" x="254.318644" xlink:href="#m0dacf8d89f" y="307.584"/>
     <use style="fill:#ff0000;stroke:#ff0000;" x="260.371525" xlink:href="#m0dacf8d89f" y="307.584"/>
     <use style="fill:#ff0000;stroke:#ff0000;" x="266.424407" xlink:href="#m0dacf8d89f" y="307.584"/>
     <use style="fill:#ff0000;stroke:#ff0000;" x="272.477288" xlink:href="#m0dacf8d89f" y="307.584"/>
     <use style="fill:#ff0000;stroke:#ff0000;" x="278.530169" xlink:href="#m0dacf8d89f" y="307.584"/>
     <use style="fill:#ff0000;stroke:#ff0000;" x="284.583051" xlink:href="#m0dacf8d89f" y="307.584"/>
     <use style="fill:#ff0000;stroke:#ff0000;" x="290.635932" xlink:href="#m0dacf8d89f" y="307.584"/>
     <use style="fill:#ff0000;stroke:#ff0000;" x="296.688814" xlink:href="#m0dacf8d89f" y="307.584"/>
     <use style="fill:#ff0000;stroke:#ff0000;" x="302.741695" xlink:href="#m0dacf8d89f" y="307.584"/>
     <use style="fill:#ff0000;stroke:#ff0000;" x="308.794576" xlink:href="#m0dacf8d89f" y="307.584"/>
     <use style="fill:#ff0000;stroke:#ff0000;" x="314.847458" xlink:href="#m0dacf8d89f" y="307.584"/>
     <use style="fill:#ff0000;stroke:#ff0000;" x="320.900339" xlink:href="#m0dacf8d89f" y="307.584"/>
     <use style="fill:#ff0000;stroke:#ff0000;" x="326.95322" xlink:href="#m0dacf8d89f" y="307.584"/>
     <use style="fill:#ff0000;stroke:#ff0000;" x="333.006102" xlink:href="#m0dacf8d89f" y="307.584"/>
     <use style="fill:#ff0000;stroke:#ff0000;" x="339.058983" xlink:href="#m0dacf8d89f" y="307.584"/>
     <use style="fill:#ff0000;stroke:#ff0000;" x="345.111864" xlink:href="#m0dacf8d89f" y="307.584"/>
     <use style="fill:#ff0000;stroke:#ff0000;" x="351.164746" xlink:href="#m0dacf8d89f" y="307.584"/>
     <use style="fill:#ff0000;stroke:#ff0000;" x="357.217627" xlink:href="#m0dacf8d89f" y="307.584"/>
     <use style="fill:#ff0000;stroke:#ff0000;" x="363.270508" xlink:href="#m0dacf8d89f" y="307.584"/>
     <use style="fill:#ff0000;stroke:#ff0000;" x="369.32339" xlink:href="#m0dacf8d89f" y="307.584"/>
     <use style="fill:#ff0000;stroke:#ff0000;" x="375.376271" xlink:href="#m0dacf8d89f" y="307.584"/>
     <use style="fill:#ff0000;stroke:#ff0000;" x="381.429153" xlink:href="#m0dacf8d89f" y="307.584"/>
     <use style="fill:#ff0000;stroke:#ff0000;" x="387.482034" xlink:href="#m0dacf8d89f" y="307.584"/>
     <use style="fill:#ff0000;stroke:#ff0000;" x="393.534915" xlink:href="#m0dacf8d89f" y="307.584"/>
     <use style="fill:#ff0000;stroke:#ff0000;" x="399.587797" xlink:href="#m0dacf8d89f" y="307.584"/>
     <use style="fill:#ff0000;stroke:#ff0000;" x="405.640678" xlink:href="#m0dacf8d89f" y="307.584"/>
     <use style="fill:#ff0000;stroke:#ff0000;" x="411.693559" xlink:href="#m0dacf8d89f" y="307.584"/>
    </g>
   </g>
   <g id="line2d_30">
    <path clip-path="url(#pe62135a1bf)" d="M 211.948475 307.584 
L 211.948475 41.472 
" style="fill:none;stroke:#ff0000;stroke-linecap:square;stroke-width:3;"/>
   </g>
   <g id="patch_62">
    <path d="M 57.6 307.584 
L 57.6 41.472 
" style="fill:none;stroke:#000000;stroke-linecap:square;stroke-linejoin:miter;stroke-width:0.8;"/>
   </g>
   <g id="patch_63">
    <path d="M 414.72 307.584 
L 414.72 41.472 
" style="fill:none;stroke:#000000;stroke-linecap:square;stroke-linejoin:miter;stroke-width:0.8;"/>
   </g>
   <g id="patch_64">
    <path d="M 57.6 307.584 
L 414.72 307.584 
" style="fill:none;stroke:#000000;stroke-linecap:square;stroke-linejoin:miter;stroke-width:0.8;"/>
   </g>
   <g id="patch_65">
    <path d="M 57.6 41.472 
L 414.72 41.472 
" style="fill:none;stroke:#000000;stroke-linecap:square;stroke-linejoin:miter;stroke-width:0.8;"/>
   </g>
   <g id="text_15">
    <!-- n=40 p=0.9 mean_exp=36.0±0.012, mean_act=36.0, diff=0.47σ -->
    <defs>
     <path d="M 54.890625 33.015625 
L 54.890625 0 
L 45.90625 0 
L 45.90625 32.71875 
Q 45.90625 40.484375 42.875 44.328125 
Q 39.84375 48.1875 33.796875 48.1875 
Q 26.515625 48.1875 22.3125 43.546875 
Q 18.109375 38.921875 18.109375 30.90625 
L 18.109375 0 
L 9.078125 0 
L 9.078125 54.6875 
L 18.109375 54.6875 
L 18.109375 46.1875 
Q 21.34375 51.125 25.703125 53.5625 
Q 30.078125 56 35.796875 56 
Q 45.21875 56 50.046875 50.171875 
Q 54.890625 44.34375 54.890625 33.015625 
" id="DejaVuSans-6e"/>
     <path d="M 10.59375 45.40625 
L 73.1875 45.40625 
L 73.1875 37.203125 
L 10.59375 37.203125 
z
M 10.59375 25.484375 
L 73.1875 25.484375 
L 73.1875 17.1875 
L 10.59375 17.1875 
z
" id="DejaVuSans-3d"/>
     <path id="DejaVuSans-20"/>
     <path d="M 18.109375 8.203125 
L 18.109375 -20.796875 
L 9.078125 -20.796875 
L 9.078125 54.6875 
L 18.109375 54.6875 
L 18.109375 46.390625 
Q 20.953125 51.265625 25.265625 53.625 
Q 29.59375 56 35.59375 56 
Q 45.5625 56 51.78125 48.09375 
Q 58.015625 40.1875 58.015625 27.296875 
Q 58.015625 14.40625 51.78125 6.484375 
Q 45.5625 -1.421875 35.59375 -1.421875 
Q 29.59375 -1.421875 25.265625 0.953125 
Q 20.953125 3.328125 18.109375 8.203125 
M 48.6875 27.296875 
Q 48.6875 37.203125 44.609375 42.84375 
Q 40.53125 48.484375 33.40625 48.484375 
Q 26.265625 48.484375 22.1875 42.84375 
Q 18.109375 37.203125 18.109375 27.296875 
Q 18.109375 17.390625 22.1875 11.75 
Q 26.265625 6.109375 33.40625 6.109375 
Q 40.53125 6.109375 44.609375 11.75 
Q 48.6875 17.390625 48.6875 27.296875 
" id="DejaVuSans-70"/>
     <path d="M 10.6875 12.40625 
L 21 12.40625 
L 21 0 
L 10.6875 0 
z
" id="DejaVuSans-2e"/>
     <path d="M 10.984375 1.515625 
L 10.984375 10.5 
Q 14.703125 8.734375 18.5 7.8125 
Q 22.3125 6.890625 25.984375 6.890625 
Q 35.75 6.890625 40.890625 13.453125 
Q 46.046875 20.015625 46.78125 33.40625 
Q 43.953125 29.203125 39.59375 26.953125 
Q 35.25 24.703125 29.984375 24.703125 
Q 19.046875 24.703125 12.671875 31.3125 
Q 6.296875 37.9375 6.296875 49.421875 
Q 6.296875 60.640625 12.9375 67.421875 
Q 19.578125 74.21875 30.609375 74.21875 
Q 43.265625 74.21875 49.921875 64.515625 
Q 56.59375 54.828125 56.59375 36.375 
Q 56.59375 19.140625 48.40625 8.859375 
Q 40.234375 -1.421875 26.421875 -1.421875 
Q 22.703125 -1.421875 18.890625 -0.6875 
Q 15.09375 0.046875 10.984375 1.515625 
M 30.609375 32.421875 
Q 37.25 32.421875 41.125 36.953125 
Q 45.015625 41.5 45.015625 49.421875 
Q 45.015625 57.28125 41.125 61.84375 
Q 37.25 66.40625 30.609375 66.40625 
Q 23.96875 66.40625 20.09375 61.84375 
Q 16.21875 57.28125 16.21875 49.421875 
Q 16.21875 41.5 20.09375 36.953125 
Q 23.96875 32.421875 30.609375 32.421875 
" id="DejaVuSans-39"/>
     <path d="M 52 44.1875 
Q 55.375 50.25 60.0625 53.125 
Q 64.75 56 71.09375 56 
Q 79.640625 56 84.28125 50.015625 
Q 88.921875 44.046875 88.921875 33.015625 
L 88.921875 0 
L 79.890625 0 
L 79.890625 32.71875 
Q 79.890625 40.578125 77.09375 44.375 
Q 74.3125 48.1875 68.609375 48.1875 
Q 61.625 48.1875 57.5625 43.546875 
Q 53.515625 38.921875 53.515625 30.90625 
L 53.515625 0 
L 44.484375 0 
L 44.484375 32.71875 
Q 44.484375 40.625 41.703125 44.40625 
Q 38.921875 48.1875 33.109375 48.1875 
Q 26.21875 48.1875 22.15625 43.53125 
Q 18.109375 38.875 18.109375 30.90625 
L 18.109375 0 
L 9.078125 0 
L 9.078125 54.6875 
L 18.109375 54.6875 
L 18.109375 46.1875 
Q 21.1875 51.21875 25.484375 53.609375 
Q 29.78125 56 35.6875 56 
Q 41.65625 56 45.828125 52.96875 
Q 50 49.953125 52 44.1875 
" id="DejaVuSans-6d"/>
     <path d="M 56.203125 29.59375 
L 56.203125 25.203125 
L 14.890625 25.203125 
Q 15.484375 15.921875 20.484375 11.0625 
Q 25.484375 6.203125 34.421875 6.203125 
Q 39.59375 6.203125 44.453125 7.46875 
Q 49.3125 8.734375 54.109375 11.28125 
L 54.109375 2.78125 
Q 49.265625 0.734375 44.1875 -0.34375 
Q 39.109375 -1.421875 33.890625 -1.421875 
Q 20.796875 -1.421875 13.15625 6.1875 
Q 5.515625 13.8125 5.515625 26.8125 
Q 5.515625 40.234375 12.765625 48.109375 
Q 20.015625 56 32.328125 56 
Q 43.359375 56 49.78125 48.890625 
Q 56.203125 41.796875 56.203125 29.59375 
M 47.21875 32.234375 
Q 47.125 39.59375 43.09375 43.984375 
Q 39.0625 48.390625 32.421875 48.390625 
Q 24.90625 48.390625 20.390625 44.140625 
Q 15.875 39.890625 15.1875 32.171875 
z
" id="DejaVuSans-65"/>
     <path d="M 34.28125 27.484375 
Q 23.390625 27.484375 19.1875 25 
Q 14.984375 22.515625 14.984375 16.5 
Q 14.984375 11.71875 18.140625 8.90625 
Q 21.296875 6.109375 26.703125 6.109375 
Q 34.1875 6.109375 38.703125 11.40625 
Q 43.21875 16.703125 43.21875 25.484375 
L 43.21875 27.484375 
z
M 52.203125 31.203125 
L 52.203125 0 
L 43.21875 0 
L 43.21875 8.296875 
Q 40.140625 3.328125 35.546875 0.953125 
Q 30.953125 -1.421875 24.3125 -1.421875 
Q 15.921875 -1.421875 10.953125 3.296875 
Q 6 8.015625 6 15.921875 
Q 6 25.140625 12.171875 29.828125 
Q 18.359375 34.515625 30.609375 34.515625 
L 43.21875 34.515625 
L 43.21875 35.40625 
Q 43.21875 41.609375 39.140625 45 
Q 35.0625 48.390625 27.6875 48.390625 
Q 23 48.390625 18.546875 47.265625 
Q 14.109375 46.140625 10.015625 43.890625 
L 10.015625 52.203125 
Q 14.9375 54.109375 19.578125 55.046875 
Q 24.21875 56 28.609375 56 
Q 40.484375 56 46.34375 49.84375 
Q 52.203125 43.703125 52.203125 31.203125 
" id="DejaVuSans-61"/>
     <path d="M 50.984375 -16.609375 
L 50.984375 -23.578125 
L -0.984375 -23.578125 
L -0.984375 -16.609375 
z
" id="DejaVuSans-5f"/>
     <path d="M 54.890625 54.6875 
L 35.109375 28.078125 
L 55.90625 0 
L 45.3125 0 
L 29.390625 21.484375 
L 13.484375 0 
L 2.875 0 
L 24.125 28.609375 
L 4.6875 54.6875 
L 15.28125 54.6875 
L 29.78125 35.203125 
L 44.28125 54.6875 
z
" id="DejaVuSans-78"/>
     <path d="M 46 62.703125 
L 46 43.796875 
L 73.1875 43.796875 
L 73.1875 35.5 
L 46 35.5 
L 46 16.609375 
L 37.796875 16.609375 
L 37.796875 35.5 
L 10.59375 35.5 
L 10.59375 43.796875 
L 37.796875 43.796875 
L 37.796875 62.703125 
z
M 10.59375 8.296875 
L 73.1875 8.296875 
L 73.1875 0 
L 10.59375 0 
z
" id="DejaVuSans-b1"/>
     <path d="M 11.71875 12.40625 
L 22.015625 12.40625 
L 22.015625 4 
L 14.015625 -11.625 
L 7.71875 -11.625 
L 11.71875 4 
z
" id="DejaVuSans-2c"/>
     <path d="M 48.78125 52.59375 
L 48.78125 44.1875 
Q 44.96875 46.296875 41.140625 47.34375 
Q 37.3125 48.390625 33.40625 48.390625 
Q 24.65625 48.390625 19.8125 42.84375 
Q 14.984375 37.3125 14.984375 27.296875 
Q 14.984375 17.28125 19.8125 11.734375 
Q 24.65625 6.203125 33.40625 6.203125 
Q 37.3125 6.203125 41.140625 7.25 
Q 44.96875 8.296875 48.78125 10.40625 
L 48.78125 2.09375 
Q 45.015625 0.34375 40.984375 -0.53125 
Q 36.96875 -1.421875 32.421875 -1.421875 
Q 20.0625 -1.421875 12.78125 6.34375 
Q 5.515625 14.109375 5.515625 27.296875 
Q 5.515625 40.671875 12.859375 48.328125 
Q 20.21875 56 33.015625 56 
Q 37.15625 56 41.109375 55.140625 
Q 45.0625 54.296875 48.78125 52.59375 
" id="DejaVuSans-63"/>
     <path d="M 18.3125 70.21875 
L 18.3125 54.6875 
L 36.8125 54.6875 
L 36.8125 47.703125 
L 18.3125 47.703125 
L 18.3125 18.015625 
Q 18.3125 11.328125 20.140625 9.421875 
Q 21.96875 7.515625 27.59375 7.515625 
L 36.8125 7.515625 
L 36.8125 0 
L 27.59375 0 
Q 17.1875 0 13.234375 3.875 
Q 9.28125 7.765625 9.28125 18.015625 
L 9.28125 47.703125 
L 2.6875 47.703125 
L 2.6875 54.6875 
L 9.28125 54.6875 
L 9.28125 70.21875 
z
" id="DejaVuSans-74"/>
     <path d="M 45.40625 46.390625 
L 45.40625 75.984375 
L 54.390625 75.984375 
L 54.390625 0 
L 45.40625 0 
L 45.40625 8.203125 
Q 42.578125 3.328125 38.25 0.953125 
Q 33.9375 -1.421875 27.875 -1.421875 
Q 17.96875 -1.421875 11.734375 6.484375 
Q 5.515625 14.40625 5.515625 27.296875 
Q 5.515625 40.1875 11.734375 48.09375 
Q 17.96875 56 27.875 56 
Q 33.9375 56 38.25 53.625 
Q 42.578125 51.265625 45.40625 46.390625 
M 14.796875 27.296875 
Q 14.796875 17.390625 18.875 11.75 
Q 22.953125 6.109375 30.078125 6.109375 
Q 37.203125 6.109375 41.296875 11.75 
Q 45.40625 17.390625 45.40625 27.296875 
Q 45.40625 37.203125 41.296875 42.84375 
Q 37.203125 48.484375 30.078125 48.484375 
Q 22.953125 48.484375 18.875 42.84375 
Q 14.796875 37.203125 14.796875 27.296875 
" id="DejaVuSans-64"/>
     <path d="M 9.421875 54.6875 
L 18.40625 54.6875 
L 18.40625 0 
L 9.421875 0 
z
M 9.421875 75.984375 
L 18.40625 75.984375 
L 18.40625 64.59375 
L 9.421875 64.59375 
z
" id="DejaVuSans-69"/>
     <path d="M 37.109375 75.984375 
L 37.109375 68.5 
L 28.515625 68.5 
Q 23.6875 68.5 21.796875 66.546875 
Q 19.921875 64.59375 19.921875 59.515625 
L 19.921875 54.6875 
L 34.71875 54.6875 
L 34.71875 47.703125 
L 19.921875 47.703125 
L 19.921875 0 
L 10.890625 0 
L 10.890625 47.703125 
L 2.296875 47.703125 
L 2.296875 54.6875 
L 10.890625 54.6875 
L 10.890625 58.5 
Q 10.890625 67.625 15.140625 71.796875 
Q 19.390625 75.984375 28.609375 75.984375 
z
" id="DejaVuSans-66"/>
     <path d="M 30.609375 47.5625 
Q 23.1875 47.5625 19.1875 42.1875 
Q 14.984375 36.578125 14.984375 27.296875 
Q 14.984375 17.484375 19.15625 11.84375 
Q 23.34375 6.203125 30.609375 6.203125 
Q 37.796875 6.203125 41.984375 11.859375 
Q 46.1875 17.53125 46.1875 27.296875 
Q 46.1875 36.234375 42 42.1875 
Q 38.140625 47.5625 30.609375 47.5625 
M 30.609375 54.6875 
L 60.453125 54.6875 
L 60.453125 45.703125 
L 50.390625 45.703125 
Q 55.71875 38.09375 55.71875 27.296875 
Q 55.71875 13.875 49.03125 6.25 
Q 42.328125 -1.421875 30.609375 -1.421875 
Q 18.84375 -1.421875 12.203125 6.25 
Q 5.515625 13.875 5.515625 27.296875 
Q 5.515625 40.828125 12.203125 48.390625 
Q 17.71875 54.6875 30.609375 54.6875 
" id="DejaVuSans-3c3"/>
    </defs>
    <g transform="translate(38.595 37.472)scale(0.12 -0.12)">
     <use xlink:href="#DejaVuSans-6e"/>
     <use x="63.378906" xlink:href="#DejaVuSans-3d"/>
     <use x="147.167969" xlink:href="#DejaVuSans-34"/>
     <use x="210.791016" xlink:href="#DejaVuSans-30"/>
     <use x="274.414062" xlink:href="#DejaVuSans-20"/>
     <use x="306.201172" xlink:href="#DejaVuSans-70"/>
     <use x="369.677734" xlink:href="#DejaVuSans-3d"/>
     <use x="453.466797" xlink:href="#DejaVuSans-30"/>
     <use x="517.089844" xlink:href="#DejaVuSans-2e"/>
     <use x="548.876953" xlink:href="#DejaVuSans-39"/>
     <use x="612.5" xlink:href="#DejaVuSans-20"/>
     <use x="644.287109" xlink:href="#DejaVuSans-6d"/>
     <use x="741.699219" xlink:href="#DejaVuSans-65"/>
     <use x="803.222656" xlink:href="#DejaVuSans-61"/>
     <use x="864.501953" xlink:href="#DejaVuSans-6e"/>
     <use x="927.880859" xlink:href="#DejaVuSans-5f"/>
     <use x="977.880859" xlink:href="#DejaVuSans-65"/>
     <use x="1039.388672" xlink:href="#DejaVuSans-78"/>
     <use x="1098.568359" xlink:href="#DejaVuSans-70"/>
     <use x="1162.044922" xlink:href="#DejaVuSans-3d"/>
     <use x="1245.833984" xlink:href="#DejaVuSans-33"/>
     <use x="1309.457031" xlink:href="#DejaVuSans-36"/>
     <use x="1373.080078" xlink:href="#DejaVuSans-2e"/>
     <use x="1404.867188" xlink:href="#DejaVuSans-30"/>
     <use x="1468.490234" xlink:href="#DejaVuSans-b1"/>
     <use x="1552.279297" xlink:href="#DejaVuSans-30"/>
     <use x="1615.902344" xlink:href="#DejaVuSans-2e"/>
     <use x="1647.689453" xlink:href="#DejaVuSans-30"/>
     <use x="1711.3125" xlink:href="#DejaVuSans-31"/>
     <use x="1774.935547" xlink:href="#DejaVuSans-32"/>
     <use x="1838.558594" xlink:href="#DejaVuSans-2c"/>
     <use x="1870.345703" xlink:href="#DejaVuSans-20"/>
     <use x="1902.132812" xlink:href="#DejaVuSans-6d"/>
     <use x="1999.544922" xlink:href="#DejaVuSans-65"/>
     <use x="2061.068359" xlink:href="#DejaVuSans-61"/>
     <use x="2122.347656" xlink:href="#DejaVuSans-6e"/>
     <use x="2185.726562" xlink:href="#DejaVuSans-5f"/>
     <use x="2235.726562" xlink:href="#DejaVuSans-61"/>
     <use x="2297.005859" xlink:href="#DejaVuSans-63"/>
     <use x="2351.986328" xlink:href="#DejaVuSans-74"/>
     <use x="2391.195312" xlink:href="#DejaVuSans-3d"/>
     <use x="2474.984375" xlink:href="#DejaVuSans-33"/>
     <use x="2538.607422" xlink:href="#DejaVuSans-36"/>
     <use x="2602.230469" xlink:href="#DejaVuSans-2e"/>
     <use x="2634.017578" xlink:href="#DejaVuSans-30"/>
     <use x="2697.640625" xlink:href="#DejaVuSans-2c"/>
     <use x="2729.427734" xlink:href="#DejaVuSans-20"/>
     <use x="2761.214844" xlink:href="#DejaVuSans-64"/>
     <use x="2824.691406" xlink:href="#DejaVuSans-69"/>
     <use x="2852.474609" xlink:href="#DejaVuSans-66"/>
     <use x="2887.679688" xlink:href="#DejaVuSans-66"/>
     <use x="2922.884766" xlink:href="#DejaVuSans-3d"/>
     <use x="3006.673828" xlink:href="#DejaVuSans-30"/>
     <use x="3070.296875" xlink:href="#DejaVuSans-2e"/>
     <use x="3102.083984" xlink:href="#DejaVuSans-34"/>
     <use x="3165.707031" xlink:href="#DejaVuSans-37"/>
     <use x="3229.330078" xlink:href="#DejaVuSans-3c3"/>
    </g>
   </g>
  </g>
 </g>
 <defs>
  <clipPath id="pe62135a1bf">
   <rect height="266.112" width="357.12" x="57.6" y="41.472"/>
  </clipPath>
 </defs>
</svg>
