<?xml version="1.0" encoding="utf-8" standalone="no"?>
<!DOCTYPE svg PUBLIC "-//W3C//DTD SVG 1.1//EN"
  "http://www.w3.org/Graphics/SVG/1.1/DTD/svg11.dtd">
<!-- Created with matplotlib (http://matplotlib.org/) -->
<svg height="345pt" version="1.1" viewBox="0 0 460 345" width="460pt" xmlns="http://www.w3.org/2000/svg" xmlns:xlink="http://www.w3.org/1999/xlink">
 <defs>
  <style type="text/css">
*{stroke-linecap:butt;stroke-linejoin:round;}
  </style>
 </defs>
 <g id="figure_1">
  <g id="patch_1">
   <path d="M 0 345.6 
L 460.8 345.6 
L 460.8 0 
L 0 0 
z
" style="fill:#ffffff;"/>
  </g>
  <g id="axes_1">
   <g id="patch_2">
    <path d="M 57.6 307.584 
L 414.72 307.584 
L 414.72 41.472 
L 57.6 41.472 
z
" style="fill:#ffffff;"/>
   </g>
   <g id="patch_3">
    <path clip-path="url(#p3b844f222b)" d="M 57.6 307.584 
L 64.467692 307.584 
L 64.467692 307.578449 
L 57.6 307.578449 
z
" style="fill:#1f77b4;"/>
   </g>
   <g id="patch_4">
    <path clip-path="url(#p3b844f222b)" d="M 64.467692 307.584 
L 71.335385 307.584 
L 71.335385 307.567348 
L 64.467692 307.567348 
z
" style="fill:#1f77b4;"/>
   </g>
   <g id="patch_5">
    <path clip-path="url(#p3b844f222b)" d="M 71.335385 307.584 
L 78.203077 307.584 
L 78.203077 307.564018 
L 71.335385 307.564018 
z
" style="fill:#1f77b4;"/>
   </g>
   <g id="patch_6">
    <path clip-path="url(#p3b844f222b)" d="M 78.203077 307.584 
L 85.070769 307.584 
L 85.070769 307.519614 
L 78.203077 307.519614 
z
" style="fill:#1f77b4;"/>
   </g>
   <g id="patch_7">
    <path clip-path="url(#p3b844f222b)" d="M 85.070769 307.584 
L 91.938462 307.584 
L 91.938462 307.350877 
L 85.070769 307.350877 
z
" style="fill:#1f77b4;"/>
   </g>
   <g id="patch_8">
    <path clip-path="url(#p3b844f222b)" d="M 91.938462 307.584 
L 98.806154 307.584 
L 98.806154 307.148837 
L 91.938462 307.148837 
z
" style="fill:#1f77b4;"/>
   </g>
   <g id="patch_9">
    <path clip-path="url(#p3b844f222b)" d="M 98.806154 307.584 
L 105.673846 307.584 
L 105.673846 306.700353 
L 98.806154 306.700353 
z
" style="fill:#1f77b4;"/>
   </g>
   <g id="patch_10">
    <path clip-path="url(#p3b844f222b)" d="M 105.673846 307.584 
L 112.541538 307.584 
L 112.541538 305.947699 
L 105.673846 305.947699 
z
" style="fill:#1f77b4;"/>
   </g>
   <g id="patch_11">
    <path clip-path="url(#p3b844f222b)" d="M 112.541538 307.584 
L 119.409231 307.584 
L 119.409231 304.516768 
L 112.541538 304.516768 
z
" style="fill:#1f77b4;"/>
   </g>
   <g id="patch_12">
    <path clip-path="url(#p3b844f222b)" d="M 119.409231 307.584 
L 126.276923 307.584 
L 126.276923 302.584067 
L 119.409231 302.584067 
z
" style="fill:#1f77b4;"/>
   </g>
   <g id="patch_13">
    <path clip-path="url(#p3b844f222b)" d="M 126.276923 307.584 
L 133.144615 307.584 
L 133.144615 299.359199 
L 126.276923 299.359199 
z
" style="fill:#1f77b4;"/>
   </g>
   <g id="patch_14">
    <path clip-path="url(#p3b844f222b)" d="M 133.144615 307.584 
L 140.012308 307.584 
L 140.012308 295.373907 
L 133.144615 295.373907 
z
" style="fill:#1f77b4;"/>
   </g>
   <g id="patch_15">
    <path clip-path="url(#p3b844f222b)" d="M 140.012308 307.584 
L 146.88 307.584 
L 146.88 289.82336 
L 140.012308 289.82336 
z
" style="fill:#1f77b4;"/>
   </g>
   <g id="patch_16">
    <path clip-path="url(#p3b844f222b)" d="M 146.88 307.584 
L 153.747692 307.584 
L 153.747692 282.938461 
L 146.88 282.938461 
z
" style="fill:#1f77b4;"/>
   </g>
   <g id="patch_17">
    <path clip-path="url(#p3b844f222b)" d="M 153.747692 307.584 
L 160.615385 307.584 
L 160.615385 274.70811 
L 153.747692 274.70811 
z
" style="fill:#1f77b4;"/>
   </g>
   <g id="patch_18">
    <path clip-path="url(#p3b844f222b)" d="M 160.615385 307.584 
L 167.483077 307.584 
L 167.483077 265.837226 
L 160.615385 265.837226 
z
" style="fill:#1f77b4;"/>
   </g>
   <g id="patch_19">
    <path clip-path="url(#p3b844f222b)" d="M 167.483077 307.584 
L 174.350769 307.584 
L 174.350769 256.455691 
L 167.483077 256.455691 
z
" style="fill:#1f77b4;"/>
   </g>
   <g id="patch_20">
    <path clip-path="url(#p3b844f222b)" d="M 174.350769 307.584 
L 181.218462 307.584 
L 181.218462 247.501549 
L 174.350769 247.501549 
z
" style="fill:#1f77b4;"/>
   </g>
   <g id="patch_21">
    <path clip-path="url(#p3b844f222b)" d="M 181.218462 307.584 
L 188.086154 307.584 
L 188.086154 239.608671 
L 181.218462 239.608671 
z
" style="fill:#1f77b4;"/>
   </g>
   <g id="patch_22">
    <path clip-path="url(#p3b844f222b)" d="M 188.086154 307.584 
L 194.953846 307.584 
L 194.953846 233.0013 
L 188.086154 233.0013 
z
" style="fill:#1f77b4;"/>
   </g>
   <g id="patch_23">
    <path clip-path="url(#p3b844f222b)" d="M 194.953846 307.584 
L 201.821538 307.584 
L 201.821538 229.467821 
L 194.953846 229.467821 
z
" style="fill:#1f77b4;"/>
   </g>
   <g id="patch_24">
    <path clip-path="url(#p3b844f222b)" d="M 201.821538 307.584 
L 208.689231 307.584 
L 208.689231 227.648352 
L 201.821538 227.648352 
z
" style="fill:#1f77b4;"/>
   </g>
   <g id="patch_25">
    <path clip-path="url(#p3b844f222b)" d="M 208.689231 307.584 
L 215.556923 307.584 
L 215.556923 228.664102 
L 208.689231 228.664102 
z
" style="fill:#1f77b4;"/>
   </g>
   <g id="patch_26">
    <path clip-path="url(#p3b844f222b)" d="M 215.556923 307.584 
L 222.424615 307.584 
L 222.424615 232.178708 
L 215.556923 232.178708 
z
" style="fill:#1f77b4;"/>
   </g>
   <g id="patch_27">
    <path clip-path="url(#p3b844f222b)" d="M 222.424615 307.584 
L 229.292308 307.584 
L 229.292308 237.833606 
L 222.424615 237.833606 
z
" style="fill:#1f77b4;"/>
   </g>
   <g id="patch_28">
    <path clip-path="url(#p3b844f222b)" d="M 229.292308 307.584 
L 236.16 307.584 
L 236.16 244.660779 
L 229.292308 244.660779 
z
" style="fill:#1f77b4;"/>
   </g>
   <g id="patch_29">
    <path clip-path="url(#p3b844f222b)" d="M 236.16 307.584 
L 243.027692 307.584 
L 243.027692 252.432655 
L 236.16 252.432655 
z
" style="fill:#1f77b4;"/>
   </g>
   <g id="patch_30">
    <path clip-path="url(#p3b844f222b)" d="M 243.027692 307.584 
L 249.895385 307.584 
L 249.895385 260.696309 
L 243.027692 260.696309 
z
" style="fill:#1f77b4;"/>
   </g>
   <g id="patch_31">
    <path clip-path="url(#p3b844f222b)" d="M 249.895385 307.584 
L 256.763077 307.584 
L 256.763077 268.731281 
L 249.895385 268.731281 
z
" style="fill:#1f77b4;"/>
   </g>
   <g id="patch_32">
    <path clip-path="url(#p3b844f222b)" d="M 256.763077 307.584 
L 263.630769 307.584 
L 263.630769 276.008048 
L 256.763077 276.008048 
z
" style="fill:#1f77b4;"/>
   </g>
   <g id="patch_33">
    <path clip-path="url(#p3b844f222b)" d="M 263.630769 307.584 
L 270.498462 307.584 
L 270.498462 282.72421 
L 263.630769 282.72421 
z
" style="fill:#1f77b4;"/>
   </g>
   <g id="patch_34">
    <path clip-path="url(#p3b844f222b)" d="M 270.498462 307.584 
L 277.366154 307.584 
L 277.366154 288.946373 
L 270.498462 288.946373 
z
" style="fill:#1f77b4;"/>
   </g>
   <g id="patch_35">
    <path clip-path="url(#p3b844f222b)" d="M 277.366154 307.584 
L 284.233846 307.584 
L 284.233846 293.471179 
L 277.366154 293.471179 
z
" style="fill:#1f77b4;"/>
   </g>
   <g id="patch_36">
    <path clip-path="url(#p3b844f222b)" d="M 284.233846 307.584 
L 291.101538 307.584 
L 291.101538 297.342131 
L 284.233846 297.342131 
z
" style="fill:#1f77b4;"/>
   </g>
   <g id="patch_37">
    <path clip-path="url(#p3b844f222b)" d="M 291.101538 307.584 
L 297.969231 307.584 
L 297.969231 300.225085 
L 291.101538 300.225085 
z
" style="fill:#1f77b4;"/>
   </g>
   <g id="patch_38">
    <path clip-path="url(#p3b844f222b)" d="M 297.969231 307.584 
L 304.836923 307.584 
L 304.836923 302.439753 
L 297.969231 302.439753 
z
" style="fill:#1f77b4;"/>
   </g>
   <g id="patch_39">
    <path clip-path="url(#p3b844f222b)" d="M 304.836923 307.584 
L 311.704615 307.584 
L 311.704615 304.158202 
L 304.836923 304.158202 
z
" style="fill:#1f77b4;"/>
   </g>
   <g id="patch_40">
    <path clip-path="url(#p3b844f222b)" d="M 311.704615 307.584 
L 318.572308 307.584 
L 318.572308 305.326037 
L 311.704615 305.326037 
z
" style="fill:#1f77b4;"/>
   </g>
   <g id="patch_41">
    <path clip-path="url(#p3b844f222b)" d="M 318.572308 307.584 
L 325.44 307.584 
L 325.44 306.104224 
L 318.572308 306.104224 
z
" style="fill:#1f77b4;"/>
   </g>
   <g id="patch_42">
    <path clip-path="url(#p3b844f222b)" d="M 325.44 307.584 
L 332.307692 307.584 
L 332.307692 306.599333 
L 325.44 306.599333 
z
" style="fill:#1f77b4;"/>
   </g>
   <g id="patch_43">
    <path clip-path="url(#p3b844f222b)" d="M 332.307692 307.584 
L 339.175385 307.584 
L 339.175385 307.014514 
L 332.307692 307.014514 
z
" style="fill:#1f77b4;"/>
   </g>
   <g id="patch_44">
    <path clip-path="url(#p3b844f222b)" d="M 339.175385 307.584 
L 346.043077 307.584 
L 346.043077 307.193241 
L 339.175385 307.193241 
z
" style="fill:#1f77b4;"/>
   </g>
   <g id="patch_45">
    <path clip-path="url(#p3b844f222b)" d="M 346.043077 307.584 
L 352.910769 307.584 
L 352.910769 307.339776 
L 346.043077 307.339776 
z
" style="fill:#1f77b4;"/>
   </g>
   <g id="patch_46">
    <path clip-path="url(#p3b844f222b)" d="M 352.910769 307.584 
L 359.778462 307.584 
L 359.778462 307.467439 
L 352.910769 307.467439 
z
" style="fill:#1f77b4;"/>
   </g>
   <g id="patch_47">
    <path clip-path="url(#p3b844f222b)" d="M 359.778462 307.584 
L 366.646154 307.584 
L 366.646154 307.511843 
L 359.778462 307.511843 
z
" style="fill:#1f77b4;"/>
   </g>
   <g id="patch_48">
    <path clip-path="url(#p3b844f222b)" d="M 366.646154 307.584 
L 373.513846 307.584 
L 373.513846 307.545146 
L 366.646154 307.545146 
z
" style="fill:#1f77b4;"/>
   </g>
   <g id="patch_49">
    <path clip-path="url(#p3b844f222b)" d="M 373.513846 307.584 
L 380.381538 307.584 
L 380.381538 307.552917 
L 373.513846 307.552917 
z
" style="fill:#1f77b4;"/>
   </g>
   <g id="patch_50">
    <path clip-path="url(#p3b844f222b)" d="M 380.381538 307.584 
L 387.249231 307.584 
L 387.249231 307.568458 
L 380.381538 307.568458 
z
" style="fill:#1f77b4;"/>
   </g>
   <g id="patch_51">
    <path clip-path="url(#p3b844f222b)" d="M 387.249231 307.584 
L 394.116923 307.584 
L 394.116923 307.578449 
L 387.249231 307.578449 
z
" style="fill:#1f77b4;"/>
   </g>
   <g id="patch_52">
    <path clip-path="url(#p3b844f222b)" d="M 394.116923 307.584 
L 400.984615 307.584 
L 400.984615 307.578449 
L 394.116923 307.578449 
z
" style="fill:#1f77b4;"/>
   </g>
   <g id="patch_53">
    <path clip-path="url(#p3b844f222b)" d="M 400.984615 307.584 
L 407.852308 307.584 
L 407.852308 307.58178 
L 400.984615 307.58178 
z
" style="fill:#1f77b4;"/>
   </g>
   <g id="patch_54">
    <path clip-path="url(#p3b844f222b)" d="M 407.852308 307.584 
L 414.72 307.584 
L 414.72 307.58289 
L 407.852308 307.58289 
z
" style="fill:#1f77b4;"/>
   </g>
   <g id="matplotlib.axis_1">
    <g id="xtick_1">
     <g id="line2d_1">
      <path clip-path="url(#p3b844f222b)" d="M 67.901538 307.584 
L 67.901538 41.472 
" style="fill:none;stroke:#b0b0b0;stroke-linecap:square;stroke-width:0.8;"/>
     </g>
     <g id="line2d_2">
      <defs>
       <path d="M 0 0 
L 0 3.5 
" id="mdf206a8e42" style="stroke:#000000;stroke-width:0.8;"/>
      </defs>
      <g>
       <use style="stroke:#000000;stroke-width:0.8;" x="67.901538" xlink:href="#mdf206a8e42" y="307.584"/>
      </g>
     </g>
     <g id="text_1">
      <!-- 10 -->
      <defs>
       <path d="M 12.40625 8.296875 
L 28.515625 8.296875 
L 28.515625 63.921875 
L 10.984375 60.40625 
L 10.984375 69.390625 
L 28.421875 72.90625 
L 38.28125 72.90625 
L 38.28125 8.296875 
L 54.390625 8.296875 
L 54.390625 0 
L 12.40625 0 
z
" id="DejaVuSans-31"/>
       <path d="M 31.78125 66.40625 
Q 24.171875 66.40625 20.328125 58.90625 
Q 16.5 51.421875 16.5 36.375 
Q 16.5 21.390625 20.328125 13.890625 
Q 24.171875 6.390625 31.78125 6.390625 
Q 39.453125 6.390625 43.28125 13.890625 
Q 47.125 21.390625 47.125 36.375 
Q 47.125 51.421875 43.28125 58.90625 
Q 39.453125 66.40625 31.78125 66.40625 
M 31.78125 74.21875 
Q 44.046875 74.21875 50.515625 64.515625 
Q 56.984375 54.828125 56.984375 36.375 
Q 56.984375 17.96875 50.515625 8.265625 
Q 44.046875 -1.421875 31.78125 -1.421875 
Q 19.53125 -1.421875 13.0625 8.265625 
Q 6.59375 17.96875 6.59375 36.375 
Q 6.59375 54.828125 13.0625 64.515625 
Q 19.53125 74.21875 31.78125 74.21875 
" id="DejaVuSans-30"/>
      </defs>
      <g transform="translate(61.539038 322.182437)scale(0.1 -0.1)">
       <use xlink:href="#DejaVuSans-31"/>
       <use x="63.623047" xlink:href="#DejaVuSans-30"/>
      </g>
     </g>
    </g>
    <g id="xtick_2">
     <g id="line2d_3">
      <path clip-path="url(#p3b844f222b)" d="M 136.578462 307.584 
L 136.578462 41.472 
" style="fill:none;stroke:#b0b0b0;stroke-linecap:square;stroke-width:0.8;"/>
     </g>
     <g id="line2d_4">
      <g>
       <use style="stroke:#000000;stroke-width:0.8;" x="136.578462" xlink:href="#mdf206a8e42" y="307.584"/>
      </g>
     </g>
     <g id="text_2">
      <!-- 20 -->
      <defs>
       <path d="M 19.1875 8.296875 
L 53.609375 8.296875 
L 53.609375 0 
L 7.328125 0 
L 7.328125 8.296875 
Q 12.9375 14.109375 22.625 23.890625 
Q 32.328125 33.6875 34.8125 36.53125 
Q 39.546875 41.84375 41.421875 45.53125 
Q 43.3125 49.21875 43.3125 52.78125 
Q 43.3125 58.59375 39.234375 62.25 
Q 35.15625 65.921875 28.609375 65.921875 
Q 23.96875 65.921875 18.8125 64.3125 
Q 13.671875 62.703125 7.8125 59.421875 
L 7.8125 69.390625 
Q 13.765625 71.78125 18.9375 73 
Q 24.125 74.21875 28.421875 74.21875 
Q 39.75 74.21875 46.484375 68.546875 
Q 53.21875 62.890625 53.21875 53.421875 
Q 53.21875 48.921875 51.53125 44.890625 
Q 49.859375 40.875 45.40625 35.40625 
Q 44.1875 33.984375 37.640625 27.21875 
Q 31.109375 20.453125 19.1875 8.296875 
" id="DejaVuSans-32"/>
      </defs>
      <g transform="translate(130.215962 322.182437)scale(0.1 -0.1)">
       <use xlink:href="#DejaVuSans-32"/>
       <use x="63.623047" xlink:href="#DejaVuSans-30"/>
      </g>
     </g>
    </g>
    <g id="xtick_3">
     <g id="line2d_5">
      <path clip-path="url(#p3b844f222b)" d="M 205.255385 307.584 
L 205.255385 41.472 
" style="fill:none;stroke:#b0b0b0;stroke-linecap:square;stroke-width:0.8;"/>
     </g>
     <g id="line2d_6">
      <g>
       <use style="stroke:#000000;stroke-width:0.8;" x="205.255385" xlink:href="#mdf206a8e42" y="307.584"/>
      </g>
     </g>
     <g id="text_3">
      <!-- 30 -->
      <defs>
       <path d="M 40.578125 39.3125 
Q 47.65625 37.796875 51.625 33 
Q 55.609375 28.21875 55.609375 21.1875 
Q 55.609375 10.40625 48.1875 4.484375 
Q 40.765625 -1.421875 27.09375 -1.421875 
Q 22.515625 -1.421875 17.65625 -0.515625 
Q 12.796875 0.390625 7.625 2.203125 
L 7.625 11.71875 
Q 11.71875 9.328125 16.59375 8.109375 
Q 21.484375 6.890625 26.8125 6.890625 
Q 36.078125 6.890625 40.9375 10.546875 
Q 45.796875 14.203125 45.796875 21.1875 
Q 45.796875 27.640625 41.28125 31.265625 
Q 36.765625 34.90625 28.71875 34.90625 
L 20.21875 34.90625 
L 20.21875 43.015625 
L 29.109375 43.015625 
Q 36.375 43.015625 40.234375 45.921875 
Q 44.09375 48.828125 44.09375 54.296875 
Q 44.09375 59.90625 40.109375 62.90625 
Q 36.140625 65.921875 28.71875 65.921875 
Q 24.65625 65.921875 20.015625 65.03125 
Q 15.375 64.15625 9.8125 62.3125 
L 9.8125 71.09375 
Q 15.4375 72.65625 20.34375 73.4375 
Q 25.25 74.21875 29.59375 74.21875 
Q 40.828125 74.21875 47.359375 69.109375 
Q 53.90625 64.015625 53.90625 55.328125 
Q 53.90625 49.265625 50.4375 45.09375 
Q 46.96875 40.921875 40.578125 39.3125 
" id="DejaVuSans-33"/>
      </defs>
      <g transform="translate(198.892885 322.182437)scale(0.1 -0.1)">
       <use xlink:href="#DejaVuSans-33"/>
       <use x="63.623047" xlink:href="#DejaVuSans-30"/>
      </g>
     </g>
    </g>
    <g id="xtick_4">
     <g id="line2d_7">
      <path clip-path="url(#p3b844f222b)" d="M 273.932308 307.584 
L 273.932308 41.472 
" style="fill:none;stroke:#b0b0b0;stroke-linecap:square;stroke-width:0.8;"/>
     </g>
     <g id="line2d_8">
      <g>
       <use style="stroke:#000000;stroke-width:0.8;" x="273.932308" xlink:href="#mdf206a8e42" y="307.584"/>
      </g>
     </g>
     <g id="text_4">
      <!-- 40 -->
      <defs>
       <path d="M 37.796875 64.3125 
L 12.890625 25.390625 
L 37.796875 25.390625 
z
M 35.203125 72.90625 
L 47.609375 72.90625 
L 47.609375 25.390625 
L 58.015625 25.390625 
L 58.015625 17.1875 
L 47.609375 17.1875 
L 47.609375 0 
L 37.796875 0 
L 37.796875 17.1875 
L 4.890625 17.1875 
L 4.890625 26.703125 
z
" id="DejaVuSans-34"/>
      </defs>
      <g transform="translate(267.569808 322.182437)scale(0.1 -0.1)">
       <use xlink:href="#DejaVuSans-34"/>
       <use x="63.623047" xlink:href="#DejaVuSans-30"/>
      </g>
     </g>
    </g>
    <g id="xtick_5">
     <g id="line2d_9">
      <path clip-path="url(#p3b844f222b)" d="M 342.609231 307.584 
L 342.609231 41.472 
" style="fill:none;stroke:#b0b0b0;stroke-linecap:square;stroke-width:0.8;"/>
     </g>
     <g id="line2d_10">
      <g>
       <use style="stroke:#000000;stroke-width:0.8;" x="342.609231" xlink:href="#mdf206a8e42" y="307.584"/>
      </g>
     </g>
     <g id="text_5">
      <!-- 50 -->
      <defs>
       <path d="M 10.796875 72.90625 
L 49.515625 72.90625 
L 49.515625 64.59375 
L 19.828125 64.59375 
L 19.828125 46.734375 
Q 21.96875 47.46875 24.109375 47.828125 
Q 26.265625 48.1875 28.421875 48.1875 
Q 40.625 48.1875 47.75 41.5 
Q 54.890625 34.8125 54.890625 23.390625 
Q 54.890625 11.625 47.5625 5.09375 
Q 40.234375 -1.421875 26.90625 -1.421875 
Q 22.3125 -1.421875 17.546875 -0.640625 
Q 12.796875 0.140625 7.71875 1.703125 
L 7.71875 11.625 
Q 12.109375 9.234375 16.796875 8.0625 
Q 21.484375 6.890625 26.703125 6.890625 
Q 35.15625 6.890625 40.078125 11.328125 
Q 45.015625 15.765625 45.015625 23.390625 
Q 45.015625 31 40.078125 35.4375 
Q 35.15625 39.890625 26.703125 39.890625 
Q 22.75 39.890625 18.8125 39.015625 
Q 14.890625 38.140625 10.796875 36.28125 
z
" id="DejaVuSans-35"/>
      </defs>
      <g transform="translate(336.246731 322.182437)scale(0.1 -0.1)">
       <use xlink:href="#DejaVuSans-35"/>
       <use x="63.623047" xlink:href="#DejaVuSans-30"/>
      </g>
     </g>
    </g>
    <g id="xtick_6">
     <g id="line2d_11">
      <path clip-path="url(#p3b844f222b)" d="M 411.286154 307.584 
L 411.286154 41.472 
" style="fill:none;stroke:#b0b0b0;stroke-linecap:square;stroke-width:0.8;"/>
     </g>
     <g id="line2d_12">
      <g>
       <use style="stroke:#000000;stroke-width:0.8;" x="411.286154" xlink:href="#mdf206a8e42" y="307.584"/>
      </g>
     </g>
     <g id="text_6">
      <!-- 60 -->
      <defs>
       <path d="M 33.015625 40.375 
Q 26.375 40.375 22.484375 35.828125 
Q 18.609375 31.296875 18.609375 23.390625 
Q 18.609375 15.53125 22.484375 10.953125 
Q 26.375 6.390625 33.015625 6.390625 
Q 39.65625 6.390625 43.53125 10.953125 
Q 47.40625 15.53125 47.40625 23.390625 
Q 47.40625 31.296875 43.53125 35.828125 
Q 39.65625 40.375 33.015625 40.375 
M 52.59375 71.296875 
L 52.59375 62.3125 
Q 48.875 64.0625 45.09375 64.984375 
Q 41.3125 65.921875 37.59375 65.921875 
Q 27.828125 65.921875 22.671875 59.328125 
Q 17.53125 52.734375 16.796875 39.40625 
Q 19.671875 43.65625 24.015625 45.921875 
Q 28.375 48.1875 33.59375 48.1875 
Q 44.578125 48.1875 50.953125 41.515625 
Q 57.328125 34.859375 57.328125 23.390625 
Q 57.328125 12.15625 50.6875 5.359375 
Q 44.046875 -1.421875 33.015625 -1.421875 
Q 20.359375 -1.421875 13.671875 8.265625 
Q 6.984375 17.96875 6.984375 36.375 
Q 6.984375 53.65625 15.1875 63.9375 
Q 23.390625 74.21875 37.203125 74.21875 
Q 40.921875 74.21875 44.703125 73.484375 
Q 48.484375 72.75 52.59375 71.296875 
" id="DejaVuSans-36"/>
      </defs>
      <g transform="translate(404.923654 322.182437)scale(0.1 -0.1)">
       <use xlink:href="#DejaVuSans-36"/>
       <use x="63.623047" xlink:href="#DejaVuSans-30"/>
      </g>
     </g>
    </g>
   </g>
   <g id="matplotlib.axis_2">
    <g id="ytick_1">
     <g id="line2d_13">
      <path clip-path="url(#p3b844f222b)" d="M 57.6 307.584 
L 414.72 307.584 
" style="fill:none;stroke:#b0b0b0;stroke-linecap:square;stroke-width:0.8;"/>
     </g>
     <g id="line2d_14">
      <defs>
       <path d="M 0 0 
L -3.5 0 
" id="mc5abbb585d" style="stroke:#000000;stroke-width:0.8;"/>
      </defs>
      <g>
       <use style="stroke:#000000;stroke-width:0.8;" x="57.6" xlink:href="#mc5abbb585d" y="307.584"/>
      </g>
     </g>
     <g id="text_7">
      <!-- 0 -->
      <g transform="translate(44.2375 311.383219)scale(0.1 -0.1)">
       <use xlink:href="#DejaVuSans-30"/>
      </g>
     </g>
    </g>
    <g id="ytick_2">
     <g id="line2d_15">
      <path clip-path="url(#p3b844f222b)" d="M 57.6 252.07853 
L 414.72 252.07853 
" style="fill:none;stroke:#b0b0b0;stroke-linecap:square;stroke-width:0.8;"/>
     </g>
     <g id="line2d_16">
      <g>
       <use style="stroke:#000000;stroke-width:0.8;" x="57.6" xlink:href="#mc5abbb585d" y="252.07853"/>
      </g>
     </g>
     <g id="text_8">
      <!-- 50000 -->
      <g transform="translate(18.7875 255.877748)scale(0.1 -0.1)">
       <use xlink:href="#DejaVuSans-35"/>
       <use x="63.623047" xlink:href="#DejaVuSans-30"/>
       <use x="127.246094" xlink:href="#DejaVuSans-30"/>
       <use x="190.869141" xlink:href="#DejaVuSans-30"/>
       <use x="254.492188" xlink:href="#DejaVuSans-30"/>
      </g>
     </g>
    </g>
    <g id="ytick_3">
     <g id="line2d_17">
      <path clip-path="url(#p3b844f222b)" d="M 57.6 196.573059 
L 414.72 196.573059 
" style="fill:none;stroke:#b0b0b0;stroke-linecap:square;stroke-width:0.8;"/>
     </g>
     <g id="line2d_18">
      <g>
       <use style="stroke:#000000;stroke-width:0.8;" x="57.6" xlink:href="#mc5abbb585d" y="196.573059"/>
      </g>
     </g>
     <g id="text_9">
      <!-- 100000 -->
      <g transform="translate(12.425 200.372278)scale(0.1 -0.1)">
       <use xlink:href="#DejaVuSans-31"/>
       <use x="63.623047" xlink:href="#DejaVuSans-30"/>
       <use x="127.246094" xlink:href="#DejaVuSans-30"/>
       <use x="190.869141" xlink:href="#DejaVuSans-30"/>
       <use x="254.492188" xlink:href="#DejaVuSans-30"/>
       <use x="318.115234" xlink:href="#DejaVuSans-30"/>
      </g>
     </g>
    </g>
    <g id="ytick_4">
     <g id="line2d_19">
      <path clip-path="url(#p3b844f222b)" d="M 57.6 141.067589 
L 414.72 141.067589 
" style="fill:none;stroke:#b0b0b0;stroke-linecap:square;stroke-width:0.8;"/>
     </g>
     <g id="line2d_20">
      <g>
       <use style="stroke:#000000;stroke-width:0.8;" x="57.6" xlink:href="#mc5abbb585d" y="141.067589"/>
      </g>
     </g>
     <g id="text_10">
      <!-- 150000 -->
      <g transform="translate(12.425 144.866808)scale(0.1 -0.1)">
       <use xlink:href="#DejaVuSans-31"/>
       <use x="63.623047" xlink:href="#DejaVuSans-35"/>
       <use x="127.246094" xlink:href="#DejaVuSans-30"/>
       <use x="190.869141" xlink:href="#DejaVuSans-30"/>
       <use x="254.492188" xlink:href="#DejaVuSans-30"/>
       <use x="318.115234" xlink:href="#DejaVuSans-30"/>
      </g>
     </g>
    </g>
    <g id="ytick_5">
     <g id="line2d_21">
      <path clip-path="url(#p3b844f222b)" d="M 57.6 85.562119 
L 414.72 85.562119 
" style="fill:none;stroke:#b0b0b0;stroke-linecap:square;stroke-width:0.8;"/>
     </g>
     <g id="line2d_22">
      <g>
       <use style="stroke:#000000;stroke-width:0.8;" x="57.6" xlink:href="#mc5abbb585d" y="85.562119"/>
      </g>
     </g>
     <g id="text_11">
      <!-- 200000 -->
      <g transform="translate(12.425 89.361338)scale(0.1 -0.1)">
       <use xlink:href="#DejaVuSans-32"/>
       <use x="63.623047" xlink:href="#DejaVuSans-30"/>
       <use x="127.246094" xlink:href="#DejaVuSans-30"/>
       <use x="190.869141" xlink:href="#DejaVuSans-30"/>
       <use x="254.492188" xlink:href="#DejaVuSans-30"/>
       <use x="318.115234" xlink:href="#DejaVuSans-30"/>
      </g>
     </g>
    </g>
   </g>
   <g id="line2d_23">
    <defs>
     <path d="M 0 3 
C 0.795609 3 1.55874 2.683901 2.12132 2.12132 
C 2.683901 1.55874 3 0.795609 3 0 
C 3 -0.795609 2.683901 -1.55874 2.12132 -2.12132 
C 1.55874 -2.683901 0.795609 -3 0 -3 
C -0.795609 -3 -1.55874 -2.683901 -2.12132 -2.12132 
C -2.683901 -1.55874 -3 -0.795609 -3 0 
C -3 0.795609 -2.683901 1.55874 -2.12132 2.12132 
C -1.55874 2.683901 -0.795609 3 0 3 
z
" id="m5604aa3a57" style="stroke:#ff0000;"/>
    </defs>
    <g clip-path="url(#p3b844f222b)">
     <use style="fill:#ff0000;stroke:#ff0000;" x="61.033846" xlink:href="#m5604aa3a57" y="307.584"/>
     <use style="fill:#ff0000;stroke:#ff0000;" x="67.901538" xlink:href="#m5604aa3a57" y="307.584"/>
     <use style="fill:#ff0000;stroke:#ff0000;" x="74.769231" xlink:href="#m5604aa3a57" y="307.584"/>
     <use style="fill:#ff0000;stroke:#ff0000;" x="81.636923" xlink:href="#m5604aa3a57" y="307.584"/>
     <use style="fill:#ff0000;stroke:#ff0000;" x="88.504615" xlink:href="#m5604aa3a57" y="307.584"/>
     <use style="fill:#ff0000;stroke:#ff0000;" x="95.372308" xlink:href="#m5604aa3a57" y="307.584"/>
     <use style="fill:#ff0000;stroke:#ff0000;" x="102.24" xlink:href="#m5604aa3a57" y="307.584"/>
     <use style="fill:#ff0000;stroke:#ff0000;" x="109.107692" xlink:href="#m5604aa3a57" y="307.584"/>
     <use style="fill:#ff0000;stroke:#ff0000;" x="115.975385" xlink:href="#m5604aa3a57" y="307.583996"/>
     <use style="fill:#ff0000;stroke:#ff0000;" x="122.843077" xlink:href="#m5604aa3a57" y="307.583963"/>
     <use style="fill:#ff0000;stroke:#ff0000;" x="129.710769" xlink:href="#m5604aa3a57" y="307.583722"/>
     <use style="fill:#ff0000;stroke:#ff0000;" x="136.578462" xlink:href="#m5604aa3a57" y="307.582121"/>
     <use style="fill:#ff0000;stroke:#ff0000;" x="143.446154" xlink:href="#m5604aa3a57" y="307.572728"/>
     <use style="fill:#ff0000;stroke:#ff0000;" x="150.313846" xlink:href="#m5604aa3a57" y="307.524054"/>
     <use style="fill:#ff0000;stroke:#ff0000;" x="157.181538" xlink:href="#m5604aa3a57" y="307.302513"/>
     <use style="fill:#ff0000;stroke:#ff0000;" x="164.049231" xlink:href="#m5604aa3a57" y="306.422867"/>
     <use style="fill:#ff0000;stroke:#ff0000;" x="170.916923" xlink:href="#m5604aa3a57" y="303.403922"/>
     <use style="fill:#ff0000;stroke:#ff0000;" x="177.784615" xlink:href="#m5604aa3a57" y="294.561449"/>
     <use style="fill:#ff0000;stroke:#ff0000;" x="184.652308" xlink:href="#m5604aa3a57" y="272.857196"/>
     <use style="fill:#ff0000;stroke:#ff0000;" x="191.52" xlink:href="#m5604aa3a57" y="229.448691"/>
     <use style="fill:#ff0000;stroke:#ff0000;" x="198.387692" xlink:href="#m5604aa3a57" y="162.090667"/>
     <use style="fill:#ff0000;stroke:#ff0000;" x="205.255385" xlink:href="#m5604aa3a57" y="89.344"/>
     <use style="fill:#ff0000;stroke:#ff0000;" x="212.123077" xlink:href="#m5604aa3a57" y="54.144"/>
     <use style="fill:#ff0000;stroke:#ff0000;" x="218.990769" xlink:href="#m5604aa3a57" y="93.744"/>
     <use style="fill:#ff0000;stroke:#ff0000;" x="225.858462" xlink:href="#m5604aa3a57" y="190.944"/>
     <use style="fill:#ff0000;stroke:#ff0000;" x="232.726154" xlink:href="#m5604aa3a57" y="276.708706"/>
     <use style="fill:#ff0000;stroke:#ff0000;" x="239.593846" xlink:href="#m5604aa3a57" y="307.584"/>
     <use style="fill:#ff0000;stroke:#ff0000;" x="246.461538" xlink:href="#m5604aa3a57" y="307.584"/>
     <use style="fill:#ff0000;stroke:#ff0000;" x="253.329231" xlink:href="#m5604aa3a57" y="307.584"/>
     <use style="fill:#ff0000;stroke:#ff0000;" x="260.196923" xlink:href="#m5604aa3a57" y="307.584"/>
     <use style="fill:#ff0000;stroke:#ff0000;" x="267.064615" xlink:href="#m5604aa3a57" y="307.584"/>
     <use style="fill:#ff0000;stroke:#ff0000;" x="273.932308" xlink:href="#m5604aa3a57" y="307.584"/>
     <use style="fill:#ff0000;stroke:#ff0000;" x="280.8" xlink:href="#m5604aa3a57" y="307.584"/>
     <use style="fill:#ff0000;stroke:#ff0000;" x="287.667692" xlink:href="#m5604aa3a57" y="307.584"/>
     <use style="fill:#ff0000;stroke:#ff0000;" x="294.535385" xlink:href="#m5604aa3a57" y="307.584"/>
     <use style="fill:#ff0000;stroke:#ff0000;" x="301.403077" xlink:href="#m5604aa3a57" y="307.584"/>
     <use style="fill:#ff0000;stroke:#ff0000;" x="308.270769" xlink:href="#m5604aa3a57" y="307.584"/>
     <use style="fill:#ff0000;stroke:#ff0000;" x="315.138462" xlink:href="#m5604aa3a57" y="307.584"/>
     <use style="fill:#ff0000;stroke:#ff0000;" x="322.006154" xlink:href="#m5604aa3a57" y="307.584"/>
     <use style="fill:#ff0000;stroke:#ff0000;" x="328.873846" xlink:href="#m5604aa3a57" y="307.584"/>
     <use style="fill:#ff0000;stroke:#ff0000;" x="335.741538" xlink:href="#m5604aa3a57" y="307.584"/>
     <use style="fill:#ff0000;stroke:#ff0000;" x="342.609231" xlink:href="#m5604aa3a57" y="307.584"/>
     <use style="fill:#ff0000;stroke:#ff0000;" x="349.476923" xlink:href="#m5604aa3a57" y="307.584"/>
     <use style="fill:#ff0000;stroke:#ff0000;" x="356.344615" xlink:href="#m5604aa3a57" y="307.584"/>
     <use style="fill:#ff0000;stroke:#ff0000;" x="363.212308" xlink:href="#m5604aa3a57" y="307.584"/>
     <use style="fill:#ff0000;stroke:#ff0000;" x="370.08" xlink:href="#m5604aa3a57" y="307.584"/>
     <use style="fill:#ff0000;stroke:#ff0000;" x="376.947692" xlink:href="#m5604aa3a57" y="307.584"/>
     <use style="fill:#ff0000;stroke:#ff0000;" x="383.815385" xlink:href="#m5604aa3a57" y="307.584"/>
     <use style="fill:#ff0000;stroke:#ff0000;" x="390.683077" xlink:href="#m5604aa3a57" y="307.584"/>
     <use style="fill:#ff0000;stroke:#ff0000;" x="397.550769" xlink:href="#m5604aa3a57" y="307.584"/>
     <use style="fill:#ff0000;stroke:#ff0000;" x="404.418462" xlink:href="#m5604aa3a57" y="307.584"/>
     <use style="fill:#ff0000;stroke:#ff0000;" x="411.286154" xlink:href="#m5604aa3a57" y="307.584"/>
    </g>
   </g>
   <g id="line2d_24">
    <path clip-path="url(#p3b844f222b)" d="M 209.376 307.584 
L 209.376 41.472 
" style="fill:none;stroke:#ff0000;stroke-linecap:square;stroke-width:3;"/>
   </g>
   <g id="patch_55">
    <path d="M 57.6 307.584 
L 57.6 41.472 
" style="fill:none;stroke:#000000;stroke-linecap:square;stroke-linejoin:miter;stroke-width:0.8;"/>
   </g>
   <g id="patch_56">
    <path d="M 414.72 307.584 
L 414.72 41.472 
" style="fill:none;stroke:#000000;stroke-linecap:square;stroke-linejoin:miter;stroke-width:0.8;"/>
   </g>
   <g id="patch_57">
    <path d="M 57.6 307.584 
L 414.72 307.584 
" style="fill:none;stroke:#000000;stroke-linecap:square;stroke-linejoin:miter;stroke-width:0.8;"/>
   </g>
   <g id="patch_58">
    <path d="M 57.6 41.472 
L 414.72 41.472 
" style="fill:none;stroke:#000000;stroke-linecap:square;stroke-linejoin:miter;stroke-width:0.8;"/>
   </g>
   <g id="text_12">
    <!-- n=34 p=0.9 mean_exp=30.6±0.01, mean_act=31.0, diff=-0.28σ -->
    <defs>
     <path d="M 54.890625 33.015625 
L 54.890625 0 
L 45.90625 0 
L 45.90625 32.71875 
Q 45.90625 40.484375 42.875 44.328125 
Q 39.84375 48.1875 33.796875 48.1875 
Q 26.515625 48.1875 22.3125 43.546875 
Q 18.109375 38.921875 18.109375 30.90625 
L 18.109375 0 
L 9.078125 0 
L 9.078125 54.6875 
L 18.109375 54.6875 
L 18.109375 46.1875 
Q 21.34375 51.125 25.703125 53.5625 
Q 30.078125 56 35.796875 56 
Q 45.21875 56 50.046875 50.171875 
Q 54.890625 44.34375 54.890625 33.015625 
" id="DejaVuSans-6e"/>
     <path d="M 10.59375 45.40625 
L 73.1875 45.40625 
L 73.1875 37.203125 
L 10.59375 37.203125 
z
M 10.59375 25.484375 
L 73.1875 25.484375 
L 73.1875 17.1875 
L 10.59375 17.1875 
z
" id="DejaVuSans-3d"/>
     <path id="DejaVuSans-20"/>
     <path d="M 18.109375 8.203125 
L 18.109375 -20.796875 
L 9.078125 -20.796875 
L 9.078125 54.6875 
L 18.109375 54.6875 
L 18.109375 46.390625 
Q 20.953125 51.265625 25.265625 53.625 
Q 29.59375 56 35.59375 56 
Q 45.5625 56 51.78125 48.09375 
Q 58.015625 40.1875 58.015625 27.296875 
Q 58.015625 14.40625 51.78125 6.484375 
Q 45.5625 -1.421875 35.59375 -1.421875 
Q 29.59375 -1.421875 25.265625 0.953125 
Q 20.953125 3.328125 18.109375 8.203125 
M 48.6875 27.296875 
Q 48.6875 37.203125 44.609375 42.84375 
Q 40.53125 48.484375 33.40625 48.484375 
Q 26.265625 48.484375 22.1875 42.84375 
Q 18.109375 37.203125 18.109375 27.296875 
Q 18.109375 17.390625 22.1875 11.75 
Q 26.265625 6.109375 33.40625 6.109375 
Q 40.53125 6.109375 44.609375 11.75 
Q 48.6875 17.390625 48.6875 27.296875 
" id="DejaVuSans-70"/>
     <path d="M 10.6875 12.40625 
L 21 12.40625 
L 21 0 
L 10.6875 0 
z
" id="DejaVuSans-2e"/>
     <path d="M 10.984375 1.515625 
L 10.984375 10.5 
Q 14.703125 8.734375 18.5 7.8125 
Q 22.3125 6.890625 25.984375 6.890625 
Q 35.75 6.890625 40.890625 13.453125 
Q 46.046875 20.015625 46.78125 33.40625 
Q 43.953125 29.203125 39.59375 26.953125 
Q 35.25 24.703125 29.984375 24.703125 
Q 19.046875 24.703125 12.671875 31.3125 
Q 6.296875 37.9375 6.296875 49.421875 
Q 6.296875 60.640625 12.9375 67.421875 
Q 19.578125 74.21875 30.609375 74.21875 
Q 43.265625 74.21875 49.921875 64.515625 
Q 56.59375 54.828125 56.59375 36.375 
Q 56.59375 19.140625 48.40625 8.859375 
Q 40.234375 -1.421875 26.421875 -1.421875 
Q 22.703125 -1.421875 18.890625 -0.6875 
Q 15.09375 0.046875 10.984375 1.515625 
M 30.609375 32.421875 
Q 37.25 32.421875 41.125 36.953125 
Q 45.015625 41.5 45.015625 49.421875 
Q 45.015625 57.28125 41.125 61.84375 
Q 37.25 66.40625 30.609375 66.40625 
Q 23.96875 66.40625 20.09375 61.84375 
Q 16.21875 57.28125 16.21875 49.421875 
Q 16.21875 41.5 20.09375 36.953125 
Q 23.96875 32.421875 30.609375 32.421875 
" id="DejaVuSans-39"/>
     <path d="M 52 44.1875 
Q 55.375 50.25 60.0625 53.125 
Q 64.75 56 71.09375 56 
Q 79.640625 56 84.28125 50.015625 
Q 88.921875 44.046875 88.921875 33.015625 
L 88.921875 0 
L 79.890625 0 
L 79.890625 32.71875 
Q 79.890625 40.578125 77.09375 44.375 
Q 74.3125 48.1875 68.609375 48.1875 
Q 61.625 48.1875 57.5625 43.546875 
Q 53.515625 38.921875 53.515625 30.90625 
L 53.515625 0 
L 44.484375 0 
L 44.484375 32.71875 
Q 44.484375 40.625 41.703125 44.40625 
Q 38.921875 48.1875 33.109375 48.1875 
Q 26.21875 48.1875 22.15625 43.53125 
Q 18.109375 38.875 18.109375 30.90625 
L 18.109375 0 
L 9.078125 0 
L 9.078125 54.6875 
L 18.109375 54.6875 
L 18.109375 46.1875 
Q 21.1875 51.21875 25.484375 53.609375 
Q 29.78125 56 35.6875 56 
Q 41.65625 56 45.828125 52.96875 
Q 50 49.953125 52 44.1875 
" id="DejaVuSans-6d"/>
     <path d="M 56.203125 29.59375 
L 56.203125 25.203125 
L 14.890625 25.203125 
Q 15.484375 15.921875 20.484375 11.0625 
Q 25.484375 6.203125 34.421875 6.203125 
Q 39.59375 6.203125 44.453125 7.46875 
Q 49.3125 8.734375 54.109375 11.28125 
L 54.109375 2.78125 
Q 49.265625 0.734375 44.1875 -0.34375 
Q 39.109375 -1.421875 33.890625 -1.421875 
Q 20.796875 -1.421875 13.15625 6.1875 
Q 5.515625 13.8125 5.515625 26.8125 
Q 5.515625 40.234375 12.765625 48.109375 
Q 20.015625 56 32.328125 56 
Q 43.359375 56 49.78125 48.890625 
Q 56.203125 41.796875 56.203125 29.59375 
M 47.21875 32.234375 
Q 47.125 39.59375 43.09375 43.984375 
Q 39.0625 48.390625 32.421875 48.390625 
Q 24.90625 48.390625 20.390625 44.140625 
Q 15.875 39.890625 15.1875 32.171875 
z
" id="DejaVuSans-65"/>
     <path d="M 34.28125 27.484375 
Q 23.390625 27.484375 19.1875 25 
Q 14.984375 22.515625 14.984375 16.5 
Q 14.984375 11.71875 18.140625 8.90625 
Q 21.296875 6.109375 26.703125 6.109375 
Q 34.1875 6.109375 38.703125 11.40625 
Q 43.21875 16.703125 43.21875 25.484375 
L 43.21875 27.484375 
z
M 52.203125 31.203125 
L 52.203125 0 
L 43.21875 0 
L 43.21875 8.296875 
Q 40.140625 3.328125 35.546875 0.953125 
Q 30.953125 -1.421875 24.3125 -1.421875 
Q 15.921875 -1.421875 10.953125 3.296875 
Q 6 8.015625 6 15.921875 
Q 6 25.140625 12.171875 29.828125 
Q 18.359375 34.515625 30.609375 34.515625 
L 43.21875 34.515625 
L 43.21875 35.40625 
Q 43.21875 41.609375 39.140625 45 
Q 35.0625 48.390625 27.6875 48.390625 
Q 23 48.390625 18.546875 47.265625 
Q 14.109375 46.140625 10.015625 43.890625 
L 10.015625 52.203125 
Q 14.9375 54.109375 19.578125 55.046875 
Q 24.21875 56 28.609375 56 
Q 40.484375 56 46.34375 49.84375 
Q 52.203125 43.703125 52.203125 31.203125 
" id="DejaVuSans-61"/>
     <path d="M 50.984375 -16.609375 
L 50.984375 -23.578125 
L -0.984375 -23.578125 
L -0.984375 -16.609375 
z
" id="DejaVuSans-5f"/>
     <path d="M 54.890625 54.6875 
L 35.109375 28.078125 
L 55.90625 0 
L 45.3125 0 
L 29.390625 21.484375 
L 13.484375 0 
L 2.875 0 
L 24.125 28.609375 
L 4.6875 54.6875 
L 15.28125 54.6875 
L 29.78125 35.203125 
L 44.28125 54.6875 
z
" id="DejaVuSans-78"/>
     <path d="M 46 62.703125 
L 46 43.796875 
L 73.1875 43.796875 
L 73.1875 35.5 
L 46 35.5 
L 46 16.609375 
L 37.796875 16.609375 
L 37.796875 35.5 
L 10.59375 35.5 
L 10.59375 43.796875 
L 37.796875 43.796875 
L 37.796875 62.703125 
z
M 10.59375 8.296875 
L 73.1875 8.296875 
L 73.1875 0 
L 10.59375 0 
z
" id="DejaVuSans-b1"/>
     <path d="M 11.71875 12.40625 
L 22.015625 12.40625 
L 22.015625 4 
L 14.015625 -11.625 
L 7.71875 -11.625 
L 11.71875 4 
z
" id="DejaVuSans-2c"/>
     <path d="M 48.78125 52.59375 
L 48.78125 44.1875 
Q 44.96875 46.296875 41.140625 47.34375 
Q 37.3125 48.390625 33.40625 48.390625 
Q 24.65625 48.390625 19.8125 42.84375 
Q 14.984375 37.3125 14.984375 27.296875 
Q 14.984375 17.28125 19.8125 11.734375 
Q 24.65625 6.203125 33.40625 6.203125 
Q 37.3125 6.203125 41.140625 7.25 
Q 44.96875 8.296875 48.78125 10.40625 
L 48.78125 2.09375 
Q 45.015625 0.34375 40.984375 -0.53125 
Q 36.96875 -1.421875 32.421875 -1.421875 
Q 20.0625 -1.421875 12.78125 6.34375 
Q 5.515625 14.109375 5.515625 27.296875 
Q 5.515625 40.671875 12.859375 48.328125 
Q 20.21875 56 33.015625 56 
Q 37.15625 56 41.109375 55.140625 
Q 45.0625 54.296875 48.78125 52.59375 
" id="DejaVuSans-63"/>
     <path d="M 18.3125 70.21875 
L 18.3125 54.6875 
L 36.8125 54.6875 
L 36.8125 47.703125 
L 18.3125 47.703125 
L 18.3125 18.015625 
Q 18.3125 11.328125 20.140625 9.421875 
Q 21.96875 7.515625 27.59375 7.515625 
L 36.8125 7.515625 
L 36.8125 0 
L 27.59375 0 
Q 17.1875 0 13.234375 3.875 
Q 9.28125 7.765625 9.28125 18.015625 
L 9.28125 47.703125 
L 2.6875 47.703125 
L 2.6875 54.6875 
L 9.28125 54.6875 
L 9.28125 70.21875 
z
" id="DejaVuSans-74"/>
     <path d="M 45.40625 46.390625 
L 45.40625 75.984375 
L 54.390625 75.984375 
L 54.390625 0 
L 45.40625 0 
L 45.40625 8.203125 
Q 42.578125 3.328125 38.25 0.953125 
Q 33.9375 -1.421875 27.875 -1.421875 
Q 17.96875 -1.421875 11.734375 6.484375 
Q 5.515625 14.40625 5.515625 27.296875 
Q 5.515625 40.1875 11.734375 48.09375 
Q 17.96875 56 27.875 56 
Q 33.9375 56 38.25 53.625 
Q 42.578125 51.265625 45.40625 46.390625 
M 14.796875 27.296875 
Q 14.796875 17.390625 18.875 11.75 
Q 22.953125 6.109375 30.078125 6.109375 
Q 37.203125 6.109375 41.296875 11.75 
Q 45.40625 17.390625 45.40625 27.296875 
Q 45.40625 37.203125 41.296875 42.84375 
Q 37.203125 48.484375 30.078125 48.484375 
Q 22.953125 48.484375 18.875 42.84375 
Q 14.796875 37.203125 14.796875 27.296875 
" id="DejaVuSans-64"/>
     <path d="M 9.421875 54.6875 
L 18.40625 54.6875 
L 18.40625 0 
L 9.421875 0 
z
M 9.421875 75.984375 
L 18.40625 75.984375 
L 18.40625 64.59375 
L 9.421875 64.59375 
z
" id="DejaVuSans-69"/>
     <path d="M 37.109375 75.984375 
L 37.109375 68.5 
L 28.515625 68.5 
Q 23.6875 68.5 21.796875 66.546875 
Q 19.921875 64.59375 19.921875 59.515625 
L 19.921875 54.6875 
L 34.71875 54.6875 
L 34.71875 47.703125 
L 19.921875 47.703125 
L 19.921875 0 
L 10.890625 0 
L 10.890625 47.703125 
L 2.296875 47.703125 
L 2.296875 54.6875 
L 10.890625 54.6875 
L 10.890625 58.5 
Q 10.890625 67.625 15.140625 71.796875 
Q 19.390625 75.984375 28.609375 75.984375 
z
" id="DejaVuSans-66"/>
     <path d="M 4.890625 31.390625 
L 31.203125 31.390625 
L 31.203125 23.390625 
L 4.890625 23.390625 
z
" id="DejaVuSans-2d"/>
     <path d="M 31.78125 34.625 
Q 24.75 34.625 20.71875 30.859375 
Q 16.703125 27.09375 16.703125 20.515625 
Q 16.703125 13.921875 20.71875 10.15625 
Q 24.75 6.390625 31.78125 6.390625 
Q 38.8125 6.390625 42.859375 10.171875 
Q 46.921875 13.96875 46.921875 20.515625 
Q 46.921875 27.09375 42.890625 30.859375 
Q 38.875 34.625 31.78125 34.625 
M 21.921875 38.8125 
Q 15.578125 40.375 12.03125 44.71875 
Q 8.5 49.078125 8.5 55.328125 
Q 8.5 64.0625 14.71875 69.140625 
Q 20.953125 74.21875 31.78125 74.21875 
Q 42.671875 74.21875 48.875 69.140625 
Q 55.078125 64.0625 55.078125 55.328125 
Q 55.078125 49.078125 51.53125 44.71875 
Q 48 40.375 41.703125 38.8125 
Q 48.828125 37.15625 52.796875 32.3125 
Q 56.78125 27.484375 56.78125 20.515625 
Q 56.78125 9.90625 50.3125 4.234375 
Q 43.84375 -1.421875 31.78125 -1.421875 
Q 19.734375 -1.421875 13.25 4.234375 
Q 6.78125 9.90625 6.78125 20.515625 
Q 6.78125 27.484375 10.78125 32.3125 
Q 14.796875 37.15625 21.921875 38.8125 
M 18.3125 54.390625 
Q 18.3125 48.734375 21.84375 45.5625 
Q 25.390625 42.390625 31.78125 42.390625 
Q 38.140625 42.390625 41.71875 45.5625 
Q 45.3125 48.734375 45.3125 54.390625 
Q 45.3125 60.0625 41.71875 63.234375 
Q 38.140625 66.40625 31.78125 66.40625 
Q 25.390625 66.40625 21.84375 63.234375 
Q 18.3125 60.0625 18.3125 54.390625 
" id="DejaVuSans-38"/>
     <path d="M 30.609375 47.5625 
Q 23.1875 47.5625 19.1875 42.1875 
Q 14.984375 36.578125 14.984375 27.296875 
Q 14.984375 17.484375 19.15625 11.84375 
Q 23.34375 6.203125 30.609375 6.203125 
Q 37.796875 6.203125 41.984375 11.859375 
Q 46.1875 17.53125 46.1875 27.296875 
Q 46.1875 36.234375 42 42.1875 
Q 38.140625 47.5625 30.609375 47.5625 
M 30.609375 54.6875 
L 60.453125 54.6875 
L 60.453125 45.703125 
L 50.390625 45.703125 
Q 55.71875 38.09375 55.71875 27.296875 
Q 55.71875 13.875 49.03125 6.25 
Q 42.328125 -1.421875 30.609375 -1.421875 
Q 18.84375 -1.421875 12.203125 6.25 
Q 5.515625 13.875 5.515625 27.296875 
Q 5.515625 40.828125 12.203125 48.390625 
Q 17.71875 54.6875 30.609375 54.6875 
" id="DejaVuSans-3c3"/>
    </defs>
    <g transform="translate(40.247813 37.472)scale(0.12 -0.12)">
     <use xlink:href="#DejaVuSans-6e"/>
     <use x="63.378906" xlink:href="#DejaVuSans-3d"/>
     <use x="147.167969" xlink:href="#DejaVuSans-33"/>
     <use x="210.791016" xlink:href="#DejaVuSans-34"/>
     <use x="274.414062" xlink:href="#DejaVuSans-20"/>
     <use x="306.201172" xlink:href="#DejaVuSans-70"/>
     <use x="369.677734" xlink:href="#DejaVuSans-3d"/>
     <use x="453.466797" xlink:href="#DejaVuSans-30"/>
     <use x="517.089844" xlink:href="#DejaVuSans-2e"/>
     <use x="548.876953" xlink:href="#DejaVuSans-39"/>
     <use x="612.5" xlink:href="#DejaVuSans-20"/>
     <use x="644.287109" xlink:href="#DejaVuSans-6d"/>
     <use x="741.699219" xlink:href="#DejaVuSans-65"/>
     <use x="803.222656" xlink:href="#DejaVuSans-61"/>
     <use x="864.501953" xlink:href="#DejaVuSans-6e"/>
     <use x="927.880859" xlink:href="#DejaVuSans-5f"/>
     <use x="977.880859" xlink:href="#DejaVuSans-65"/>
     <use x="1039.388672" xlink:href="#DejaVuSans-78"/>
     <use x="1098.568359" xlink:href="#DejaVuSans-70"/>
     <use x="1162.044922" xlink:href="#DejaVuSans-3d"/>
     <use x="1245.833984" xlink:href="#DejaVuSans-33"/>
     <use x="1309.457031" xlink:href="#DejaVuSans-30"/>
     <use x="1373.080078" xlink:href="#DejaVuSans-2e"/>
     <use x="1404.867188" xlink:href="#DejaVuSans-36"/>
     <use x="1468.490234" xlink:href="#DejaVuSans-b1"/>
     <use x="1552.279297" xlink:href="#DejaVuSans-30"/>
     <use x="1615.902344" xlink:href="#DejaVuSans-2e"/>
     <use x="1647.689453" xlink:href="#DejaVuSans-30"/>
     <use x="1711.3125" xlink:href="#DejaVuSans-31"/>
     <use x="1774.935547" xlink:href="#DejaVuSans-2c"/>
     <use x="1806.722656" xlink:href="#DejaVuSans-20"/>
     <use x="1838.509766" xlink:href="#DejaVuSans-6d"/>
     <use x="1935.921875" xlink:href="#DejaVuSans-65"/>
     <use x="1997.445312" xlink:href="#DejaVuSans-61"/>
     <use x="2058.724609" xlink:href="#DejaVuSans-6e"/>
     <use x="2122.103516" xlink:href="#DejaVuSans-5f"/>
     <use x="2172.103516" xlink:href="#DejaVuSans-61"/>
     <use x="2233.382812" xlink:href="#DejaVuSans-63"/>
     <use x="2288.363281" xlink:href="#DejaVuSans-74"/>
     <use x="2327.572266" xlink:href="#DejaVuSans-3d"/>
     <use x="2411.361328" xlink:href="#DejaVuSans-33"/>
     <use x="2474.984375" xlink:href="#DejaVuSans-31"/>
     <use x="2538.607422" xlink:href="#DejaVuSans-2e"/>
     <use x="2570.394531" xlink:href="#DejaVuSans-30"/>
     <use x="2634.017578" xlink:href="#DejaVuSans-2c"/>
     <use x="2665.804688" xlink:href="#DejaVuSans-20"/>
     <use x="2697.591797" xlink:href="#DejaVuSans-64"/>
     <use x="2761.068359" xlink:href="#DejaVuSans-69"/>
     <use x="2788.851562" xlink:href="#DejaVuSans-66"/>
     <use x="2824.056641" xlink:href="#DejaVuSans-66"/>
     <use x="2859.261719" xlink:href="#DejaVuSans-3d"/>
     <use x="2943.050781" xlink:href="#DejaVuSans-2d"/>
     <use x="2979.134766" xlink:href="#DejaVuSans-30"/>
     <use x="3042.757812" xlink:href="#DejaVuSans-2e"/>
     <use x="3074.544922" xlink:href="#DejaVuSans-32"/>
     <use x="3138.167969" xlink:href="#DejaVuSans-38"/>
     <use x="3201.791016" xlink:href="#DejaVuSans-3c3"/>
    </g>
   </g>
  </g>
 </g>
 <defs>
  <clipPath id="p3b844f222b">
   <rect height="266.112" width="357.12" x="57.6" y="41.472"/>
  </clipPath>
 </defs>
</svg>
