<?xml version="1.0" encoding="utf-8" standalone="no"?>
<!DOCTYPE svg PUBLIC "-//W3C//DTD SVG 1.1//EN"
  "http://www.w3.org/Graphics/SVG/1.1/DTD/svg11.dtd">
<!-- Created with matplotlib (http://matplotlib.org/) -->
<svg height="345pt" version="1.1" viewBox="0 0 460 345" width="460pt" xmlns="http://www.w3.org/2000/svg" xmlns:xlink="http://www.w3.org/1999/xlink">
 <defs>
  <style type="text/css">
*{stroke-linecap:butt;stroke-linejoin:round;}
  </style>
 </defs>
 <g id="figure_1">
  <g id="patch_1">
   <path d="M 0 345.6 
L 460.8 345.6 
L 460.8 0 
L 0 0 
z
" style="fill:#ffffff;"/>
  </g>
  <g id="axes_1">
   <g id="patch_2">
    <path d="M 57.6 307.584 
L 414.72 307.584 
L 414.72 41.472 
L 57.6 41.472 
z
" style="fill:#ffffff;"/>
   </g>
   <g id="patch_3">
    <path clip-path="url(#pf9d9d0d39f)" d="M 57.6 307.584 
L 64.7424 307.584 
L 64.7424 307.578633 
L 57.6 307.578633 
z
" style="fill:#1f77b4;"/>
   </g>
   <g id="patch_4">
    <path clip-path="url(#pf9d9d0d39f)" d="M 64.7424 307.584 
L 71.8848 307.584 
L 71.8848 307.567898 
L 64.7424 307.567898 
z
" style="fill:#1f77b4;"/>
   </g>
   <g id="patch_5">
    <path clip-path="url(#pf9d9d0d39f)" d="M 71.8848 307.584 
L 79.0272 307.584 
L 79.0272 307.543207 
L 71.8848 307.543207 
z
" style="fill:#1f77b4;"/>
   </g>
   <g id="patch_6">
    <path clip-path="url(#pf9d9d0d39f)" d="M 79.0272 307.584 
L 86.1696 307.584 
L 86.1696 307.468062 
L 79.0272 307.468062 
z
" style="fill:#1f77b4;"/>
   </g>
   <g id="patch_7">
    <path clip-path="url(#pf9d9d0d39f)" d="M 86.1696 307.584 
L 93.312 307.584 
L 93.312 307.296302 
L 86.1696 307.296302 
z
" style="fill:#1f77b4;"/>
   </g>
   <g id="patch_8">
    <path clip-path="url(#pf9d9d0d39f)" d="M 93.312 307.584 
L 100.4544 307.584 
L 100.4544 306.8873 
L 93.312 306.8873 
z
" style="fill:#1f77b4;"/>
   </g>
   <g id="patch_9">
    <path clip-path="url(#pf9d9d0d39f)" d="M 100.4544 307.584 
L 107.5968 307.584 
L 107.5968 306.280773 
L 100.4544 306.280773 
z
" style="fill:#1f77b4;"/>
   </g>
   <g id="patch_10">
    <path clip-path="url(#pf9d9d0d39f)" d="M 107.5968 307.584 
L 114.7392 307.584 
L 114.7392 304.884152 
L 107.5968 304.884152 
z
" style="fill:#1f77b4;"/>
   </g>
   <g id="patch_11">
    <path clip-path="url(#pf9d9d0d39f)" d="M 114.7392 307.584 
L 121.8816 307.584 
L 121.8816 302.85524 
L 114.7392 302.85524 
z
" style="fill:#1f77b4;"/>
   </g>
   <g id="patch_12">
    <path clip-path="url(#pf9d9d0d39f)" d="M 121.8816 307.584 
L 129.024 307.584 
L 129.024 299.770006 
L 121.8816 299.770006 
z
" style="fill:#1f77b4;"/>
   </g>
   <g id="patch_13">
    <path clip-path="url(#pf9d9d0d39f)" d="M 129.024 307.584 
L 136.1664 307.584 
L 136.1664 295.37403 
L 129.024 295.37403 
z
" style="fill:#1f77b4;"/>
   </g>
   <g id="patch_14">
    <path clip-path="url(#pf9d9d0d39f)" d="M 136.1664 307.584 
L 143.3088 307.584 
L 143.3088 289.092991 
L 136.1664 289.092991 
z
" style="fill:#1f77b4;"/>
   </g>
   <g id="patch_15">
    <path clip-path="url(#pf9d9d0d39f)" d="M 143.3088 307.584 
L 150.4512 307.584 
L 150.4512 281.283291 
L 143.3088 281.283291 
z
" style="fill:#1f77b4;"/>
   </g>
   <g id="patch_16">
    <path clip-path="url(#pf9d9d0d39f)" d="M 150.4512 307.584 
L 157.5936 307.584 
L 157.5936 271.757067 
L 150.4512 271.757067 
z
" style="fill:#1f77b4;"/>
   </g>
   <g id="patch_17">
    <path clip-path="url(#pf9d9d0d39f)" d="M 157.5936 307.584 
L 164.736 307.584 
L 164.736 262.196491 
L 157.5936 262.196491 
z
" style="fill:#1f77b4;"/>
   </g>
   <g id="patch_18">
    <path clip-path="url(#pf9d9d0d39f)" d="M 164.736 307.584 
L 171.8784 307.584 
L 171.8784 251.914524 
L 164.736 251.914524 
z
" style="fill:#1f77b4;"/>
   </g>
   <g id="patch_19">
    <path clip-path="url(#pf9d9d0d39f)" d="M 171.8784 307.584 
L 179.0208 307.584 
L 179.0208 242.990532 
L 171.8784 242.990532 
z
" style="fill:#1f77b4;"/>
   </g>
   <g id="patch_20">
    <path clip-path="url(#pf9d9d0d39f)" d="M 179.0208 307.584 
L 186.1632 307.584 
L 186.1632 234.963985 
L 179.0208 234.963985 
z
" style="fill:#1f77b4;"/>
   </g>
   <g id="patch_21">
    <path clip-path="url(#pf9d9d0d39f)" d="M 186.1632 307.584 
L 193.3056 307.584 
L 193.3056 228.98782 
L 186.1632 228.98782 
z
" style="fill:#1f77b4;"/>
   </g>
   <g id="patch_22">
    <path clip-path="url(#pf9d9d0d39f)" d="M 193.3056 307.584 
L 200.448 307.584 
L 200.448 225.589124 
L 193.3056 225.589124 
z
" style="fill:#1f77b4;"/>
   </g>
   <g id="patch_23">
    <path clip-path="url(#pf9d9d0d39f)" d="M 200.448 307.584 
L 207.5904 307.584 
L 207.5904 225.895071 
L 200.448 225.895071 
z
" style="fill:#1f77b4;"/>
   </g>
   <g id="patch_24">
    <path clip-path="url(#pf9d9d0d39f)" d="M 207.5904 307.584 
L 214.7328 307.584 
L 214.7328 228.307222 
L 207.5904 228.307222 
z
" style="fill:#1f77b4;"/>
   </g>
   <g id="patch_25">
    <path clip-path="url(#pf9d9d0d39f)" d="M 214.7328 307.584 
L 221.8752 307.584 
L 221.8752 234.260844 
L 214.7328 234.260844 
z
" style="fill:#1f77b4;"/>
   </g>
   <g id="patch_26">
    <path clip-path="url(#pf9d9d0d39f)" d="M 221.8752 307.584 
L 229.0176 307.584 
L 229.0176 241.027104 
L 221.8752 241.027104 
z
" style="fill:#1f77b4;"/>
   </g>
   <g id="patch_27">
    <path clip-path="url(#pf9d9d0d39f)" d="M 229.0176 307.584 
L 236.16 307.584 
L 236.16 250.13359 
L 229.0176 250.13359 
z
" style="fill:#1f77b4;"/>
   </g>
   <g id="patch_28">
    <path clip-path="url(#pf9d9d0d39f)" d="M 236.16 307.584 
L 243.3024 307.584 
L 243.3024 258.822486 
L 236.16 258.822486 
z
" style="fill:#1f77b4;"/>
   </g>
   <g id="patch_29">
    <path clip-path="url(#pf9d9d0d39f)" d="M 243.3024 307.584 
L 250.4448 307.584 
L 250.4448 267.26877 
L 243.3024 267.26877 
z
" style="fill:#1f77b4;"/>
   </g>
   <g id="patch_30">
    <path clip-path="url(#pf9d9d0d39f)" d="M 250.4448 307.584 
L 257.5872 307.584 
L 257.5872 275.950151 
L 250.4448 275.950151 
z
" style="fill:#1f77b4;"/>
   </g>
   <g id="patch_31">
    <path clip-path="url(#pf9d9d0d39f)" d="M 257.5872 307.584 
L 264.7296 307.584 
L 264.7296 283.143664 
L 257.5872 283.143664 
z
" style="fill:#1f77b4;"/>
   </g>
   <g id="patch_32">
    <path clip-path="url(#pf9d9d0d39f)" d="M 264.7296 307.584 
L 271.872 307.584 
L 271.872 289.17243 
L 264.7296 289.17243 
z
" style="fill:#1f77b4;"/>
   </g>
   <g id="patch_33">
    <path clip-path="url(#pf9d9d0d39f)" d="M 271.872 307.584 
L 279.0144 307.584 
L 279.0144 294.135213 
L 271.872 294.135213 
z
" style="fill:#1f77b4;"/>
   </g>
   <g id="patch_34">
    <path clip-path="url(#pf9d9d0d39f)" d="M 279.0144 307.584 
L 286.1568 307.584 
L 286.1568 297.989072 
L 279.0144 297.989072 
z
" style="fill:#1f77b4;"/>
   </g>
   <g id="patch_35">
    <path clip-path="url(#pf9d9d0d39f)" d="M 286.1568 307.584 
L 293.2992 307.584 
L 293.2992 300.90362 
L 286.1568 300.90362 
z
" style="fill:#1f77b4;"/>
   </g>
   <g id="patch_36">
    <path clip-path="url(#pf9d9d0d39f)" d="M 293.2992 307.584 
L 300.4416 307.584 
L 300.4416 303.020559 
L 293.2992 303.020559 
z
" style="fill:#1f77b4;"/>
   </g>
   <g id="patch_37">
    <path clip-path="url(#pf9d9d0d39f)" d="M 300.4416 307.584 
L 307.584 307.584 
L 307.584 304.541706 
L 300.4416 304.541706 
z
" style="fill:#1f77b4;"/>
   </g>
   <g id="patch_38">
    <path clip-path="url(#pf9d9d0d39f)" d="M 307.584 307.584 
L 314.7264 307.584 
L 314.7264 305.752612 
L 307.584 305.752612 
z
" style="fill:#1f77b4;"/>
   </g>
   <g id="patch_39">
    <path clip-path="url(#pf9d9d0d39f)" d="M 314.7264 307.584 
L 321.8688 307.584 
L 321.8688 306.402078 
L 314.7264 306.402078 
z
" style="fill:#1f77b4;"/>
   </g>
   <g id="patch_40">
    <path clip-path="url(#pf9d9d0d39f)" d="M 321.8688 307.584 
L 329.0112 307.584 
L 329.0112 306.792832 
L 321.8688 306.792832 
z
" style="fill:#1f77b4;"/>
   </g>
   <g id="patch_41">
    <path clip-path="url(#pf9d9d0d39f)" d="M 329.0112 307.584 
L 336.1536 307.584 
L 336.1536 307.117028 
L 329.0112 307.117028 
z
" style="fill:#1f77b4;"/>
   </g>
   <g id="patch_42">
    <path clip-path="url(#pf9d9d0d39f)" d="M 336.1536 307.584 
L 343.296 307.584 
L 343.296 307.300596 
L 336.1536 307.300596 
z
" style="fill:#1f77b4;"/>
   </g>
   <g id="patch_43">
    <path clip-path="url(#pf9d9d0d39f)" d="M 343.296 307.584 
L 350.4384 307.584 
L 350.4384 307.428343 
L 343.296 307.428343 
z
" style="fill:#1f77b4;"/>
   </g>
   <g id="patch_44">
    <path clip-path="url(#pf9d9d0d39f)" d="M 350.4384 307.584 
L 357.5808 307.584 
L 357.5808 307.502414 
L 350.4384 307.502414 
z
" style="fill:#1f77b4;"/>
   </g>
   <g id="patch_45">
    <path clip-path="url(#pf9d9d0d39f)" d="M 357.5808 307.584 
L 364.7232 307.584 
L 364.7232 307.513149 
L 357.5808 307.513149 
z
" style="fill:#1f77b4;"/>
   </g>
   <g id="patch_46">
    <path clip-path="url(#pf9d9d0d39f)" d="M 364.7232 307.584 
L 371.8656 307.584 
L 371.8656 307.555016 
L 364.7232 307.555016 
z
" style="fill:#1f77b4;"/>
   </g>
   <g id="patch_47">
    <path clip-path="url(#pf9d9d0d39f)" d="M 371.8656 307.584 
L 379.008 307.584 
L 379.008 307.576486 
L 371.8656 307.576486 
z
" style="fill:#1f77b4;"/>
   </g>
   <g id="patch_48">
    <path clip-path="url(#pf9d9d0d39f)" d="M 379.008 307.584 
L 386.1504 307.584 
L 386.1504 307.578633 
L 379.008 307.578633 
z
" style="fill:#1f77b4;"/>
   </g>
   <g id="patch_49">
    <path clip-path="url(#pf9d9d0d39f)" d="M 386.1504 307.584 
L 393.2928 307.584 
L 393.2928 307.581853 
L 386.1504 307.581853 
z
" style="fill:#1f77b4;"/>
   </g>
   <g id="patch_50">
    <path clip-path="url(#pf9d9d0d39f)" d="M 393.2928 307.584 
L 400.4352 307.584 
L 400.4352 307.581853 
L 393.2928 307.581853 
z
" style="fill:#1f77b4;"/>
   </g>
   <g id="patch_51">
    <path clip-path="url(#pf9d9d0d39f)" d="M 400.4352 307.584 
L 407.5776 307.584 
L 407.5776 307.584 
L 400.4352 307.584 
z
" style="fill:#1f77b4;"/>
   </g>
   <g id="patch_52">
    <path clip-path="url(#pf9d9d0d39f)" d="M 407.5776 307.584 
L 414.72 307.584 
L 414.72 307.581853 
L 407.5776 307.581853 
z
" style="fill:#1f77b4;"/>
   </g>
   <g id="matplotlib.axis_1">
    <g id="xtick_1">
     <g id="line2d_1">
      <path clip-path="url(#pf9d9d0d39f)" d="M 82.5984 307.584 
L 82.5984 41.472 
" style="fill:none;stroke:#b0b0b0;stroke-linecap:square;stroke-width:0.8;"/>
     </g>
     <g id="line2d_2">
      <defs>
       <path d="M 0 0 
L 0 3.5 
" id="m1399e81649" style="stroke:#000000;stroke-width:0.8;"/>
      </defs>
      <g>
       <use style="stroke:#000000;stroke-width:0.8;" x="82.5984" xlink:href="#m1399e81649" y="307.584"/>
      </g>
     </g>
     <g id="text_1">
      <!-- 10 -->
      <defs>
       <path d="M 12.40625 8.296875 
L 28.515625 8.296875 
L 28.515625 63.921875 
L 10.984375 60.40625 
L 10.984375 69.390625 
L 28.421875 72.90625 
L 38.28125 72.90625 
L 38.28125 8.296875 
L 54.390625 8.296875 
L 54.390625 0 
L 12.40625 0 
z
" id="DejaVuSans-31"/>
       <path d="M 31.78125 66.40625 
Q 24.171875 66.40625 20.328125 58.90625 
Q 16.5 51.421875 16.5 36.375 
Q 16.5 21.390625 20.328125 13.890625 
Q 24.171875 6.390625 31.78125 6.390625 
Q 39.453125 6.390625 43.28125 13.890625 
Q 47.125 21.390625 47.125 36.375 
Q 47.125 51.421875 43.28125 58.90625 
Q 39.453125 66.40625 31.78125 66.40625 
M 31.78125 74.21875 
Q 44.046875 74.21875 50.515625 64.515625 
Q 56.984375 54.828125 56.984375 36.375 
Q 56.984375 17.96875 50.515625 8.265625 
Q 44.046875 -1.421875 31.78125 -1.421875 
Q 19.53125 -1.421875 13.0625 8.265625 
Q 6.59375 17.96875 6.59375 36.375 
Q 6.59375 54.828125 13.0625 64.515625 
Q 19.53125 74.21875 31.78125 74.21875 
" id="DejaVuSans-30"/>
      </defs>
      <g transform="translate(76.2359 322.182437)scale(0.1 -0.1)">
       <use xlink:href="#DejaVuSans-31"/>
       <use x="63.623047" xlink:href="#DejaVuSans-30"/>
      </g>
     </g>
    </g>
    <g id="xtick_2">
     <g id="line2d_3">
      <path clip-path="url(#pf9d9d0d39f)" d="M 154.0224 307.584 
L 154.0224 41.472 
" style="fill:none;stroke:#b0b0b0;stroke-linecap:square;stroke-width:0.8;"/>
     </g>
     <g id="line2d_4">
      <g>
       <use style="stroke:#000000;stroke-width:0.8;" x="154.0224" xlink:href="#m1399e81649" y="307.584"/>
      </g>
     </g>
     <g id="text_2">
      <!-- 20 -->
      <defs>
       <path d="M 19.1875 8.296875 
L 53.609375 8.296875 
L 53.609375 0 
L 7.328125 0 
L 7.328125 8.296875 
Q 12.9375 14.109375 22.625 23.890625 
Q 32.328125 33.6875 34.8125 36.53125 
Q 39.546875 41.84375 41.421875 45.53125 
Q 43.3125 49.21875 43.3125 52.78125 
Q 43.3125 58.59375 39.234375 62.25 
Q 35.15625 65.921875 28.609375 65.921875 
Q 23.96875 65.921875 18.8125 64.3125 
Q 13.671875 62.703125 7.8125 59.421875 
L 7.8125 69.390625 
Q 13.765625 71.78125 18.9375 73 
Q 24.125 74.21875 28.421875 74.21875 
Q 39.75 74.21875 46.484375 68.546875 
Q 53.21875 62.890625 53.21875 53.421875 
Q 53.21875 48.921875 51.53125 44.890625 
Q 49.859375 40.875 45.40625 35.40625 
Q 44.1875 33.984375 37.640625 27.21875 
Q 31.109375 20.453125 19.1875 8.296875 
" id="DejaVuSans-32"/>
      </defs>
      <g transform="translate(147.6599 322.182437)scale(0.1 -0.1)">
       <use xlink:href="#DejaVuSans-32"/>
       <use x="63.623047" xlink:href="#DejaVuSans-30"/>
      </g>
     </g>
    </g>
    <g id="xtick_3">
     <g id="line2d_5">
      <path clip-path="url(#pf9d9d0d39f)" d="M 225.4464 307.584 
L 225.4464 41.472 
" style="fill:none;stroke:#b0b0b0;stroke-linecap:square;stroke-width:0.8;"/>
     </g>
     <g id="line2d_6">
      <g>
       <use style="stroke:#000000;stroke-width:0.8;" x="225.4464" xlink:href="#m1399e81649" y="307.584"/>
      </g>
     </g>
     <g id="text_3">
      <!-- 30 -->
      <defs>
       <path d="M 40.578125 39.3125 
Q 47.65625 37.796875 51.625 33 
Q 55.609375 28.21875 55.609375 21.1875 
Q 55.609375 10.40625 48.1875 4.484375 
Q 40.765625 -1.421875 27.09375 -1.421875 
Q 22.515625 -1.421875 17.65625 -0.515625 
Q 12.796875 0.390625 7.625 2.203125 
L 7.625 11.71875 
Q 11.71875 9.328125 16.59375 8.109375 
Q 21.484375 6.890625 26.8125 6.890625 
Q 36.078125 6.890625 40.9375 10.546875 
Q 45.796875 14.203125 45.796875 21.1875 
Q 45.796875 27.640625 41.28125 31.265625 
Q 36.765625 34.90625 28.71875 34.90625 
L 20.21875 34.90625 
L 20.21875 43.015625 
L 29.109375 43.015625 
Q 36.375 43.015625 40.234375 45.921875 
Q 44.09375 48.828125 44.09375 54.296875 
Q 44.09375 59.90625 40.109375 62.90625 
Q 36.140625 65.921875 28.71875 65.921875 
Q 24.65625 65.921875 20.015625 65.03125 
Q 15.375 64.15625 9.8125 62.3125 
L 9.8125 71.09375 
Q 15.4375 72.65625 20.34375 73.4375 
Q 25.25 74.21875 29.59375 74.21875 
Q 40.828125 74.21875 47.359375 69.109375 
Q 53.90625 64.015625 53.90625 55.328125 
Q 53.90625 49.265625 50.4375 45.09375 
Q 46.96875 40.921875 40.578125 39.3125 
" id="DejaVuSans-33"/>
      </defs>
      <g transform="translate(219.0839 322.182437)scale(0.1 -0.1)">
       <use xlink:href="#DejaVuSans-33"/>
       <use x="63.623047" xlink:href="#DejaVuSans-30"/>
      </g>
     </g>
    </g>
    <g id="xtick_4">
     <g id="line2d_7">
      <path clip-path="url(#pf9d9d0d39f)" d="M 296.8704 307.584 
L 296.8704 41.472 
" style="fill:none;stroke:#b0b0b0;stroke-linecap:square;stroke-width:0.8;"/>
     </g>
     <g id="line2d_8">
      <g>
       <use style="stroke:#000000;stroke-width:0.8;" x="296.8704" xlink:href="#m1399e81649" y="307.584"/>
      </g>
     </g>
     <g id="text_4">
      <!-- 40 -->
      <defs>
       <path d="M 37.796875 64.3125 
L 12.890625 25.390625 
L 37.796875 25.390625 
z
M 35.203125 72.90625 
L 47.609375 72.90625 
L 47.609375 25.390625 
L 58.015625 25.390625 
L 58.015625 17.1875 
L 47.609375 17.1875 
L 47.609375 0 
L 37.796875 0 
L 37.796875 17.1875 
L 4.890625 17.1875 
L 4.890625 26.703125 
z
" id="DejaVuSans-34"/>
      </defs>
      <g transform="translate(290.5079 322.182437)scale(0.1 -0.1)">
       <use xlink:href="#DejaVuSans-34"/>
       <use x="63.623047" xlink:href="#DejaVuSans-30"/>
      </g>
     </g>
    </g>
    <g id="xtick_5">
     <g id="line2d_9">
      <path clip-path="url(#pf9d9d0d39f)" d="M 368.2944 307.584 
L 368.2944 41.472 
" style="fill:none;stroke:#b0b0b0;stroke-linecap:square;stroke-width:0.8;"/>
     </g>
     <g id="line2d_10">
      <g>
       <use style="stroke:#000000;stroke-width:0.8;" x="368.2944" xlink:href="#m1399e81649" y="307.584"/>
      </g>
     </g>
     <g id="text_5">
      <!-- 50 -->
      <defs>
       <path d="M 10.796875 72.90625 
L 49.515625 72.90625 
L 49.515625 64.59375 
L 19.828125 64.59375 
L 19.828125 46.734375 
Q 21.96875 47.46875 24.109375 47.828125 
Q 26.265625 48.1875 28.421875 48.1875 
Q 40.625 48.1875 47.75 41.5 
Q 54.890625 34.8125 54.890625 23.390625 
Q 54.890625 11.625 47.5625 5.09375 
Q 40.234375 -1.421875 26.90625 -1.421875 
Q 22.3125 -1.421875 17.546875 -0.640625 
Q 12.796875 0.140625 7.71875 1.703125 
L 7.71875 11.625 
Q 12.109375 9.234375 16.796875 8.0625 
Q 21.484375 6.890625 26.703125 6.890625 
Q 35.15625 6.890625 40.078125 11.328125 
Q 45.015625 15.765625 45.015625 23.390625 
Q 45.015625 31 40.078125 35.4375 
Q 35.15625 39.890625 26.703125 39.890625 
Q 22.75 39.890625 18.8125 39.015625 
Q 14.890625 38.140625 10.796875 36.28125 
z
" id="DejaVuSans-35"/>
      </defs>
      <g transform="translate(361.9319 322.182437)scale(0.1 -0.1)">
       <use xlink:href="#DejaVuSans-35"/>
       <use x="63.623047" xlink:href="#DejaVuSans-30"/>
      </g>
     </g>
    </g>
   </g>
   <g id="matplotlib.axis_2">
    <g id="ytick_1">
     <g id="line2d_11">
      <path clip-path="url(#pf9d9d0d39f)" d="M 57.6 307.584 
L 414.72 307.584 
" style="fill:none;stroke:#b0b0b0;stroke-linecap:square;stroke-width:0.8;"/>
     </g>
     <g id="line2d_12">
      <defs>
       <path d="M 0 0 
L -3.5 0 
" id="md29add4b82" style="stroke:#000000;stroke-width:0.8;"/>
      </defs>
      <g>
       <use style="stroke:#000000;stroke-width:0.8;" x="57.6" xlink:href="#md29add4b82" y="307.584"/>
      </g>
     </g>
     <g id="text_6">
      <!-- 0 -->
      <g transform="translate(44.2375 311.383219)scale(0.1 -0.1)">
       <use xlink:href="#DejaVuSans-30"/>
      </g>
     </g>
    </g>
    <g id="ytick_2">
     <g id="line2d_13">
      <path clip-path="url(#pf9d9d0d39f)" d="M 57.6 253.909084 
L 414.72 253.909084 
" style="fill:none;stroke:#b0b0b0;stroke-linecap:square;stroke-width:0.8;"/>
     </g>
     <g id="line2d_14">
      <g>
       <use style="stroke:#000000;stroke-width:0.8;" x="57.6" xlink:href="#md29add4b82" y="253.909084"/>
      </g>
     </g>
     <g id="text_7">
      <!-- 50000 -->
      <g transform="translate(18.7875 257.708302)scale(0.1 -0.1)">
       <use xlink:href="#DejaVuSans-35"/>
       <use x="63.623047" xlink:href="#DejaVuSans-30"/>
       <use x="127.246094" xlink:href="#DejaVuSans-30"/>
       <use x="190.869141" xlink:href="#DejaVuSans-30"/>
       <use x="254.492188" xlink:href="#DejaVuSans-30"/>
      </g>
     </g>
    </g>
    <g id="ytick_3">
     <g id="line2d_15">
      <path clip-path="url(#pf9d9d0d39f)" d="M 57.6 200.234167 
L 414.72 200.234167 
" style="fill:none;stroke:#b0b0b0;stroke-linecap:square;stroke-width:0.8;"/>
     </g>
     <g id="line2d_16">
      <g>
       <use style="stroke:#000000;stroke-width:0.8;" x="57.6" xlink:href="#md29add4b82" y="200.234167"/>
      </g>
     </g>
     <g id="text_8">
      <!-- 100000 -->
      <g transform="translate(12.425 204.033386)scale(0.1 -0.1)">
       <use xlink:href="#DejaVuSans-31"/>
       <use x="63.623047" xlink:href="#DejaVuSans-30"/>
       <use x="127.246094" xlink:href="#DejaVuSans-30"/>
       <use x="190.869141" xlink:href="#DejaVuSans-30"/>
       <use x="254.492188" xlink:href="#DejaVuSans-30"/>
       <use x="318.115234" xlink:href="#DejaVuSans-30"/>
      </g>
     </g>
    </g>
    <g id="ytick_4">
     <g id="line2d_17">
      <path clip-path="url(#pf9d9d0d39f)" d="M 57.6 146.559251 
L 414.72 146.559251 
" style="fill:none;stroke:#b0b0b0;stroke-linecap:square;stroke-width:0.8;"/>
     </g>
     <g id="line2d_18">
      <g>
       <use style="stroke:#000000;stroke-width:0.8;" x="57.6" xlink:href="#md29add4b82" y="146.559251"/>
      </g>
     </g>
     <g id="text_9">
      <!-- 150000 -->
      <g transform="translate(12.425 150.35847)scale(0.1 -0.1)">
       <use xlink:href="#DejaVuSans-31"/>
       <use x="63.623047" xlink:href="#DejaVuSans-35"/>
       <use x="127.246094" xlink:href="#DejaVuSans-30"/>
       <use x="190.869141" xlink:href="#DejaVuSans-30"/>
       <use x="254.492188" xlink:href="#DejaVuSans-30"/>
       <use x="318.115234" xlink:href="#DejaVuSans-30"/>
      </g>
     </g>
    </g>
    <g id="ytick_5">
     <g id="line2d_19">
      <path clip-path="url(#pf9d9d0d39f)" d="M 57.6 92.884335 
L 414.72 92.884335 
" style="fill:none;stroke:#b0b0b0;stroke-linecap:square;stroke-width:0.8;"/>
     </g>
     <g id="line2d_20">
      <g>
       <use style="stroke:#000000;stroke-width:0.8;" x="57.6" xlink:href="#md29add4b82" y="92.884335"/>
      </g>
     </g>
     <g id="text_10">
      <!-- 200000 -->
      <g transform="translate(12.425 96.683554)scale(0.1 -0.1)">
       <use xlink:href="#DejaVuSans-32"/>
       <use x="63.623047" xlink:href="#DejaVuSans-30"/>
       <use x="127.246094" xlink:href="#DejaVuSans-30"/>
       <use x="190.869141" xlink:href="#DejaVuSans-30"/>
       <use x="254.492188" xlink:href="#DejaVuSans-30"/>
       <use x="318.115234" xlink:href="#DejaVuSans-30"/>
      </g>
     </g>
    </g>
   </g>
   <g id="line2d_21">
    <defs>
     <path d="M 0 3 
C 0.795609 3 1.55874 2.683901 2.12132 2.12132 
C 2.683901 1.55874 3 0.795609 3 0 
C 3 -0.795609 2.683901 -1.55874 2.12132 -2.12132 
C 1.55874 -2.683901 0.795609 -3 0 -3 
C -0.795609 -3 -1.55874 -2.683901 -2.12132 -2.12132 
C -2.683901 -1.55874 -3 -0.795609 -3 0 
C -3 0.795609 -2.683901 1.55874 -2.12132 2.12132 
C -1.55874 2.683901 -0.795609 3 0 3 
z
" id="m9f3ddb7095" style="stroke:#ff0000;"/>
    </defs>
    <g clip-path="url(#pf9d9d0d39f)">
     <use style="fill:#ff0000;stroke:#ff0000;" x="61.1712" xlink:href="#m9f3ddb7095" y="307.584"/>
     <use style="fill:#ff0000;stroke:#ff0000;" x="68.3136" xlink:href="#m9f3ddb7095" y="307.584"/>
     <use style="fill:#ff0000;stroke:#ff0000;" x="75.456" xlink:href="#m9f3ddb7095" y="307.584"/>
     <use style="fill:#ff0000;stroke:#ff0000;" x="82.5984" xlink:href="#m9f3ddb7095" y="307.584"/>
     <use style="fill:#ff0000;stroke:#ff0000;" x="89.7408" xlink:href="#m9f3ddb7095" y="307.584"/>
     <use style="fill:#ff0000;stroke:#ff0000;" x="96.8832" xlink:href="#m9f3ddb7095" y="307.584"/>
     <use style="fill:#ff0000;stroke:#ff0000;" x="104.0256" xlink:href="#m9f3ddb7095" y="307.584"/>
     <use style="fill:#ff0000;stroke:#ff0000;" x="111.168" xlink:href="#m9f3ddb7095" y="307.583996"/>
     <use style="fill:#ff0000;stroke:#ff0000;" x="118.3104" xlink:href="#m9f3ddb7095" y="307.583966"/>
     <use style="fill:#ff0000;stroke:#ff0000;" x="125.4528" xlink:href="#m9f3ddb7095" y="307.583711"/>
     <use style="fill:#ff0000;stroke:#ff0000;" x="132.5952" xlink:href="#m9f3ddb7095" y="307.581856"/>
     <use style="fill:#ff0000;stroke:#ff0000;" x="139.7376" xlink:href="#m9f3ddb7095" y="307.570064"/>
     <use style="fill:#ff0000;stroke:#ff0000;" x="146.88" xlink:href="#m9f3ddb7095" y="307.504783"/>
     <use style="fill:#ff0000;stroke:#ff0000;" x="154.0224" xlink:href="#m9f3ddb7095" y="307.191875"/>
     <use style="fill:#ff0000;stroke:#ff0000;" x="161.1648" xlink:href="#m9f3ddb7095" y="305.903466"/>
     <use style="fill:#ff0000;stroke:#ff0000;" x="168.3072" xlink:href="#m9f3ddb7095" y="301.396581"/>
     <use style="fill:#ff0000;stroke:#ff0000;" x="175.4496" xlink:href="#m9f3ddb7095" y="288.214688"/>
     <use style="fill:#ff0000;stroke:#ff0000;" x="182.592" xlink:href="#m9f3ddb7095" y="256.739556"/>
     <use style="fill:#ff0000;stroke:#ff0000;" x="189.7344" xlink:href="#m9f3ddb7095" y="197.76"/>
     <use style="fill:#ff0000;stroke:#ff0000;" x="196.8768" xlink:href="#m9f3ddb7095" y="117.504"/>
     <use style="fill:#ff0000;stroke:#ff0000;" x="204.0192" xlink:href="#m9f3ddb7095" y="54.144"/>
     <use style="fill:#ff0000;stroke:#ff0000;" x="211.1616" xlink:href="#m9f3ddb7095" y="63.195429"/>
     <use style="fill:#ff0000;stroke:#ff0000;" x="218.304" xlink:href="#m9f3ddb7095" y="155.894542"/>
     <use style="fill:#ff0000;stroke:#ff0000;" x="225.4464" xlink:href="#m9f3ddb7095" y="262.077163"/>
     <use style="fill:#ff0000;stroke:#ff0000;" x="232.5888" xlink:href="#m9f3ddb7095" y="307.584"/>
     <use style="fill:#ff0000;stroke:#ff0000;" x="239.7312" xlink:href="#m9f3ddb7095" y="307.584"/>
     <use style="fill:#ff0000;stroke:#ff0000;" x="246.8736" xlink:href="#m9f3ddb7095" y="307.584"/>
     <use style="fill:#ff0000;stroke:#ff0000;" x="254.016" xlink:href="#m9f3ddb7095" y="307.584"/>
     <use style="fill:#ff0000;stroke:#ff0000;" x="261.1584" xlink:href="#m9f3ddb7095" y="307.584"/>
     <use style="fill:#ff0000;stroke:#ff0000;" x="268.3008" xlink:href="#m9f3ddb7095" y="307.584"/>
     <use style="fill:#ff0000;stroke:#ff0000;" x="275.4432" xlink:href="#m9f3ddb7095" y="307.584"/>
     <use style="fill:#ff0000;stroke:#ff0000;" x="282.5856" xlink:href="#m9f3ddb7095" y="307.584"/>
     <use style="fill:#ff0000;stroke:#ff0000;" x="289.728" xlink:href="#m9f3ddb7095" y="307.584"/>
     <use style="fill:#ff0000;stroke:#ff0000;" x="296.8704" xlink:href="#m9f3ddb7095" y="307.584"/>
     <use style="fill:#ff0000;stroke:#ff0000;" x="304.0128" xlink:href="#m9f3ddb7095" y="307.584"/>
     <use style="fill:#ff0000;stroke:#ff0000;" x="311.1552" xlink:href="#m9f3ddb7095" y="307.584"/>
     <use style="fill:#ff0000;stroke:#ff0000;" x="318.2976" xlink:href="#m9f3ddb7095" y="307.584"/>
     <use style="fill:#ff0000;stroke:#ff0000;" x="325.44" xlink:href="#m9f3ddb7095" y="307.584"/>
     <use style="fill:#ff0000;stroke:#ff0000;" x="332.5824" xlink:href="#m9f3ddb7095" y="307.584"/>
     <use style="fill:#ff0000;stroke:#ff0000;" x="339.7248" xlink:href="#m9f3ddb7095" y="307.584"/>
     <use style="fill:#ff0000;stroke:#ff0000;" x="346.8672" xlink:href="#m9f3ddb7095" y="307.584"/>
     <use style="fill:#ff0000;stroke:#ff0000;" x="354.0096" xlink:href="#m9f3ddb7095" y="307.584"/>
     <use style="fill:#ff0000;stroke:#ff0000;" x="361.152" xlink:href="#m9f3ddb7095" y="307.584"/>
     <use style="fill:#ff0000;stroke:#ff0000;" x="368.2944" xlink:href="#m9f3ddb7095" y="307.584"/>
     <use style="fill:#ff0000;stroke:#ff0000;" x="375.4368" xlink:href="#m9f3ddb7095" y="307.584"/>
     <use style="fill:#ff0000;stroke:#ff0000;" x="382.5792" xlink:href="#m9f3ddb7095" y="307.584"/>
     <use style="fill:#ff0000;stroke:#ff0000;" x="389.7216" xlink:href="#m9f3ddb7095" y="307.584"/>
     <use style="fill:#ff0000;stroke:#ff0000;" x="396.864" xlink:href="#m9f3ddb7095" y="307.584"/>
     <use style="fill:#ff0000;stroke:#ff0000;" x="404.0064" xlink:href="#m9f3ddb7095" y="307.584"/>
     <use style="fill:#ff0000;stroke:#ff0000;" x="411.1488" xlink:href="#m9f3ddb7095" y="307.584"/>
    </g>
   </g>
   <g id="line2d_22">
    <path clip-path="url(#pf9d9d0d39f)" d="M 204.0192 307.584 
L 204.0192 41.472 
" style="fill:none;stroke:#ff0000;stroke-linecap:square;stroke-width:3;"/>
   </g>
   <g id="patch_53">
    <path d="M 57.6 307.584 
L 57.6 41.472 
" style="fill:none;stroke:#000000;stroke-linecap:square;stroke-linejoin:miter;stroke-width:0.8;"/>
   </g>
   <g id="patch_54">
    <path d="M 414.72 307.584 
L 414.72 41.472 
" style="fill:none;stroke:#000000;stroke-linecap:square;stroke-linejoin:miter;stroke-width:0.8;"/>
   </g>
   <g id="patch_55">
    <path d="M 57.6 307.584 
L 414.72 307.584 
" style="fill:none;stroke:#000000;stroke-linecap:square;stroke-linejoin:miter;stroke-width:0.8;"/>
   </g>
   <g id="patch_56">
    <path d="M 57.6 41.472 
L 414.72 41.472 
" style="fill:none;stroke:#000000;stroke-linecap:square;stroke-linejoin:miter;stroke-width:0.8;"/>
   </g>
   <g id="text_11">
    <!-- n=30 p=0.9 mean_exp=27.0±0.009, mean_act=27.0, diff=-0.31σ -->
    <defs>
     <path d="M 54.890625 33.015625 
L 54.890625 0 
L 45.90625 0 
L 45.90625 32.71875 
Q 45.90625 40.484375 42.875 44.328125 
Q 39.84375 48.1875 33.796875 48.1875 
Q 26.515625 48.1875 22.3125 43.546875 
Q 18.109375 38.921875 18.109375 30.90625 
L 18.109375 0 
L 9.078125 0 
L 9.078125 54.6875 
L 18.109375 54.6875 
L 18.109375 46.1875 
Q 21.34375 51.125 25.703125 53.5625 
Q 30.078125 56 35.796875 56 
Q 45.21875 56 50.046875 50.171875 
Q 54.890625 44.34375 54.890625 33.015625 
" id="DejaVuSans-6e"/>
     <path d="M 10.59375 45.40625 
L 73.1875 45.40625 
L 73.1875 37.203125 
L 10.59375 37.203125 
z
M 10.59375 25.484375 
L 73.1875 25.484375 
L 73.1875 17.1875 
L 10.59375 17.1875 
z
" id="DejaVuSans-3d"/>
     <path id="DejaVuSans-20"/>
     <path d="M 18.109375 8.203125 
L 18.109375 -20.796875 
L 9.078125 -20.796875 
L 9.078125 54.6875 
L 18.109375 54.6875 
L 18.109375 46.390625 
Q 20.953125 51.265625 25.265625 53.625 
Q 29.59375 56 35.59375 56 
Q 45.5625 56 51.78125 48.09375 
Q 58.015625 40.1875 58.015625 27.296875 
Q 58.015625 14.40625 51.78125 6.484375 
Q 45.5625 -1.421875 35.59375 -1.421875 
Q 29.59375 -1.421875 25.265625 0.953125 
Q 20.953125 3.328125 18.109375 8.203125 
M 48.6875 27.296875 
Q 48.6875 37.203125 44.609375 42.84375 
Q 40.53125 48.484375 33.40625 48.484375 
Q 26.265625 48.484375 22.1875 42.84375 
Q 18.109375 37.203125 18.109375 27.296875 
Q 18.109375 17.390625 22.1875 11.75 
Q 26.265625 6.109375 33.40625 6.109375 
Q 40.53125 6.109375 44.609375 11.75 
Q 48.6875 17.390625 48.6875 27.296875 
" id="DejaVuSans-70"/>
     <path d="M 10.6875 12.40625 
L 21 12.40625 
L 21 0 
L 10.6875 0 
z
" id="DejaVuSans-2e"/>
     <path d="M 10.984375 1.515625 
L 10.984375 10.5 
Q 14.703125 8.734375 18.5 7.8125 
Q 22.3125 6.890625 25.984375 6.890625 
Q 35.75 6.890625 40.890625 13.453125 
Q 46.046875 20.015625 46.78125 33.40625 
Q 43.953125 29.203125 39.59375 26.953125 
Q 35.25 24.703125 29.984375 24.703125 
Q 19.046875 24.703125 12.671875 31.3125 
Q 6.296875 37.9375 6.296875 49.421875 
Q 6.296875 60.640625 12.9375 67.421875 
Q 19.578125 74.21875 30.609375 74.21875 
Q 43.265625 74.21875 49.921875 64.515625 
Q 56.59375 54.828125 56.59375 36.375 
Q 56.59375 19.140625 48.40625 8.859375 
Q 40.234375 -1.421875 26.421875 -1.421875 
Q 22.703125 -1.421875 18.890625 -0.6875 
Q 15.09375 0.046875 10.984375 1.515625 
M 30.609375 32.421875 
Q 37.25 32.421875 41.125 36.953125 
Q 45.015625 41.5 45.015625 49.421875 
Q 45.015625 57.28125 41.125 61.84375 
Q 37.25 66.40625 30.609375 66.40625 
Q 23.96875 66.40625 20.09375 61.84375 
Q 16.21875 57.28125 16.21875 49.421875 
Q 16.21875 41.5 20.09375 36.953125 
Q 23.96875 32.421875 30.609375 32.421875 
" id="DejaVuSans-39"/>
     <path d="M 52 44.1875 
Q 55.375 50.25 60.0625 53.125 
Q 64.75 56 71.09375 56 
Q 79.640625 56 84.28125 50.015625 
Q 88.921875 44.046875 88.921875 33.015625 
L 88.921875 0 
L 79.890625 0 
L 79.890625 32.71875 
Q 79.890625 40.578125 77.09375 44.375 
Q 74.3125 48.1875 68.609375 48.1875 
Q 61.625 48.1875 57.5625 43.546875 
Q 53.515625 38.921875 53.515625 30.90625 
L 53.515625 0 
L 44.484375 0 
L 44.484375 32.71875 
Q 44.484375 40.625 41.703125 44.40625 
Q 38.921875 48.1875 33.109375 48.1875 
Q 26.21875 48.1875 22.15625 43.53125 
Q 18.109375 38.875 18.109375 30.90625 
L 18.109375 0 
L 9.078125 0 
L 9.078125 54.6875 
L 18.109375 54.6875 
L 18.109375 46.1875 
Q 21.1875 51.21875 25.484375 53.609375 
Q 29.78125 56 35.6875 56 
Q 41.65625 56 45.828125 52.96875 
Q 50 49.953125 52 44.1875 
" id="DejaVuSans-6d"/>
     <path d="M 56.203125 29.59375 
L 56.203125 25.203125 
L 14.890625 25.203125 
Q 15.484375 15.921875 20.484375 11.0625 
Q 25.484375 6.203125 34.421875 6.203125 
Q 39.59375 6.203125 44.453125 7.46875 
Q 49.3125 8.734375 54.109375 11.28125 
L 54.109375 2.78125 
Q 49.265625 0.734375 44.1875 -0.34375 
Q 39.109375 -1.421875 33.890625 -1.421875 
Q 20.796875 -1.421875 13.15625 6.1875 
Q 5.515625 13.8125 5.515625 26.8125 
Q 5.515625 40.234375 12.765625 48.109375 
Q 20.015625 56 32.328125 56 
Q 43.359375 56 49.78125 48.890625 
Q 56.203125 41.796875 56.203125 29.59375 
M 47.21875 32.234375 
Q 47.125 39.59375 43.09375 43.984375 
Q 39.0625 48.390625 32.421875 48.390625 
Q 24.90625 48.390625 20.390625 44.140625 
Q 15.875 39.890625 15.1875 32.171875 
z
" id="DejaVuSans-65"/>
     <path d="M 34.28125 27.484375 
Q 23.390625 27.484375 19.1875 25 
Q 14.984375 22.515625 14.984375 16.5 
Q 14.984375 11.71875 18.140625 8.90625 
Q 21.296875 6.109375 26.703125 6.109375 
Q 34.1875 6.109375 38.703125 11.40625 
Q 43.21875 16.703125 43.21875 25.484375 
L 43.21875 27.484375 
z
M 52.203125 31.203125 
L 52.203125 0 
L 43.21875 0 
L 43.21875 8.296875 
Q 40.140625 3.328125 35.546875 0.953125 
Q 30.953125 -1.421875 24.3125 -1.421875 
Q 15.921875 -1.421875 10.953125 3.296875 
Q 6 8.015625 6 15.921875 
Q 6 25.140625 12.171875 29.828125 
Q 18.359375 34.515625 30.609375 34.515625 
L 43.21875 34.515625 
L 43.21875 35.40625 
Q 43.21875 41.609375 39.140625 45 
Q 35.0625 48.390625 27.6875 48.390625 
Q 23 48.390625 18.546875 47.265625 
Q 14.109375 46.140625 10.015625 43.890625 
L 10.015625 52.203125 
Q 14.9375 54.109375 19.578125 55.046875 
Q 24.21875 56 28.609375 56 
Q 40.484375 56 46.34375 49.84375 
Q 52.203125 43.703125 52.203125 31.203125 
" id="DejaVuSans-61"/>
     <path d="M 50.984375 -16.609375 
L 50.984375 -23.578125 
L -0.984375 -23.578125 
L -0.984375 -16.609375 
z
" id="DejaVuSans-5f"/>
     <path d="M 54.890625 54.6875 
L 35.109375 28.078125 
L 55.90625 0 
L 45.3125 0 
L 29.390625 21.484375 
L 13.484375 0 
L 2.875 0 
L 24.125 28.609375 
L 4.6875 54.6875 
L 15.28125 54.6875 
L 29.78125 35.203125 
L 44.28125 54.6875 
z
" id="DejaVuSans-78"/>
     <path d="M 8.203125 72.90625 
L 55.078125 72.90625 
L 55.078125 68.703125 
L 28.609375 0 
L 18.3125 0 
L 43.21875 64.59375 
L 8.203125 64.59375 
z
" id="DejaVuSans-37"/>
     <path d="M 46 62.703125 
L 46 43.796875 
L 73.1875 43.796875 
L 73.1875 35.5 
L 46 35.5 
L 46 16.609375 
L 37.796875 16.609375 
L 37.796875 35.5 
L 10.59375 35.5 
L 10.59375 43.796875 
L 37.796875 43.796875 
L 37.796875 62.703125 
z
M 10.59375 8.296875 
L 73.1875 8.296875 
L 73.1875 0 
L 10.59375 0 
z
" id="DejaVuSans-b1"/>
     <path d="M 11.71875 12.40625 
L 22.015625 12.40625 
L 22.015625 4 
L 14.015625 -11.625 
L 7.71875 -11.625 
L 11.71875 4 
z
" id="DejaVuSans-2c"/>
     <path d="M 48.78125 52.59375 
L 48.78125 44.1875 
Q 44.96875 46.296875 41.140625 47.34375 
Q 37.3125 48.390625 33.40625 48.390625 
Q 24.65625 48.390625 19.8125 42.84375 
Q 14.984375 37.3125 14.984375 27.296875 
Q 14.984375 17.28125 19.8125 11.734375 
Q 24.65625 6.203125 33.40625 6.203125 
Q 37.3125 6.203125 41.140625 7.25 
Q 44.96875 8.296875 48.78125 10.40625 
L 48.78125 2.09375 
Q 45.015625 0.34375 40.984375 -0.53125 
Q 36.96875 -1.421875 32.421875 -1.421875 
Q 20.0625 -1.421875 12.78125 6.34375 
Q 5.515625 14.109375 5.515625 27.296875 
Q 5.515625 40.671875 12.859375 48.328125 
Q 20.21875 56 33.015625 56 
Q 37.15625 56 41.109375 55.140625 
Q 45.0625 54.296875 48.78125 52.59375 
" id="DejaVuSans-63"/>
     <path d="M 18.3125 70.21875 
L 18.3125 54.6875 
L 36.8125 54.6875 
L 36.8125 47.703125 
L 18.3125 47.703125 
L 18.3125 18.015625 
Q 18.3125 11.328125 20.140625 9.421875 
Q 21.96875 7.515625 27.59375 7.515625 
L 36.8125 7.515625 
L 36.8125 0 
L 27.59375 0 
Q 17.1875 0 13.234375 3.875 
Q 9.28125 7.765625 9.28125 18.015625 
L 9.28125 47.703125 
L 2.6875 47.703125 
L 2.6875 54.6875 
L 9.28125 54.6875 
L 9.28125 70.21875 
z
" id="DejaVuSans-74"/>
     <path d="M 45.40625 46.390625 
L 45.40625 75.984375 
L 54.390625 75.984375 
L 54.390625 0 
L 45.40625 0 
L 45.40625 8.203125 
Q 42.578125 3.328125 38.25 0.953125 
Q 33.9375 -1.421875 27.875 -1.421875 
Q 17.96875 -1.421875 11.734375 6.484375 
Q 5.515625 14.40625 5.515625 27.296875 
Q 5.515625 40.1875 11.734375 48.09375 
Q 17.96875 56 27.875 56 
Q 33.9375 56 38.25 53.625 
Q 42.578125 51.265625 45.40625 46.390625 
M 14.796875 27.296875 
Q 14.796875 17.390625 18.875 11.75 
Q 22.953125 6.109375 30.078125 6.109375 
Q 37.203125 6.109375 41.296875 11.75 
Q 45.40625 17.390625 45.40625 27.296875 
Q 45.40625 37.203125 41.296875 42.84375 
Q 37.203125 48.484375 30.078125 48.484375 
Q 22.953125 48.484375 18.875 42.84375 
Q 14.796875 37.203125 14.796875 27.296875 
" id="DejaVuSans-64"/>
     <path d="M 9.421875 54.6875 
L 18.40625 54.6875 
L 18.40625 0 
L 9.421875 0 
z
M 9.421875 75.984375 
L 18.40625 75.984375 
L 18.40625 64.59375 
L 9.421875 64.59375 
z
" id="DejaVuSans-69"/>
     <path d="M 37.109375 75.984375 
L 37.109375 68.5 
L 28.515625 68.5 
Q 23.6875 68.5 21.796875 66.546875 
Q 19.921875 64.59375 19.921875 59.515625 
L 19.921875 54.6875 
L 34.71875 54.6875 
L 34.71875 47.703125 
L 19.921875 47.703125 
L 19.921875 0 
L 10.890625 0 
L 10.890625 47.703125 
L 2.296875 47.703125 
L 2.296875 54.6875 
L 10.890625 54.6875 
L 10.890625 58.5 
Q 10.890625 67.625 15.140625 71.796875 
Q 19.390625 75.984375 28.609375 75.984375 
z
" id="DejaVuSans-66"/>
     <path d="M 4.890625 31.390625 
L 31.203125 31.390625 
L 31.203125 23.390625 
L 4.890625 23.390625 
z
" id="DejaVuSans-2d"/>
     <path d="M 30.609375 47.5625 
Q 23.1875 47.5625 19.1875 42.1875 
Q 14.984375 36.578125 14.984375 27.296875 
Q 14.984375 17.484375 19.15625 11.84375 
Q 23.34375 6.203125 30.609375 6.203125 
Q 37.796875 6.203125 41.984375 11.859375 
Q 46.1875 17.53125 46.1875 27.296875 
Q 46.1875 36.234375 42 42.1875 
Q 38.140625 47.5625 30.609375 47.5625 
M 30.609375 54.6875 
L 60.453125 54.6875 
L 60.453125 45.703125 
L 50.390625 45.703125 
Q 55.71875 38.09375 55.71875 27.296875 
Q 55.71875 13.875 49.03125 6.25 
Q 42.328125 -1.421875 30.609375 -1.421875 
Q 18.84375 -1.421875 12.203125 6.25 
Q 5.515625 13.875 5.515625 27.296875 
Q 5.515625 40.828125 12.203125 48.390625 
Q 17.71875 54.6875 30.609375 54.6875 
" id="DejaVuSans-3c3"/>
    </defs>
    <g transform="translate(36.430313 37.472)scale(0.12 -0.12)">
     <use xlink:href="#DejaVuSans-6e"/>
     <use x="63.378906" xlink:href="#DejaVuSans-3d"/>
     <use x="147.167969" xlink:href="#DejaVuSans-33"/>
     <use x="210.791016" xlink:href="#DejaVuSans-30"/>
     <use x="274.414062" xlink:href="#DejaVuSans-20"/>
     <use x="306.201172" xlink:href="#DejaVuSans-70"/>
     <use x="369.677734" xlink:href="#DejaVuSans-3d"/>
     <use x="453.466797" xlink:href="#DejaVuSans-30"/>
     <use x="517.089844" xlink:href="#DejaVuSans-2e"/>
     <use x="548.876953" xlink:href="#DejaVuSans-39"/>
     <use x="612.5" xlink:href="#DejaVuSans-20"/>
     <use x="644.287109" xlink:href="#DejaVuSans-6d"/>
     <use x="741.699219" xlink:href="#DejaVuSans-65"/>
     <use x="803.222656" xlink:href="#DejaVuSans-61"/>
     <use x="864.501953" xlink:href="#DejaVuSans-6e"/>
     <use x="927.880859" xlink:href="#DejaVuSans-5f"/>
     <use x="977.880859" xlink:href="#DejaVuSans-65"/>
     <use x="1039.388672" xlink:href="#DejaVuSans-78"/>
     <use x="1098.568359" xlink:href="#DejaVuSans-70"/>
     <use x="1162.044922" xlink:href="#DejaVuSans-3d"/>
     <use x="1245.833984" xlink:href="#DejaVuSans-32"/>
     <use x="1309.457031" xlink:href="#DejaVuSans-37"/>
     <use x="1373.080078" xlink:href="#DejaVuSans-2e"/>
     <use x="1404.867188" xlink:href="#DejaVuSans-30"/>
     <use x="1468.490234" xlink:href="#DejaVuSans-b1"/>
     <use x="1552.279297" xlink:href="#DejaVuSans-30"/>
     <use x="1615.902344" xlink:href="#DejaVuSans-2e"/>
     <use x="1647.689453" xlink:href="#DejaVuSans-30"/>
     <use x="1711.3125" xlink:href="#DejaVuSans-30"/>
     <use x="1774.935547" xlink:href="#DejaVuSans-39"/>
     <use x="1838.558594" xlink:href="#DejaVuSans-2c"/>
     <use x="1870.345703" xlink:href="#DejaVuSans-20"/>
     <use x="1902.132812" xlink:href="#DejaVuSans-6d"/>
     <use x="1999.544922" xlink:href="#DejaVuSans-65"/>
     <use x="2061.068359" xlink:href="#DejaVuSans-61"/>
     <use x="2122.347656" xlink:href="#DejaVuSans-6e"/>
     <use x="2185.726562" xlink:href="#DejaVuSans-5f"/>
     <use x="2235.726562" xlink:href="#DejaVuSans-61"/>
     <use x="2297.005859" xlink:href="#DejaVuSans-63"/>
     <use x="2351.986328" xlink:href="#DejaVuSans-74"/>
     <use x="2391.195312" xlink:href="#DejaVuSans-3d"/>
     <use x="2474.984375" xlink:href="#DejaVuSans-32"/>
     <use x="2538.607422" xlink:href="#DejaVuSans-37"/>
     <use x="2602.230469" xlink:href="#DejaVuSans-2e"/>
     <use x="2634.017578" xlink:href="#DejaVuSans-30"/>
     <use x="2697.640625" xlink:href="#DejaVuSans-2c"/>
     <use x="2729.427734" xlink:href="#DejaVuSans-20"/>
     <use x="2761.214844" xlink:href="#DejaVuSans-64"/>
     <use x="2824.691406" xlink:href="#DejaVuSans-69"/>
     <use x="2852.474609" xlink:href="#DejaVuSans-66"/>
     <use x="2887.679688" xlink:href="#DejaVuSans-66"/>
     <use x="2922.884766" xlink:href="#DejaVuSans-3d"/>
     <use x="3006.673828" xlink:href="#DejaVuSans-2d"/>
     <use x="3042.757812" xlink:href="#DejaVuSans-30"/>
     <use x="3106.380859" xlink:href="#DejaVuSans-2e"/>
     <use x="3138.167969" xlink:href="#DejaVuSans-33"/>
     <use x="3201.791016" xlink:href="#DejaVuSans-31"/>
     <use x="3265.414062" xlink:href="#DejaVuSans-3c3"/>
    </g>
   </g>
  </g>
 </g>
 <defs>
  <clipPath id="pf9d9d0d39f">
   <rect height="266.112" width="357.12" x="57.6" y="41.472"/>
  </clipPath>
 </defs>
</svg>
